<svg xmlns="http://www.w3.org/2000/svg" viewBox="0 0 507.22 659.75"><defs><style>.cls-1,.cls-2,.cls-3,.cls-4{isolation:isolate;}.cls-1{font-size:72px;}.cls-1,.cls-3,.cls-4{fill:#fff;font-family:Candara, Candara;}.cls-3,.cls-4{font-size:48px;}.cls-4{letter-spacing:0.01em;}.cls-5{fill:#f6dbaa;}.cls-6{fill:#142f32;}.cls-7{fill:#fcddae;}.cls-8{fill:#fcdeae;}.cls-9{fill:#f1d6a6;}.cls-10{fill:#f1d6a5;}.cls-11{fill:#eed29f;}.cls-12{fill:#edd3a2;}.cls-13{fill:#e8d0a0;}.cls-14{fill:#e9ce9c;}.cls-15{fill:#ecd09e;}.cls-16{fill:#1b3335;}.cls-17{fill:#e3cd9e;}.cls-18{fill:#e3cb9b;}.cls-19{fill:#223737;}.cls-20{fill:#f0daaa;}.cls-21{fill:#e1d1a6;}.cls-22{fill:#283732;}.cls-23{fill:#193231;}.cls-24{fill:#eb3131;}.cls-25{fill:#eb2c2b;}.cls-26{fill:#c51d1e;}.cls-27{fill:#32433b;}.cls-28{fill:#223230;}</style></defs><title>colourLogo</title><g id="Layer_2" data-name="Layer 2"><g id="Layer_1-2" data-name="Layer 1"><text class="cls-1" transform="translate(9.75 588.13)">- SPICE ISLAND -</text><g class="cls-2"><text class="cls-3" transform="translate(136.16 646.13)">IN</text><text class="cls-4" transform="translate(181.77 646.13)">D</text><text class="cls-3" transform="translate(213.08 646.13)">ONESIA</text></g><path class="cls-5" d="M253.35,495.07c-109.8-.53-209.48-71.71-241.57-175.76C-12.3,241.19.71,167.87,49.27,102.09,88.34,49.16,141.12,16.17,206,4.37c121.17-22,232.7,41.47,279.35,142.45,40.71,88.12,23.57,194.41-43,265.36-39.57,42.18-87.88,68.5-144.87,78.32C283,493,268.07,493.6,253.35,495.07Zm-4.46-11.23c50.09.67,98.38-12.46,139.06-39.64,66.53-44.45,104.56-106.35,108.55-186.85,3.39-68.21-20.75-126.92-68.89-174.9C372.8,27.82,305.76,4.88,228.9,11.83,170.49,17.12,120.07,41,79.34,83.07,19.52,144.92-2.37,218.87,17.85,302.65,43.16,407.52,140.34,482.4,248.89,483.84Z"/><path class="cls-6" d="M248.89,483.84c-108.55-1.44-205.73-76.32-231-181.19C-2.37,218.87,19.52,144.92,79.34,83.07,120.07,41,170.49,17.12,228.9,11.83c76.86-6.95,143.9,16,198.71,70.62,48.14,48,72.28,106.69,68.89,174.9-4,80.5-42,142.4-108.55,186.85C347.27,471.38,299,484.51,248.89,483.84ZM270,50l.07,0c-.37.32-.74.64-1.1,1h0l-1,1-1,1-1,1h0l-1,1.07,0,0-1,1.17a.82.82,0,0,1-.43.77c-4.82-1-1.67-4.94-2.77-7.31a.57.57,0,0,1,.28-.65l.75-1.17-.05.07,3.11-4,0,0,1.05-1h0c5.64,1.08,9.86-1.87,14-5l3-.07,1,0c-7.6-6.75-22.7-3.12-27.73,6.77-1.42,2.79-2.41,5.8-3.78,9.16-.57-1.54-1-2.45-1.24-3.4C247,35,235.52,32.9,222.59,36c-.34.08-.42,1.25-.62,1.92l8.68.72,1.31.25,2.35.86A.55.55,0,0,1,235,40l1.28.65,0,0c-1.4,4-3.88,4.65-7.8,3.14-2.81-1.08-6-1.16-9.06-1.69l-.2.15L219,42c-5.44-1.6-10.85-2.61-15.94,1.08l-8.84,4.8.37.82h5.76l15.81,1.09,10.8,2.41-7.06,6.93-1.94-.42-2.63-.67-.29,0-16.14.08-.26-.09-3.65.71-1.4.25L188,60.82C177.36,65.6,168.05,72,161.41,82.18c11.49-7.28,23.16-14.09,37-15.63l5.54,1-5,7.38c-31.92,7.67-49.88,29-57.52,59.8-2.63,10.63-3.32,21.72-5.62,32.44-2.08,9.69-4.08,19.64-8,28.62-4.44,10-14.87,11.17-22.53,3.29a77.8,77.8,0,0,1-10.37-14,73.24,73.24,0,0,1-11-40.37c.18-8.73-2.17-16.91-10-22.33C67.71,118,59.06,118.83,55,124c14-.47,20.44,5.26,21.63,19.43.21,2.49.08,5,.31,7.49a88.54,88.54,0,0,0,25.82,55.38c7.85,8,19.33,7.91,26.52-.6,4.59-5.42,7.92-12.25,10.46-19,2.85-7.57,4.09-15.74,6.2-23.61,4.43-16.52,10.37-32.36,21.9-45.43,7.4-8.41,16.13-14.84,27.47-17l4.63-1,.2-.18.22.18c7.95.36,15.9.68,23.84,1.09,5.46.27,10.91.74,16.37.93,1.62.06,4.31.25,2.19-2.86L241,97.71l-3-12.92a3.75,3.75,0,0,0-.08-.88l10.34-1.19-.05,0c.26.74.51,1.47.76,2.2a1,1,0,0,1,.3.91c-2.06,2.54-.72,4,1.64,5.1.53,1.52,1.06,3,1.87,5.31.9-2.69,1.48-4.73,2.26-6.7,2.48-6.32,4.53-12.86,7.64-18.86,9.56-18.41,23.44-25.25,43.93-22.39a41.17,41.17,0,0,0,6.28,0l-2-1.23.07.05-2-1.12,0,0-1.53-.86a.29.29,0,0,1-.44-.2L302.82,43l.09,0-3.2-.86.11.07c-5.21-.21-10.47-.93-15.61-.42-2.85.29-5.5,2.64-8.25,4.06h0L274,47.05l.09-.08-1.18.84L271.25,49ZM420,297.85l-.05,0-1,.82-.15.1-1.67,1.34.07,0c-4.44-.42-4.95,2.58-5.11,5.88h0l-7.83,5a20.91,20.91,0,0,0,.15-3.2,10.6,10.6,0,0,0-.78-2.09c.15-.61.3-1.22.46-1.83.46-2,1.56-4.08,1.25-5.94-.47-2.81.29-4.05,2.94-4.44l-.22.23.24-.21,3,3.18a.53.53,0,0,1,.62.22l1.77-.43-.15.19.21-5.79.08.12-.91-1.16-1-1-1.23-.9c-5.21-1.49-9.92-3.2-13.21-8.34-2.8-4.39-7.74-6.57-13.25-6.9-16-1-28.33,11.42-28,28.06a46.71,46.71,0,0,1-.67,9.89A40.36,40.36,0,0,0,374.33,353c3.08,1.83,6.57,3,9.87,4.41.39-.57.78-1.13,1.16-1.7-2.53-2.72-4.82-5.73-7.64-8.1-9-7.57-15.69-16.6-16.14-28.66A180.83,180.83,0,0,1,363,293.21c.79-7.36,7.93-14.06,15.24-15.29,8.58-1.44,14.73,1.36,18.89,8.58.63,1.47,1.27,2.93,1.9,4.39a.32.32,0,0,1,.13.5c.4,1.51.81,3,1.21,4.55l-.15.26q-1,6.45-2,12.9l0-.05-1,1.17.05-.05-1,1.12-.05.08-2.34-.49h0L392.67,296l.07.13c-.37-.68-.74-1.36-1.12-2l.11.11L390.8,293l.08.07L389.8,292l.09.09-1.32-1a.56.56,0,0,1-.6-.27l-1.21-.73.12.08c-2.62-2.21-5.23-3.17-7.85,0-5.56,3.68-9.35,8.5-8.56,15.52.71,6.38,4.56,10.44,10.68,12.34.94.29,1.88.6,2.82.9l6.06,3,0,0,2.07,1c9.69,2.2,13.75,1.17,18.59-7,5.63-9.49,13.31-16.47,22.56-22.11a30.42,30.42,0,0,0,6.09-5.13c5.67-6,6.87-12.14,2.52-19.08a48,48,0,0,0-11.48-12.88c-7.16-5.36-15.18-9.56-22.81-14.29-6.79-4.21-12.79-9-12.73-18.34-1,3.06-1.65,6.1-1.15,8.92,1.1,6.2,5.62,10.09,10.65,13.21,5.93,3.69,12.44,6.52,18,10.63A76.47,76.47,0,0,1,437,270.62c4.34,5.49,3.75,10.4-1.28,15.2-4.4,4.19-9.7,7.45-14.61,11.12ZM126.16,317.29l2.15-1,0,0c5.47-2.61,7.8-7.29,7.37-13a15.26,15.26,0,0,0-8.92-13c-4.5-2.2-9.87-.14-12.42,4.34s-1.45,10.71,2.38,13.62c3.26,2.46,8.14,1.42,12-2.62,1.07-1.12,2-2.37,3-3.56l.76.36q-1,4-2,8l-.05.06-2.5,2.42c-9.18,4.36-18.11,1.83-21.53-6.1-3.09-7.16.56-21.4,7-25.84a19.78,19.78,0,0,1,8.19-3.12c8.88-1.26,15.23,3,20.08,10.09,3.49,11.58,3.39,23.57,2.46,35.32-.83,10.39-7.78,18-15.63,24.57-2.75,2.31-4.88,5.35-7.3,8.06l1,1.16a13.56,13.56,0,0,0,2.73-.48c10.38-4,18.41-10.78,22.87-21,7.16-16.41,3.06-32.73-1.3-48.94-.08-.29-.41-.51-.63-.76-7-12.65-22.24-17.7-33.05-10.12-6,4.23-10.42,10.83-18.17,12.71-.56.14-1,.81-1.48,1.31-2.15,2.46-2.07,4.61.54,6.38l9.23-6.77c-.88,20.34,1.14,24.88,12,28.32l2,.39.3-.1,5.26,0,.31.15,3.37-.94ZM270.09,71c26.62-11.28,50.66-4.28,73.54,10.92a54.8,54.8,0,0,0-47.46-24c-10.65.44-20.4,3.06-26.95,12.47l-.27,1.2ZM366.82,421.5c-1.58,2.27-2.8,5-4.89,6.62-1.05.83-3.65-.32-5.56-.58a28.27,28.27,0,0,1,2.37-3.5,12.4,12.4,0,0,1,2.61-1.75l.09-1.7c-2.3-.49-5-1.93-6.77-1.2s-3.57,3.53-3.84,5.62c-.82,6.17,5.5,10.34,11.36,8.11a42.75,42.75,0,0,1,9.19-2.34c6.74-1,11.59-6.19,11.08-12.37-.47-5.68-5.63-9.61-12.47-9.51-1,0-2-.11-2.94-.17-3.25-5.74-8.28-7.88-14.66-7.2-11.21,1.2-20,11.19-20.58,22.8-.29,5.78-1.33,11.53-2,17.3l-1.46.07c-4.88-6.47-11.36-9.53-19.35-9.77-13.75-.42-14.41-.25-19,7,13.46,1.45,29.81-5.66,36.94,13.62,1.62-1.4,2.79-2,3.27-2.9,3.95-7.48,8.47-14.77,7.23-23.89a18.43,18.43,0,0,1,.61-6.91c2-7.74,10.8-14,18-12.95C362.59,406.84,367.12,413.34,366.82,421.5Zm-94-337.18,1.29,10-11,4.87a11.7,11.7,0,0,0,6.07,1c8.14-.44,16.28-1.06,24.43-1.39,22.8-.93,39.51,9.33,51.55,28.2,9.48,14.85,14.15,31.42,17.72,48.41,2.06,9.81,4.53,19.53,10.82,27.63,8.75,11.27,20.95,12,30.84,1.82,11.43-11.74,18.55-26,22.31-41.75,1.88-7.86,1.74-16.18,3-24.21,1.48-9.43,8.21-14.9,17.64-15,1.26,0,2.52,0,4.27,0a9.49,9.49,0,0,0-1.2-1.42c-9.43-6.58-22.2-2-26.39,10.11-1.8,5.21-2.12,11.06-2.36,16.66-.84,19.53-8.49,36.15-21.75,50.08-7.33,7.7-16.5,6.25-22.19-2.77a30.35,30.35,0,0,1-3.91-9.1c-1.94-8.41-3.67-16.89-5-25.42-2.72-16.91-4.82-33.91-12.92-49.46-13.51-25.93-40.46-41-68.11-37.71-7.63.92-14.63,3.39-20.53,10.3Zm-20.44,35.06c-4.28,22.47-10.54,35.29-23.28,48.28C218,179,204.39,186,189.62,191.17c-8.81,3.09-12.45,7.56-12.31,16.1.31,18.65-.34,37.46,1.95,55.89,4,32.13,19.77,57.56,48.6,73.79,16.94,9.54,34.06,9.23,50.84-.36,25.39-14.52,41.44-36.67,45.85-65.12,3.37-21.72,2.58-44.11,3.18-66.22.16-5.84-3.28-10.37-9-12.61-3.25-1.27-6.54-2.44-9.77-3.74C277.52,176.2,257.82,153.94,252.41,119.38ZM253.78,463c21.27-17.92,39.87-37.74,53.7-61.7,4-6.86,3.72-6.84-1.83-12.74-3.84-4.09-8.5-8-10.71-12.86s-2.21-11-2.51-16.57c-.39-7-.1-14.1-.1-22.28-12.56,9-24.88,14.87-39.25,15s-26.85-6-39.15-14.33c0,9.58-.05,18.07,0,26.57.06,8.26-2.42,15.38-8.92,20.82-3.31,2.77-6.57,5.62-9.45,8.08C205.66,415.39,229.75,444.18,253.78,463Zm173-190.51c-4.77-1.63-9.45-2.57-13.45-4.77A41.46,41.46,0,0,1,402,258.9c-16.18-18.72-58.16-10.16-63.64,19.71-2.41,13.11-4,26.55-5.19,39.82-2.15,24.67,11.69,44.27,35,52.67,8.39,3,16.31,6.61,22.73,13a16.81,16.81,0,0,0,2.53,1.67c-1.14-7.45-4.75-12.69-12.25-16.84-4.34-2.39-9.11-4-13.64-6.07-20.47-9.28-32.16-29.85-27.43-50.64,2.2-9.67,2.74-19.33,3.93-29,1.48-12,7.9-20.82,19.59-24.8,11.9-4,23.42-4.78,33.26,5.45a52.19,52.19,0,0,0,11,8.43C413.93,275.81,420.25,275.25,426.83,272.5Zm-347.27-.71c.76.83.94,1.15,1.21,1.3a10.12,10.12,0,0,0,1.82.79c10.84,3.22,18.84-1.93,25.62-9.36,9.52-10.45,20.86-10.3,33-6.65s18.82,12.35,20.63,24.44c1.6,10.61.65,21.6,5,31.81a6.39,6.39,0,0,1,.17,2c1.45,21.35-10.58,40-30.48,47.95A84.9,84.9,0,0,0,120,372.89a15.07,15.07,0,0,0-6.62,12.47c7.81-8,17.81-11.48,27.81-15.3,20.25-7.72,33.78-27.87,32-49.34-1.17-13.94-3.1-28-5.53-41.72-5.5-31.21-45.85-36.87-60.18-22.93C99.55,263.71,91.59,270.93,79.56,271.79ZM179,441.51l-1.7.14c-.83-5.47-1.92-10.91-2.46-16.4-1-9.86-5.33-17.44-14.2-22-6.79-3.46-15-2.34-19.38,2.68a7.87,7.87,0,0,1-6.72,3,10.46,10.46,0,0,0-10.39,9c-.66,5.2,3,11,8.28,12.06,4.59.91,9.1,1.34,13.51,3.48,1.86.91,6.51-1,8-3.07s1.17-6,.5-8.78c-.29-1.24-3.38-2.2-5.32-2.48-.95-.14-2.17,1.56-3.27,2.43,1.08,1.13,2.23,2.2,3.21,3.42.54.66,1.22,1.68,1,2.31s-1.52,1.91-1.95,1.75c-1.91-.69-4.14-1.38-5.4-2.82-3.66-4.15-3.65-11-.44-15.3A12.44,12.44,0,0,1,157,406.6c7.47,2.73,12.72,9.56,12,17.69-.86,9.69,3.47,17.41,7.77,25.27.67,1.23,2.68,1.73,4.35,2.73C184.14,442.27,191,439,200,439c5.58,0,11.16,0,17.24,0-3-4.83-6.08-7.28-11.77-7.15C195.36,432,185.67,432.26,179,441.51Zm20.73-24.26c-6.16-10.65-10.23-21.67-18.94-29.79-11.08-10.33-25.76-13.67-37.67-7-10.18,5.67-19.69,12.73-28.9,19.93-6.33,4.95-6.81,13.15-2.18,19.33-.72-8.93,3.81-14.34,10.75-18.51a163.44,163.44,0,0,0,16.52-10.94c8.29-6.47,17.09-7.65,26.71-3.94,11.26,4.34,17.57,13.22,21.72,24C190.51,417.51,190.48,417.52,199.73,417.25Zm195.09,2.17c4.78-9.15,1.28-17.94-7.76-22.91-4.74-2.6-9.66-5.32-13.52-9-11.83-11.34-27.06-13.3-41.12-4.84-13.26,8-18.21,21.71-25.21,34.53,9.28.48,9.2.45,12.26-7.33a65.36,65.36,0,0,1,4.57-9.41c9-15.06,30-23.45,46.19-7.56a31.46,31.46,0,0,0,9.41,6.44C388.34,403,394.94,408.09,394.82,419.42ZM110.7,224.21c0,7.43-3.91,12.42-9.61,16.15s-12,6.63-17.36,10.73c-6.55,5-13.29,10.13-18.4,16.45-6.28,7.76-4.64,15.83,2.93,22.5a68.53,68.53,0,0,0,8.83,6.47,53.8,53.8,0,0,1,17,17.2,31.38,31.38,0,0,0,8.9,9c4,2.69,9.11,1.46,12.93-2.51-10.31,3.28-14.79-2.64-19.45-9.66-3.6-5.41-8.64-9.92-13.38-14.47-2.6-2.51-6-4.19-8.9-6.4-9.66-7.31-10.49-14.35-2.43-23.51a47.62,47.62,0,0,1,9.41-8.1c4.54-3,9.73-5.12,14.18-8.26,5.1-3.58,10.27-7.38,14.35-12C113,234.15,114,229,110.7,224.21Zm207,229.73c.13-.67.27-1.34.41-2-2.81-1.22-5.54-3.06-8.47-3.49-3.38-.5-7,.07-10.43.5-14.39,1.8-26.79,7.71-37.84,18.74C282.22,468.36,298.85,456.72,317.72,453.94Zm-72.29,12.77c-2.58-2-5.08-4.21-7.76-6.14-11.85-8.51-25-12.85-39.7-12.16-3.58.17-6.88.91-8.21,5.72C208.89,456.34,225.4,468.16,245.43,466.71ZM55.1,297.07l-1,.63c2,2.06,3.71,5.53,6,5.92,7.34,1.29,10.79,4.82,10,12.32,0,.21.39.47.45.54,3.45.44,7.2,0,9.85,1.51,2.42,1.37,3.64,4.84,5.18,7.09,3.18-7.14.79-9.92-11.81-12.68-1.22-8.89-1.27-8.73-9.91-11.18C60.73,300.36,58,298.49,55.1,297.07Zm366.46,28.85c1.55-8,2.5-8.83,10.79-8.91,2.63,0,4.8-.16,4.35-3.63-.7-5.36,1.74-7.81,7-8.74,3.72-.66,7.37-2.39,7.16-7-2.64,1.27-5.15,3-7.91,3.72-9.09,2.53-9.12,2.4-10.34,11.16C420.83,313.83,416.81,318.71,421.56,325.92Zm-93.79-7.67,1-1.25-9.25-11.07-4,6.64ZM186,305.74l-8.56,11.6,1.27,1.11,11.48-5.81Z"/><path class="cls-7" d="M252.41,119.38c5.41,34.56,25.11,56.82,56.52,69.52,3.23,1.3,6.52,2.47,9.77,3.74,5.75,2.24,9.19,6.77,9,12.61-.6,22.11.19,44.5-3.18,66.22-4.41,28.45-20.46,50.6-45.85,65.12-16.78,9.59-33.9,9.9-50.84.36-28.83-16.23-44.59-41.66-48.6-73.79-2.29-18.43-1.64-37.24-1.95-55.89-.14-8.54,3.5-13,12.31-16.1C204.39,186,218,179,229.13,167.66,241.87,154.67,248.13,141.85,252.41,119.38Zm9.72,163.92,3.09-1.33c3-1.57,1.91-3.52-.32-3.89-2.52-.42-5.27.52-7.92.87l-1,.92h0l-3.19,4.18c-4.42-7.43-10-8.79-13.71-3.14,5.2,3.88,11,4.67,17.25,3.83l.26.1.23-.16,5.47-1.49Zm10,16.55L271,298.7c-7.12-7.95-9.83-8.66-18.18-4.72-4.18-3.72-8.43-3-12.55.1-2.51,1.88-4.85,4-7.26,6l-2.49.82L235,305c3.49,6.5,6.9,13.06,15.5,13.87,10,.92,14.8-2.39,20.23-14l5.1-4.29-3.51-1Zm51.6-76-.56-1.72c-6.57,2.48-13.49,4.32-19.64,7.59-9.19,4.89-18.23,6.78-28.06,2.53a5.51,5.51,0,0,0-1.8,0C286.11,250.08,311.4,245.65,323.74,223.84Zm-141.26-1.62c5.41,13.11,17.92,21.38,29.13,21.13,8.72-.19,16.9-4.84,19.95-11.79-11.27,5.92-21.1,2.42-31.09-2.8C194.86,225.83,188.5,224.35,182.48,222.22Zm5.34-18.47c4,.63,7.33.87,10.52,1.71,9.13,2.42,18.2,5.08,27.29,7.63,3.29.92,7.09,1,7.9-2.66.45-2.05-1.7-5.65-3.72-7.09C220.24,196.49,198.44,196.75,187.82,203.75Zm129.47.1c-13.44-6.77-26.79-7.59-40.2-1.8-3.29,1.42-6.55,3.77-5,8,1.64,4.39,5.68,3.31,9,2.41,7.21-1.92,14.29-4.33,21.52-6.13C307.45,205.12,312.41,204.64,317.29,203.85Z"/><path class="cls-8" d="M253.78,463c-24-18.83-48.12-47.62-58.21-70.05,2.88-2.46,6.14-5.31,9.45-8.08,6.5-5.44,9-12.56,8.92-20.82-.06-8.5,0-17,0-26.57,12.3,8.3,24.68,14.42,39.15,14.33s26.69-5.94,39.25-15c0,8.18-.29,15.25.1,22.28.3,5.59.29,11.65,2.51,16.57s6.87,8.77,10.71,12.86c5.55,5.9,5.79,5.88,1.83,12.74C293.65,425.27,275.05,445.09,253.78,463Z"/><path class="cls-9" d="M237.85,83.91a3.75,3.75,0,0,1,.08.88c-9.08-.88-18.16-2.57-27.22-2.47-20.58.21-37.81,7.86-49.87,25.27l-.86,1.29a.33.33,0,0,0-.24.45c-.33.48-.65,1-1,1.46l.06-.1-.8,1.19a.41.41,0,0,0-.27.49l-.84,1.48h0l-9,19.48,1.34.65,9.06-15.52.15-.15.84-1.19-.06.07.93-1.23c1.36-1.45,2.71-2.9,4.08-4.35,9.28-9.84,20.28-16.54,33.8-18.83A75.1,75.1,0,0,1,241,97.71l1.84,1.23c-.87.53-1.77,1.56-2.61,1.52-5.1-.23-10.18-1-15.28-1-8.17-.1-16.34.22-24.51.37l-.22-.18-.2.18-4.63,1c-11.34,2.12-20.07,8.55-27.47,17-11.53,13.07-17.47,28.91-21.9,45.43-2.11,7.87-3.35,16-6.2,23.61-2.54,6.71-5.87,13.54-10.46,19-7.19,8.51-18.67,8.58-26.52.6A88.54,88.54,0,0,1,77,150.91c-.23-2.48-.1-5-.31-7.49C75.48,129.25,69.08,123.52,55,124c4-5.16,12.67-5.95,18.93-1.6,7.78,5.42,10.13,13.6,10,22.33a73.24,73.24,0,0,0,11,40.37,77.8,77.8,0,0,0,10.37,14c7.66,7.88,18.09,6.74,22.53-3.29,4-9,6-18.93,8-28.62,2.3-10.72,3-21.81,5.62-32.44C149.08,103.89,167,82.57,199,74.9c2-.16,4-.35,5.95-.48C217,73.64,228.46,75.24,237.85,83.91Z"/><path class="cls-10" d="M272.85,84.32l-5.44.86c5.9-6.91,12.9-9.38,20.53-10.3,27.65-3.33,54.6,11.78,68.11,37.71,8.1,15.55,10.2,32.55,12.92,49.46,1.37,8.53,3.1,17,5,25.42a30.35,30.35,0,0,0,3.91,9.1c5.69,9,14.86,10.47,22.19,2.77,13.26-13.93,20.91-30.55,21.75-50.08.24-5.6.56-11.45,2.36-16.66,4.19-12.12,17-16.69,26.39-10.11a9.49,9.49,0,0,1,1.2,1.42c-1.75,0-3,0-4.27,0-9.43.1-16.16,5.57-17.64,15-1.26,8-1.12,16.35-3,24.21-3.76,15.75-10.88,30-22.31,41.75-9.89,10.18-22.09,9.45-30.84-1.82-6.29-8.1-8.76-17.82-10.82-27.63-3.57-17-8.24-33.56-17.72-48.41-12-18.87-28.75-29.13-51.55-28.2-8.15.33-16.29,1-24.43,1.39a11.7,11.7,0,0,1-6.07-1l11-4.87,4.06-1.12.07,0,5.79-1,2.87-.3c2,0,4,.06,6,0C309.52,91.1,324.19,96,336.8,107c.74.6,1.48,1.2,2.21,1.81l.07.06,1.51,1.5.16-.21-.2.17,1,1,.17-.24-.21.21,1,1,.14-.27-.19.25,1.47,1.53,0,.06.9,1.08,0,0,1,1.18-.1-.11.95,1.24-.12-.1,1.37,1.77h0l.91,1.35c.36.55.72,1.1,1.09,1.64l6.4,11.49,1.12-.54-5.1-12.57c-1.18-2.47-2.37-4.93-3.55-7.39-.25-.38-.51-.75-.76-1.12l0,.07-1-1.43a.41.41,0,0,0-.26-.52l-.79-1.17.07.1-1-1.46a.37.37,0,0,0-.26-.47l-.85-1.11.05.06-1-1.25C334.14,93,322.27,86.36,308,83.91l-2,0-10-1.31-18.19.83-1.88.37-1,.1Z"/><path class="cls-11" d="M426.83,272.5c-6.58,2.75-12.9,3.31-18.88-.23a52.19,52.19,0,0,1-11-8.43c-9.84-10.23-21.36-9.5-33.26-5.45-11.69,4-18.11,12.83-19.59,24.8-1.19,9.69-1.73,19.35-3.93,29-4.73,20.79,7,41.36,27.43,50.64,4.53,2.06,9.3,3.68,13.64,6.07,7.5,4.15,11.11,9.39,12.25,16.84a16.81,16.81,0,0,1-2.53-1.67c-6.42-6.38-14.34-10-22.73-13-23.3-8.4-37.14-28-35-52.67,1.16-13.27,2.78-26.71,5.19-39.82,5.48-29.87,47.46-38.43,63.64-19.71a41.46,41.46,0,0,0,11.34,8.83C417.38,269.93,422.06,270.87,426.83,272.5Z"/><path class="cls-11" d="M79.56,271.79c12-.86,20-8.08,27.84-15.72,14.33-13.94,54.68-8.28,60.18,22.93,2.43,13.74,4.36,27.78,5.53,41.72,1.81,21.47-11.72,41.62-32,49.34-10,3.82-20,7.31-27.81,15.3A15.07,15.07,0,0,1,120,372.89a84.9,84.9,0,0,1,16.59-8.84c19.9-8,31.93-26.6,30.48-47.95a6.39,6.39,0,0,0-.17-2c-4.32-10.21-3.37-21.2-5-31.81-1.81-12.09-8.46-20.79-20.63-24.44s-23.52-3.8-33,6.65c-6.78,7.43-14.78,12.58-25.62,9.36a10.12,10.12,0,0,1-1.82-.79C80.5,272.94,80.32,272.62,79.56,271.79Z"/><path class="cls-12" d="M271.25,49l1.69-1.19,1.18-.84-.09.08L276,45.89h0a41.91,41.91,0,0,1,23.86-3.64l-.11-.07,3.2.86-.09,0L307,44.87a.29.29,0,0,0,.44.2l1.53.86,0,0,2,1.12-.07-.05,2,1.23a41.17,41.17,0,0,1-6.28,0c-20.49-2.86-34.37,4-43.93,22.39-3.11,6-5.16,12.54-7.64,18.86-.78,2-1.36,4-2.26,6.7-.81-2.28-1.34-3.79-1.87-5.31l-1.64-5.1a1,1,0,0,0-.3-.91l-.75-2.2,0,0c-3.86-12.42-9.41-23.65-21.25-30.5l-10.8-2.41c-5-3.66-10.46-1.9-15.81-1.09h-5.76l-.37-.82L203,43.1,219,42l.18.18.2-.15c13.37,3.67,22.53,12.48,29.49,24.2a54.53,54.53,0,0,0-1.55-9.41c-1.76-6.7-4.29-12.94-11.08-16.24l0,0L235,40a.55.55,0,0,0-.65-.25L232,38.88l-1.31-.25L222,37.91c.2-.67.28-1.84.62-1.92,12.93-3.09,24.45-1,28.59,14.34.26,1,.67,1.86,1.24,3.4,1.37-3.36,2.36-6.37,3.78-9.16,5-9.89,20.13-13.52,27.73-6.77a1,1,0,0,0-1,0l-3,.07c-5.36-.31-10.13,1.09-14,5h0l-1.05,1,0,0-3.11,4,.05-.07-.75,1.17a.57.57,0,0,0-.28.65L255.19,67l1.35.41,7.06-10.6a.82.82,0,0,0,.43-.77l1-1.17,0,0,1-1.07h0l1-1,1-1,1-1h0c.36-.33.73-.65,1.1-1L270,50Z"/><path class="cls-13" d="M179,441.51c6.67-9.25,16.36-9.5,26.45-9.72,5.69-.13,8.78,2.32,11.77,7.15-6.08,0-11.66,0-17.24,0-9,0-15.84,3.32-18.92,13.34-1.67-1-3.68-1.5-4.35-2.73-4.3-7.86-8.63-15.58-7.77-25.27.73-8.13-4.52-15-12-17.69a12.44,12.44,0,0,0-14.67,4.28c-3.21,4.32-3.22,11.15.44,15.3,1.26,1.44,3.49,2.13,5.4,2.82.43.16,1.73-1,1.95-1.75s-.49-1.65-1-2.31c-1-1.22-2.13-2.29-3.21-3.42,1.1-.87,2.32-2.57,3.27-2.43,1.94.28,5,1.24,5.32,2.48.67,2.82,1,6.72-.5,8.78s-6.12,4-8,3.07c-4.41-2.14-8.92-2.57-13.51-3.48-5.29-1.06-8.94-6.86-8.28-12.06a10.46,10.46,0,0,1,10.39-9,7.87,7.87,0,0,0,6.72-3c4.34-5,12.59-6.14,19.38-2.68,8.87,4.53,13.25,12.11,14.2,22,.54,5.49,1.63,10.93,2.46,16.4Zm-42.67-29.14c-6.66.46-9.16,2.57-8.75,7.43.47,5.66,4.37,8.37,10.49,7.67C137.5,422.57,136.94,417.68,136.33,412.37Z"/><path class="cls-14" d="M397.1,286.5c-4.16-7.22-10.31-10-18.89-8.58-7.31,1.23-14.45,7.93-15.24,15.29A180.83,180.83,0,0,0,361.58,319c.45,12.06,7.12,21.09,16.14,28.66,2.82,2.37,5.11,5.38,7.64,8.1-.38.57-.77,1.13-1.16,1.7-3.3-1.45-6.79-2.58-9.87-4.41a40.36,40.36,0,0,1-18.71-42.36,46.71,46.71,0,0,0,.67-9.89c-.35-16.64,12-29,28-28.06,5.51.33,10.45,2.51,13.25,6.9,3.29,5.14,8,6.85,13.21,8.34l1.23.9,1,1,.91,1.16-.08-.12-.21,5.79.15-.19L412,297a.53.53,0,0,0-.62-.22l-3-3.18-.24.21.22-.23-5.34-2.64-2.8,2-1-1.52a.32.32,0,0,0-.13-.49C398.37,289.43,397.73,288,397.1,286.5Z"/><path class="cls-15" d="M199.73,417.25c-9.25.27-9.22.26-12-6.94-4.15-10.79-10.46-19.67-21.72-24-9.62-3.71-18.42-2.53-26.71,3.94a163.44,163.44,0,0,1-16.52,10.94c-6.94,4.17-11.47,9.58-10.75,18.51-4.63-6.18-4.15-14.38,2.18-19.33,9.21-7.2,18.72-14.26,28.9-19.93,11.91-6.64,26.59-3.3,37.67,7C189.5,395.58,193.57,406.6,199.73,417.25Z"/><path class="cls-11" d="M394.82,419.42c.12-11.33-6.48-16.4-15.18-20.1a31.46,31.46,0,0,1-9.41-6.44C354,377,333,385.38,324,400.44a65.36,65.36,0,0,0-4.57,9.41c-3.06,7.78-3,7.81-12.26,7.33,7-12.82,12-26.55,25.21-34.53,14.06-8.46,29.29-6.5,41.12,4.84,3.86,3.7,8.78,6.42,13.52,9C396.1,401.48,399.6,410.27,394.82,419.42Z"/><path class="cls-16" d="M157.75,112.37a.41.41,0,0,1,.27-.49l.8-1.19-.06.1c.33-.49.65-1,1-1.46a.33.33,0,0,1,.24-.45l.86-1.29c12.06-17.41,29.29-25.06,49.87-25.27,9.06-.1,18.14,1.59,27.22,2.47l3,12.92A75.1,75.1,0,0,0,198,92.77c-13.52,2.29-24.52,9-33.8,18.83-1.37,1.45-2.72,2.9-4.08,4.35l-.93,1.23.06-.07-.84,1.19-.15.15c-.46-1.54-.91-3.08-1.37-4.61h0Z"/><path class="cls-14" d="M366.82,421.5c.3-8.16-4.23-14.66-10.85-15.59-7.2-1-16,5.21-18,12.95a18.43,18.43,0,0,0-.61,6.91c1.24,9.12-3.28,16.41-7.23,23.89-.48.93-1.65,1.5-3.27,2.9-7.13-19.28-23.48-12.17-36.94-13.62,4.63-7.26,5.29-7.43,19-7,8,.24,14.47,3.3,19.35,9.77l1.46-.07c.71-5.77,1.75-11.52,2-17.3.58-11.61,9.37-21.6,20.58-22.8,6.38-.68,11.41,1.46,14.66,7.2l2,4.3-.44,11.86Z"/><path class="cls-17" d="M110.7,224.21c3.32,4.82,2.25,9.94-1,13.6-4.08,4.64-9.25,8.44-14.35,12-4.45,3.14-9.64,5.23-14.18,8.26a47.62,47.62,0,0,0-9.41,8.1c-8.06,9.16-7.23,16.2,2.43,23.51,2.92,2.21,6.3,3.89,8.9,6.4,4.74,4.55,9.78,9.06,13.38,14.47,4.66,7,9.14,12.94,19.45,9.66-3.82,4-8.89,5.2-12.93,2.51a31.38,31.38,0,0,1-8.9-9,53.8,53.8,0,0,0-17-17.2A68.53,68.53,0,0,1,68.26,290c-7.57-6.67-9.21-14.74-2.93-22.5,5.11-6.32,11.85-11.48,18.4-16.45,5.39-4.1,11.67-7,17.36-10.73S110.71,231.64,110.7,224.21Z"/><path class="cls-18" d="M421.14,296.94c4.91-3.67,10.21-6.93,14.61-11.12,5-4.8,5.62-9.71,1.28-15.2a76.47,76.47,0,0,0-14.7-13.87c-5.59-4.11-12.1-6.94-18-10.63-5-3.12-9.55-7-10.65-13.21-.5-2.82.17-5.86,1.15-8.92-.06,9.36,5.94,14.13,12.73,18.34,7.63,4.73,15.65,8.93,22.81,14.29a48,48,0,0,1,11.48,12.88c4.35,6.94,3.15,13.1-2.52,19.08a30.42,30.42,0,0,1-6.09,5.13c-9.25,5.64-16.93,12.62-22.56,22.11-4.84,8.16-8.9,9.19-18.59,7l-2.07-1,0,0c.77-.31,1.65-1,2.28-.85,6.47,1.78,10.95-.89,14.32-6.16,1.86-2.92,3.63-5.9,5.45-8.85h0l5.11-5.88-.07,0,1.67-1.34.15-.1,1-.82.05,0Z"/><path class="cls-16" d="M226.94,52.22c11.84,6.85,17.39,18.08,21.25,30.5l-10.34,1.19c-9.39-8.67-20.83-10.27-32.94-9.49-2,.13-4,.32-5.95.48l5-7.38-5.54-1a68.07,68.07,0,0,1,39,4.42c-4.59-6.72-11-9.3-17.49-11.82Z"/><path class="cls-19" d="M336.8,107C324.19,96,309.52,91.1,292.89,91.79c-2,.09-4,0-6,0l-2.87.3-5.79,1-1.14-1.66-.6.56,1.67,1.15-4.06,1.12-1.29-10L275,84l1-.1,1.88-.37c1.11,1.41,2,3.35,3.4,4.11a35.68,35.68,0,0,0,8.27,2.8,19.34,19.34,0,0,0,4.45.27c.83-3.23,1.45-5.62,2.07-8L306,84l2,0c14.32,2.45,26.19,9.07,35.12,20.67l1,1.25-.05-.06.85,1.11a.37.37,0,0,1,.26.47l1,1.46-.07-.1.79,1.17a.41.41,0,0,1,.26.52l1,1.43,0-.07c.25.37.51.74.76,1.12,1.18,2.46,2.37,4.92,3.55,7.39l-2.42,1.62c-.37-.54-.73-1.09-1.09-1.64l-.91-1.35h0l-1.37-1.77.12.1-.95-1.24.1.11-1-1.18,0,0-.9-1.08,0-.06-1.47-1.53.19-.25-.14.27-1-1,.21-.21-.17.24-1-1,.2-.17-.16.21-1.51-1.5-.07-.06C338.28,108.15,337.54,107.55,336.8,107Z"/><path class="cls-12" d="M145.9,285.9c.22.25.55.47.63.76,4.36,16.21,8.46,32.53,1.3,48.94-4.46,10.21-12.49,17-22.87,21a13.56,13.56,0,0,1-2.73.48l-1-1.16c2.42-2.71,4.55-5.75,7.3-8.06,7.85-6.59,14.8-14.18,15.63-24.57.93-11.75,1-23.74-2.46-35.32Z"/><path class="cls-12" d="M269.22,70.37c6.55-9.41,16.3-12,26.95-12.47a54.8,54.8,0,0,1,47.46,24c-22.88-15.2-46.92-22.2-73.54-10.92Z"/><path class="cls-10" d="M317.72,453.94c-18.87,2.78-35.5,14.42-56.33,13.73,11.05-11,23.45-16.94,37.84-18.74,3.46-.43,7-1,10.43-.5,2.93.43,5.66,2.27,8.47,3.49C318,452.6,317.85,453.27,317.72,453.94Z"/><path class="cls-12" d="M219.88,59.15c6.47,2.52,12.9,5.1,17.49,11.82a68.07,68.07,0,0,0-39-4.42c-13.82,1.54-25.49,8.35-37,15.63C168.05,72,177.36,65.6,188,60.82L193.57,59l1.4-.25,3.65-.71.26.09L215,58.08l.3,0,2.62.67Z"/><path class="cls-20" d="M245.43,466.71c-20,1.45-36.54-10.37-55.67-12.58,1.33-4.81,4.63-5.55,8.21-5.72,14.68-.69,27.85,3.65,39.7,12.16C240.35,462.5,242.85,464.66,245.43,466.71Z"/><path class="cls-18" d="M145.9,285.9,141.72,288c-4.85-7-11.2-11.35-20.08-10.09a19.78,19.78,0,0,0-8.19,3.12c-6.44,4.44-10.09,18.68-7,25.84,3.42,7.93,12.35,10.46,21.53,6.1.11,1.12.23,2.23.35,3.35l0,0-2.15,1,.09-.09-3.37.94-.31-.15-5.26,0-.3.1-2-.39c-10.89-3.44-12.91-8-12-28.32l-9.23,6.77c-2.61-1.77-2.69-3.92-.54-6.38.44-.5.92-1.17,1.48-1.31,7.75-1.88,12.12-8.48,18.17-12.71C123.66,268.2,139,273.25,145.9,285.9Z"/><path class="cls-21" d="M400.13,292.9l2.8-2q.57,6.51,1.15,13c-.16.61-.31,1.22-.46,1.83C400,314.48,393.53,319,384,318.87c-.94-.3-1.88-.61-2.82-.9-6.12-1.9-10-6-10.68-12.34-.79-7,3-11.84,8.56-15.52h7.85l-.12-.08,1.21.73a.56.56,0,0,0,.6.27l1.32,1-.09-.09,1.08,1.07-.08-.07.93,1.22-.11-.11c.38.67.75,1.35,1.12,2l-.07-.13c.1,1.16.63,2.51.22,3.44-1.39,3.2-2.41,7.72-4.92,8.94s-6.65-.83-9.88-2c-1.55-.55-2.64-2.37-4.25-3.91.53,5.5,2,10.1,7.39,12.17,5.62,2.17,10.72,1,15.07-3.25l.05-.08,1-1.12-.05.05,1-1.17,0,.05c3.19-3.91,3.46-8.27,2-12.9l.15-.26Zm-19,.15c-.93,1.15-3.41,3-4,5.29-.86,3.3,4.7,8.73,8.13,8.49,4-.28,4.45-3.47,4.66-6.48C390.17,296.09,387.22,293.12,381.09,293.05Z"/><path class="cls-21" d="M366.82,421.5l1.83,3.39-.58,2.82c6.34.24,9.81-1.79,11-6.33s-.9-7.24-5.06-8.69l-2.07-3-.92.73,1.91,2.13-3.81.46-2-4.3c1,.06,2,.18,2.94.17,6.84-.1,12,3.83,12.47,9.51.51,6.18-4.34,11.41-11.08,12.37a42.75,42.75,0,0,0-9.19,2.34c-5.86,2.23-12.18-1.94-11.36-8.11.27-2.09,2-4.88,3.84-5.62s4.47.71,6.77,1.2l-.09,1.7a12.4,12.4,0,0,0-2.61,1.75,28.27,28.27,0,0,0-2.37,3.5c1.91.26,4.51,1.41,5.56.58C364,426.49,365.24,423.77,366.82,421.5Z"/><path class="cls-21" d="M128.33,316.28l-.36-3.35,2.51-2.42.49.41-.44-.47q1-4,2-8l-.76-.36c-1,1.19-1.93,2.44-3,3.56-3.85,4-8.73,5.08-12,2.62-3.83-2.91-4.93-9.14-2.38-13.62s7.92-6.54,12.42-4.34a15.26,15.26,0,0,1,8.92,13C136.13,309,133.8,313.67,128.33,316.28Zm-3.12-23.08c-5.69-.16-9,2.72-9.15,6.51-.2,4.09,2,7.11,5.29,7.14,3.57,0,8.19-4.56,7.54-8.51C128.53,296.16,126.07,294.33,125.21,293.2Z"/><path class="cls-17" d="M55.1,297.07c2.88,1.42,5.63,3.29,8.67,4.15,8.64,2.45,8.69,2.29,9.91,11.18,12.6,2.76,15,5.54,11.81,12.68-1.54-2.25-2.76-5.72-5.18-7.09-2.65-1.5-6.4-1.07-9.85-1.51-.06-.07-.47-.33-.45-.54.84-7.5-2.61-11-10-12.32-2.27-.39-4-3.86-6-5.92Z"/><path class="cls-21" d="M421.56,325.92c-4.75-7.21-.73-12.09,11.05-13.39,1.22-8.76,1.25-8.63,10.34-11.16,2.76-.77,5.27-2.45,7.91-3.72.21,4.6-3.44,6.33-7.16,7-5.26.93-7.7,3.38-7,8.74.45,3.47-1.72,3.6-4.35,3.63C424.06,317.09,423.11,318,421.56,325.92Z"/><path class="cls-19" d="M236.22,40.6c6.79,3.3,9.32,9.54,11.08,16.24a54.53,54.53,0,0,1,1.55,9.41c-7-11.72-16.12-20.53-29.49-24.2,3,.53,6.25.61,9.06,1.69C232.34,45.25,234.82,44.62,236.22,40.6Z"/><path class="cls-22" d="M384,318.87c9.56.14,16-4.39,19.65-13.13a10.6,10.6,0,0,1,.78,2.09,20.91,20.91,0,0,1-.15,3.2l7.83-5c-1.82,2.95-3.59,5.93-5.45,8.85-3.37,5.27-7.85,7.94-14.32,6.16-.63-.17-1.51.54-2.28.85Z"/><path class="cls-22" d="M396.3,311.37c-4.35,4.23-9.45,5.42-15.07,3.25-5.35-2.07-6.86-6.67-7.39-12.17,1.61,1.54,2.7,3.36,4.25,3.91,3.23,1.16,7.44,3.16,9.88,2s3.53-5.74,4.92-8.94c.41-.93-.12-2.28-.22-3.44L394,310.88h-11.4c.05.66.1,1.33.14,2,4.06,2,7.76.84,11.26-2Z"/><path class="cls-17" d="M327.77,318.25l-12.34-5.68,4-6.64L328.72,317Z"/><path class="cls-21" d="M186,305.74l4.19,6.9-11.48,5.81-1.27-1.11Z"/><path class="cls-16" d="M200.4,99.78c8.17-.15,16.34-.47,24.51-.37,5.1.06,10.18.82,15.28,1,.84,0,1.74-1,2.61-1.52,2.12,3.11-.57,2.92-2.19,2.86-5.46-.19-10.91-.66-16.37-.93C216.3,100.46,208.35,100.14,200.4,99.78Z"/><path class="cls-22" d="M263.6,56.84l-7.06,10.6L255.19,67l5.64-17.5C261.93,51.9,258.78,55.88,263.6,56.84Z"/><path class="cls-22" d="M265.94,42.87c3.89-3.87,8.66-5.27,14-5C275.8,41,271.58,44,265.94,42.87Z"/><path class="cls-22" d="M299.82,42.25A41.91,41.91,0,0,0,276,45.89c2.75-1.42,5.4-3.77,8.25-4.06C289.35,41.32,294.61,42,299.82,42.25Z"/><path class="cls-22" d="M404.08,303.91q-.58-6.51-1.15-13l5.34,2.64c-2.65.39-3.41,1.63-2.94,4.44C405.64,299.83,404.54,301.92,404.08,303.91Z"/><path class="cls-19" d="M219,42,203,43.1C208.13,39.41,213.54,40.42,219,42Z"/><path class="cls-16" d="M200.33,48.72c5.35-.81,10.76-2.57,15.81,1.09Z"/><path class="cls-22" d="M400.19,296.2c1.47,4.63,1.2,9-2,12.9Q399.19,302.65,400.19,296.2Z"/><path class="cls-23" d="M215,58.08l-16.14.08Z"/><path class="cls-22" d="M417.18,300.1,412.07,306C412.23,302.68,412.74,299.68,417.18,300.1Z"/><path class="cls-22" d="M386.88,290.1H379C381.65,286.93,384.26,287.89,386.88,290.1Z"/><path class="cls-16" d="M249.2,85.78l1.64,5.1C248.48,89.76,247.14,88.32,249.2,85.78Z"/><path class="cls-19" d="M222,37.91l8.68.72Z"/><path class="cls-22" d="M261.81,47.78l3.11-4Z"/><path class="cls-22" d="M408.29,293.55l3,3.18Z"/><path class="cls-16" d="M193.57,59,188,60.82Z"/><path class="cls-22" d="M307,44.87,302.82,43Z"/><path class="cls-22" d="M413.58,296.71l.21-5.79Z"/><path class="cls-22" d="M397.1,286.5c.63,1.47,1.27,2.93,1.9,4.39C398.37,289.43,397.73,288,397.1,286.5Z"/><path class="cls-16" d="M195.35,100.73l4.63-1Z"/><path class="cls-22" d="M400.13,292.9l.21,3c-.4-1.52-.81-3-1.21-4.55Z"/><path class="cls-21" d="M117.31,318l5.26,0Z"/><path class="cls-16" d="M198.62,58.07l-3.65.71Z"/><path class="cls-21" d="M122.88,318.14l3.37-.94Z"/><path class="cls-22" d="M302.91,43l-3.2-.86Z"/><path class="cls-22" d="M418.78,298.81l-1.67,1.34Z"/><path class="cls-22" d="M390,321.82l2.07,1Z"/><path class="cls-19" d="M232,38.88l2.35.86Z"/><path class="cls-21" d="M115,317.73l2,.39Z"/><path class="cls-16" d="M248.14,82.67c.26.74.51,1.47.76,2.2C248.65,84.14,248.4,83.41,248.14,82.67Z"/><path class="cls-22" d="M276,45.89,274,47.05Z"/><path class="cls-22" d="M310.9,47l-2-1.12Z"/><path class="cls-16" d="M217.94,58.73l-2.62-.67Z"/><path class="cls-22" d="M312.82,48.21l-2-1.23Z"/><path class="cls-21" d="M126.16,317.29l2.15-1Z"/><path class="cls-22" d="M392.74,296.1c-.37-.68-.74-1.36-1.12-2C392,294.74,392.37,295.42,392.74,296.1Z"/><path class="cls-22" d="M412,297l1.77-.43Z"/><path class="cls-22" d="M283,37.84a1,1,0,0,1,1,0Z"/><path class="cls-22" d="M264.9,43.85l1.05-1Z"/><path class="cls-22" d="M308.94,45.93l-1.53-.86Z"/><path class="cls-22" d="M390.88,293,389.8,292Z"/><path class="cls-22" d="M389.89,292.05l-1.32-1Z"/><path class="cls-22" d="M397.31,310.17l-1,1.12Z"/><path class="cls-22" d="M398.23,309.05l-1,1.17Z"/><path class="cls-22" d="M412,288.86l-1.23-.9Z"/><path class="cls-22" d="M419.92,297.89l-1,.82Z"/><path class="cls-22" d="M388,290.75l-1.21-.73Z"/><path class="cls-22" d="M421.14,296.94l-1.17.91Z"/><path class="cls-12" d="M270.09,71l-1.14.55.27-1.2Z"/><path class="cls-22" d="M413.87,291l-.91-1.16Z"/><path class="cls-19" d="M235,40l1.28.65Z"/><path class="cls-22" d="M391.73,294.18,390.8,293Z"/><path class="cls-22" d="M265,54.9l-1,1.17Z"/><path class="cls-22" d="M266,53.87l-1,1.07Z"/><path class="cls-22" d="M266.92,52.87l-1,1Z"/><path class="cls-22" d="M269,50.89l-1,1Z"/><path class="cls-22" d="M270.07,49.93c-.37.32-.74.64-1.1,1C269.33,50.57,269.7,50.25,270.07,49.93Z"/><path class="cls-22" d="M271.25,49,270,50Z"/><path class="cls-22" d="M261.11,48.88l.75-1.17Z"/><path class="cls-22" d="M274.12,47l-1.18.84Z"/><path class="cls-23" d="M323.74,223.84c-12.34,21.81-37.63,26.24-50.06,8.38a5.51,5.51,0,0,1,1.8,0c9.83,4.25,18.87,2.36,28.06-2.53,6.15-3.27,13.07-5.11,19.64-7.59Z"/><path class="cls-16" d="M182.48,222.22c6,2.13,12.38,3.61,18,6.54,10,5.22,19.82,8.72,31.09,2.8-3.05,6.95-11.23,11.6-19.95,11.79C200.4,243.6,187.89,235.33,182.48,222.22Z"/><path class="cls-16" d="M187.82,203.75c10.62-7,32.42-7.26,42-.41,2,1.44,4.17,5,3.72,7.09-.81,3.68-4.61,3.58-7.9,2.66-9.09-2.55-18.16-5.21-27.29-7.63C195.15,204.62,191.81,204.38,187.82,203.75Z"/><path class="cls-23" d="M317.29,203.85c-4.88.79-9.84,1.27-14.62,2.46-7.23,1.8-14.31,4.21-21.52,6.13-3.35.9-7.39,2-9-2.41-1.58-4.21,1.68-6.56,5-8C290.5,196.26,303.85,197.08,317.29,203.85Z"/><path class="cls-24" d="M270.69,304.87c-5.43,11.58-10.26,14.89-20.23,14-8.6-.81-12-7.37-15.5-13.88a11.5,11.5,0,0,1,3.25-.91C249,304.26,259.86,304.58,270.69,304.87Z"/><path class="cls-25" d="M233,300.07c2.41-2,4.75-4.11,7.26-6,4.12-3.1,8.37-3.82,12.55-.1,8.35-3.94,11.06-3.23,18.18,4.72l1.14,1.15.14-.25c-2.07,1.08-4.09,3-6.2,3.09-7.77.37-15.59.41-23.36,0C239.44,302.54,236.24,301,233,300.07Z"/><path class="cls-26" d="M233,300.07c3.23.92,6.43,2.47,9.71,2.64,7.77.39,15.59.35,23.36,0,2.11-.1,4.13-2,6.2-3.09l3.51,1-5.1,4.29c-10.83-.29-21.65-.61-32.48-.82A11.5,11.5,0,0,0,235,305l-4.44-4.07Z"/><path class="cls-22" d="M256.3,284.74c-6.22.84-12.05.05-17.25-3.83,3.72-5.65,9.29-4.29,13.71,3.14l3.19-4.18C256.07,281.49,256.18,283.11,256.3,284.74Z"/><path class="cls-19" d="M256.3,284.74c-.12-1.63-.23-3.25-.35-4.87h0l1-.92c2.65-.35,5.4-1.29,7.92-.87,2.23.37,3.37,2.32.32,3.89l-3.09,1.33.13-.11-5.47,1.49-.23.16Z"/><path class="cls-22" d="M256.79,284.68l5.47-1.49Z"/><path class="cls-22" d="M262.13,283.3l3.09-1.33Z"/><path class="cls-22" d="M257,279l-1,.92Z"/><path class="cls-26" d="M272.14,299.85,271,298.7Z"/><path class="cls-27" d="M156.92,113.84c.46,1.53.91,3.07,1.37,4.61L149.23,134l-1.34-.65Z"/><path class="cls-27" d="M159.74,109.33c-.33.48-.65,1-1,1.46C159.09,110.3,159.41,109.81,159.74,109.33Z"/><path class="cls-27" d="M157.75,112.37l-.84,1.48Z"/><path class="cls-27" d="M158.82,110.69l-.8,1.19Z"/><path class="cls-27" d="M158.44,118.3l.84-1.19Z"/><path class="cls-27" d="M160.84,107.59l-.86,1.29Z"/><path class="cls-27" d="M159.22,117.18l.93-1.23Z"/><path class="cls-6" d="M296,82.65c-.62,2.39-1.24,4.78-2.07,8a19.34,19.34,0,0,1-4.45-.27,35.68,35.68,0,0,1-8.27-2.8c-1.45-.76-2.29-2.7-3.4-4.11Z"/><path class="cls-27" d="M349.92,121.89l2.42-1.62,5.1,12.57-1.12.54Z"/><path class="cls-6" d="M284.06,92.12l2.87-.3Z"/><path class="cls-27" d="M336.8,107c.74.6,1.48,1.2,2.21,1.81C338.28,108.15,337.54,107.55,336.8,107Z"/><path class="cls-27" d="M346.56,117.14l1.37,1.77Z"/><path class="cls-27" d="M339.08,108.82l1.51,1.5Z"/><path class="cls-27" d="M342.49,112.3l1.47,1.53Z"/><path class="cls-6" d="M308,83.91l-2,0Z"/><path class="cls-27" d="M344.86,106.88l-.85-1.11Z"/><path class="cls-27" d="M344.06,105.83l-1-1.25Z"/><path class="cls-27" d="M348.79,112.88c-.25-.38-.51-.75-.76-1.12C348.28,112.13,348.54,112.5,348.79,112.88Z"/><path class="cls-27" d="M348.07,111.83l-1-1.43Z"/><path class="cls-27" d="M341.54,111.27l1,1Z"/><path class="cls-27" d="M347.92,118.9l.91,1.35Z"/><path class="cls-27" d="M340.55,110.28l1,1Z"/><path class="cls-27" d="M346.85,109.88l-.79-1.17Z"/><path class="cls-27" d="M346.13,108.81l-1-1.46Z"/><path class="cls-6" d="M276,83.85l-1,.1Z"/><path class="cls-27" d="M345.73,116l.95,1.24Z"/><path class="cls-27" d="M344.87,114.93l1,1.18Z"/><path class="cls-27" d="M344,113.89l.9,1.08Z"/><path class="cls-22" d="M136.33,412.37c.61,5.31,1.17,10.2,1.74,15.1-6.12.7-10-2-10.49-7.67C127.17,414.94,129.67,412.83,136.33,412.37Z"/><path class="cls-22" d="M369.09,413l3.81-.46,1.08.12c4.16,1.45,6.22,4.15,5.06,8.69s-4.63,6.57-11,6.33l.58-2.82Q368.88,419,369.09,413Z"/><path class="cls-6" d="M278.2,93.17,276.53,92l.6-.56,1.14,1.66Z"/><path class="cls-22" d="M381.09,293.05c6.13.07,9.08,3,8.78,7.3-.21,3-.71,6.2-4.66,6.48-3.43.24-9-5.19-8.13-8.49C377.68,296,380.16,294.2,381.09,293.05Z"/><path class="cls-14" d="M374,412.69l-1.08-.12L371,410.44l.92-.73Z"/><path class="cls-28" d="M125.21,293.2c.86,1.13,3.32,3,3.68,5.14.65,4-4,8.55-7.54,8.51-3.26,0-5.49-3.05-5.29-7.14C116.25,295.92,119.52,293,125.21,293.2Z"/><path class="cls-18" d="M130.53,310.45l.44.47-.49-.41Z"/><path class="cls-6" d="M394,310.88c-3.5,2.83-7.2,4-11.26,2,0-.66-.09-1.33-.14-2Z"/></g></g></svg>