<svg xmlns="http://www.w3.org/2000/svg" viewBox="0 0 73.77 68.58"><defs><style>.cls-1{fill:#b1a688;}</style></defs><title>left_decrotive</title><g id="Layer_2" data-name="Layer 2"><g id="Layer_1-2" data-name="Layer 1"><path class="cls-1" d="M11.35,46A4.25,4.25,0,0,0,15,44.68a6.85,6.85,0,0,0,1.68-3.06,9.65,9.65,0,0,0,.08-4A29.78,29.78,0,0,0,14,30.26c-.47-1-.83-1.78-1.06-2.36a4,4,0,0,1-.32-.92,3.85,3.85,0,0,1,.54.81c.33.52.8,1.27,1.38,2.17s1.26,2,1.93,3.18a19.07,19.07,0,0,1,1.73,4.1A11.06,11.06,0,0,1,18.5,42a8.6,8.6,0,0,1-1.87,4.19,7,7,0,0,1-1.55,1.39,5.79,5.79,0,0,1-.84.47,6.23,6.23,0,0,1-.81.3,6.12,6.12,0,0,1-2.31.24,5.55,5.55,0,0,1-2.75-1,4.66,4.66,0,0,1-1.13-1.13,5.23,5.23,0,0,1-.41-.67,4.26,4.26,0,0,1-.26-.73,3,3,0,0,1,.31-2.41c.38-.53.8-.6.9-.47s0,.44,0,.83a2.81,2.81,0,0,0,.46,1.39,1.7,1.7,0,0,0,.26.34c.11.1.2.23.32.32a3.91,3.91,0,0,0,.77.5,5,5,0,0,0,1.71.44"/><path class="cls-1" d="M23.62,64.06a7.37,7.37,0,0,1-.49,1.07A7.69,7.69,0,0,1,22,66.54a6.59,6.59,0,0,1-1.86,1.34,6.84,6.84,0,0,1-2.6.68A8.23,8.23,0,0,1,12,66.71a9.54,9.54,0,0,1-3.16-5.29,11.3,11.3,0,0,1-.27-3A13.21,13.21,0,0,1,9,55.63a17.76,17.76,0,0,1,1.87-4.46A32.61,32.61,0,0,1,12.7,48.4a6,6,0,0,1,.79-1,9.86,9.86,0,0,1-.57,1.11c-.39.69-.95,1.68-1.52,2.92A17.83,17.83,0,0,0,10,55.85,11.31,11.31,0,0,0,10.27,61a7.9,7.9,0,0,0,2.88,4.15,6.3,6.3,0,0,0,4.23,1.12,4.68,4.68,0,0,0,1.69-.56,4.4,4.4,0,0,0,1.15-.94,4.57,4.57,0,0,0,.65-.94,5,5,0,0,0,.29-.67,4.27,4.27,0,0,0,.23-1c0-.1,0-.19,0-.29s0-.19,0-.28a2.72,2.72,0,0,0-.09-.56,3.5,3.5,0,0,0-.48-1.11A4.12,4.12,0,0,0,20,59a4.72,4.72,0,0,0-1.84-1c-.54-.16-.94-.21-1-.39s0-.19.21-.31a2.11,2.11,0,0,1,.79-.32,4.4,4.4,0,0,1,2.85.49,5.77,5.77,0,0,1,1.48,1.13,5.44,5.44,0,0,1,1.07,1.71,5.55,5.55,0,0,1,0,3.79"/><path class="cls-1" d="M11.05,36.18a4.18,4.18,0,0,0,.53-.28,3.34,3.34,0,0,0,.81-.71,3.77,3.77,0,0,0,.7-1.31,5.85,5.85,0,0,0,.26-1.76,10.22,10.22,0,0,0-.69-3.41,8.59,8.59,0,0,1-.53-1.55,5.1,5.1,0,0,1,1.08,1.27A9.87,9.87,0,0,1,14.83,32a7.05,7.05,0,0,1,.13,2.3,5.56,5.56,0,0,1-.66,2.16,5.09,5.09,0,0,1-2.1,2.11,3.57,3.57,0,0,1-1.41.35,4.14,4.14,0,0,1-.79-.06,2.81,2.81,0,0,1-.74-.26,1.8,1.8,0,0,1-.92-.91c-.12-.32,0-.56.11-.65a1.42,1.42,0,0,1,.57-.1,3.34,3.34,0,0,0,.66-.13,5.83,5.83,0,0,0,.73-.26c.23-.1.45-.22.64-.32"/><path class="cls-1" d="M18.2,26.74c-.28.14-.68.33-1.22.56A11.6,11.6,0,0,1,14.9,28a8.47,8.47,0,0,1-3,.1,11.19,11.19,0,0,1-1.62-.39A10.89,10.89,0,0,1,8.71,27a10.33,10.33,0,0,1-2.88-2.4,12.11,12.11,0,0,1-2-3.41A16.38,16.38,0,0,1,3,13.21,15.59,15.59,0,0,1,5.79,6.1a13.36,13.36,0,0,1,5-4.14,13.1,13.1,0,0,1,2.39-.88,11.75,11.75,0,0,1,1.93-.3,7.26,7.26,0,0,1,1.23,0,2.19,2.19,0,0,1,.44,0c0,.05-.61,0-1.64.21a14.46,14.46,0,0,0-1.84.46,13.76,13.76,0,0,0-2.23,1,12.88,12.88,0,0,0-4.4,4.19,14.47,14.47,0,0,0-2.17,6.68,14.6,14.6,0,0,0,1.13,7,10,10,0,0,0,1.8,2.77A8.16,8.16,0,0,0,9.77,25a9.15,9.15,0,0,0,1.26.5,8.13,8.13,0,0,0,1.22.23,6,6,0,0,0,2.08-.15,16.66,16.66,0,0,0,2.73-1.12,15.8,15.8,0,0,1,4.07-1.52,6.74,6.74,0,0,1,2.57,0A5.06,5.06,0,0,1,26,24a3.42,3.42,0,0,1,.79.95,3.75,3.75,0,0,1,.41,1,3.27,3.27,0,0,1-.11,1.79,2,2,0,0,1-.67,1c-.23.16-.39.18-.45.12s.15-.58.13-1.28A2.76,2.76,0,0,0,26,27a2.91,2.91,0,0,0-.22-.6,2.51,2.51,0,0,0-.38-.54,2.38,2.38,0,0,0-.54-.43A3.47,3.47,0,0,0,23.37,25a5.18,5.18,0,0,0-1.73.2,21.89,21.89,0,0,0-3.44,1.51"/><path class="cls-1" d="M17,20.88a4,4,0,0,1,.23,1.86,5.22,5.22,0,0,1-1.13,2.73,4.6,4.6,0,0,1-1.09,1A3.62,3.62,0,0,1,13.9,27a2.37,2.37,0,0,1-.85.05.78.78,0,0,1-.31-.07,5,5,0,0,0,1.07-.27,3.55,3.55,0,0,0,.92-.62,4.13,4.13,0,0,0,.8-1,4.58,4.58,0,0,0,.61-2.35,3.49,3.49,0,0,0-.3-1.33,7.38,7.38,0,0,0-.58-1.16c-.23-.37-.49-.65-.42-.82s.53-.16,1,.14A2.83,2.83,0,0,1,17,20.88"/><path class="cls-1" d="M20.77,17.76a5.8,5.8,0,0,1,.05,2.18,6.32,6.32,0,0,1-.5,1.63,7.22,7.22,0,0,1-1,1.54A9.61,9.61,0,0,1,17,25.21c-.35.22-.66.38-.88.49s-.34.16-.35.14.43-.34,1-.88a9.63,9.63,0,0,0,1.95-2.28,6.44,6.44,0,0,0,.68-1.46,5.34,5.34,0,0,0,.26-1.41,5.84,5.84,0,0,0-.18-1.75,8.61,8.61,0,0,0-.5-1.57c-.2-.5-.45-.9-.33-1s.6,0,1.08.5a3.78,3.78,0,0,1,1,1.81"/><path class="cls-1" d="M24.81,12.08a5.07,5.07,0,0,0-.55.71,6.53,6.53,0,0,0-.67,1.62c-.2.69-.35,1.55-.53,2.49a12.68,12.68,0,0,1-.85,2.94,11.47,11.47,0,0,1-1.58,2.5,13,13,0,0,1-1.74,1.74,5.48,5.48,0,0,1-2,1.19c0-.06.71-.59,1.58-1.63a12.52,12.52,0,0,0,2.35-4.31c.48-1.68.28-3.61.56-5.38A8.27,8.27,0,0,1,22,11.63a5.51,5.51,0,0,1,.83-1.29,4,4,0,0,1,.74-.64,3.63,3.63,0,0,1,1-.48,3.71,3.71,0,0,1,2.11-.06,2.38,2.38,0,0,1,1.37.9c.24.35.23.64.1.75s-.38.09-.67.08a3.44,3.44,0,0,0-1,.1,3.14,3.14,0,0,0-1,.44,2.53,2.53,0,0,0-.39.31c-.11.1-.23.23-.33.34"/><path class="cls-1" d="M26,17.93a14.39,14.39,0,0,1-1.3,1.87A16.81,16.81,0,0,1,22,22.4a16.34,16.34,0,0,1-2.95,1.83c-.42.2-.77.34-1,.44a1.71,1.71,0,0,1-.4.12s.51-.32,1.27-.83a19.67,19.67,0,0,0,2.62-2.12,17.49,17.49,0,0,0,2.27-2.72,17.85,17.85,0,0,0,1.06-1.81c.28-.5.67-1.17,1-1.73s.6-1,.78-1,.21.59.08,1.27a6.92,6.92,0,0,1-.7,2"/><path class="cls-1" d="M28.87,19.36a1.55,1.55,0,0,1,.05.55,2,2,0,0,1-.24.84,2.49,2.49,0,0,1-.64.77,3.5,3.5,0,0,1-.84.51,5.75,5.75,0,0,1-1.57.48,1.33,1.33,0,0,1-.73,0s.27-.09.64-.27a6,6,0,0,0,1.27-.82,2.22,2.22,0,0,0,.83-1.08,1,1,0,0,0,0-.58,1.28,1.28,0,0,0-.36-.69.72.72,0,0,1-.16-.24.26.26,0,0,1,.15-.27.8.8,0,0,1,.56-.09,1.26,1.26,0,0,1,.66.31,1.36,1.36,0,0,1,.4.61"/><path class="cls-1" d="M9.94,17.72A4.53,4.53,0,0,1,9.18,16a5.11,5.11,0,0,1,.27-3,4.94,4.94,0,0,1,1-1.51,6.13,6.13,0,0,1,1.39-1.14,6.74,6.74,0,0,1,3.5-1,5.37,5.37,0,0,1,3.29,1.09,5,5,0,0,1,1.66,2.33,4,4,0,0,1,.21,1.94l-.06.3a1.94,1.94,0,0,1-.07.22.48.48,0,0,1-.08.17s0-.07,0-.19V15c0-.08,0-.18,0-.29a4.17,4.17,0,0,0-.51-1.68A4.48,4.48,0,0,0,18,11.33a4.17,4.17,0,0,0-2.62-.46A5.1,5.1,0,0,0,12.9,12a4.65,4.65,0,0,0-.87.91,2.9,2.9,0,0,0-.44.93,2.87,2.87,0,0,0,0,1.61,2.18,2.18,0,0,0,.4.74,1.81,1.81,0,0,0,.29.33,1.54,1.54,0,0,0,.35.24,1.36,1.36,0,0,0,.85.14,1.47,1.47,0,0,0,.74-.5c.19-.22.3-.45.47-.5s.44.13.54.62a2.12,2.12,0,0,1-.64,1.85,2.92,2.92,0,0,1-2.55.72,3.32,3.32,0,0,1-1.26-.51,3.79,3.79,0,0,1-.87-.81"/><path class="cls-1" d="M22.09,38.26c-.07-.14-.22-.56-.44-1.1s-.53-1.19-.88-1.82c-.68-1.27-1.59-2.37-1.51-2.47a7,7,0,0,1,2.64,1.5,12.49,12.49,0,0,1,1.65,1.57,7.26,7.26,0,0,1,.84,1.1,2.41,2.41,0,0,1,.21,1.33,1.13,1.13,0,0,1-.59,1,1.3,1.3,0,0,1-1.1-.27,2.7,2.7,0,0,1-.82-.84"/><path class="cls-1" d="M26.75,36.08c-.31-.21-1.59-1.35-2.86-2.4a17.75,17.75,0,0,1-2.43-2.15,12.22,12.22,0,0,1,3.17.86,25.44,25.44,0,0,1,3.55,1.52c.66.43,1.43,1.67,1,2.26s-1.81.32-2.44-.09"/><path class="cls-1" d="M28.19,30.89a8.78,8.78,0,0,1-1.41.29,11.34,11.34,0,0,1-2.44.09,7.55,7.55,0,0,1-2.22-.48c-.56-.22-.88-.46-.86-.51s.4-.05.95-.1a9.7,9.7,0,0,0,2-.39,25.45,25.45,0,0,0,3.11-1.35c.65-.23,2-.16,2.29.5s-.67,1.69-1.4,1.95"/><path class="cls-1" d="M17.47,31.48a17,17,0,0,1-2.55-1.85A8.37,8.37,0,0,1,13,27.72a12.2,12.2,0,0,1,2.59.59c1.29.35,2.64.67,2.91.8.55.24,1.29,1.17,1,1.84s-1.49.8-2.07.53"/><path class="cls-1" d="M4.51,55.17a5.29,5.29,0,0,1,.62-1.48A7.45,7.45,0,0,1,6.76,51.8a11.84,11.84,0,0,1,1.78-1.25c.5-.29.84-.45.89-.4s-.15.37-.46.85a20.27,20.27,0,0,0-1.06,1.74,7.12,7.12,0,0,0-.69,1.83,7.35,7.35,0,0,0-.14,1,3.1,3.1,0,0,1-.42.93,1.66,1.66,0,0,1-.78.79c-.33.11-.76-.13-1-.6a2.41,2.41,0,0,1-.32-1.56"/><path class="cls-1" d="M1.12,51.68c.57-.25,5.64-1.35,5.76-1.13s-4.14,3.26-4.73,3.52-1.81.17-2.09-.5.48-1.63,1.06-1.89"/><path class="cls-1" d="M4.42,46.47c.26.17,1.23,1.18,2.3,1.93a9.43,9.43,0,0,0,1.54.92c.44.23.76.34.75.41s-.34.17-.87.2a7.7,7.7,0,0,1-2-.15A11.62,11.62,0,0,1,3,48.62c-.58-.39-1.12-1.53-.68-2.1s1.65-.39,2.15-.05"/><path class="cls-1" d="M16.76,51.83A1.07,1.07,0,0,0,17,50.3c-.35-.59-.88-.92-1.26-.73a1.18,1.18,0,0,0-.26,1.5c.27.63.83,1,1.3.76"/><path class="cls-1" d="M18.87,50.45a.74.74,0,0,0,.2-.72,1.26,1.26,0,0,0-.48-.7,1.81,1.81,0,0,0-.75-.35.6.6,0,0,0-.52.1c-.22.21-.18.81.16,1.34a1.16,1.16,0,0,0,.66.51.76.76,0,0,0,.73-.18"/><path class="cls-1" d="M20.31,48.45a.9.9,0,0,0-.58-1.15c-.52-.25-1.05-.19-1.22.11s.07.81.54,1.14a.87.87,0,0,0,1.26-.1"/><path class="cls-1" d="M21.22,46.28c.11-.38-.23-.79-.72-.91s-1,0-1.06.32a.55.55,0,0,0,.13.49,1.18,1.18,0,0,0,.55.41c.48.2,1,.06,1.1-.31"/><path class="cls-1" d="M21.64,44c0-.35-.33-.64-.79-.65s-.84.2-.86.48.3.57.76.65.86-.14.89-.48"/><path class="cls-1" d="M21.51,41.64c0-.3-.42-.47-.81-.38s-.65.35-.62.59.39.42.78.39.69-.3.65-.6"/><path class="cls-1" d="M20.75,39.42a.53.53,0,0,0-.75-.11c-.3.17-.47.46-.38.65a.6.6,0,0,0,.74.12c.31-.12.51-.43.39-.66"/><path class="cls-1" d="M9.35,28.12a1.18,1.18,0,0,0-.86.09,1.36,1.36,0,0,0-.67.65,1.11,1.11,0,0,0,0,1,1.35,1.35,0,0,0,.31.41,1.17,1.17,0,0,0,.49.27,1.3,1.3,0,0,0,.55.06,1.44,1.44,0,0,0,.48-.17,1.11,1.11,0,0,0,.52-.8,1.39,1.39,0,0,0-.17-.93,1.17,1.17,0,0,0-.64-.54"/><path class="cls-1" d="M6.94,26.87a1.2,1.2,0,0,0-1.56.22,1.09,1.09,0,0,0-.26.83,1.18,1.18,0,0,0,.48.8,1.16,1.16,0,0,0,.9.21,1.08,1.08,0,0,0,.71-.52,1.19,1.19,0,0,0,.14-.85,1,1,0,0,0-.41-.69"/><path class="cls-1" d="M4.88,24.92a1.07,1.07,0,0,0-1.43-.15,1,1,0,1,0,1.32,1.58,1.07,1.07,0,0,0,.11-1.43"/><path class="cls-1" d="M3.22,22.51A.94.94,0,0,0,2,22.15a.92.92,0,1,0,.9,1.61,1,1,0,0,0,.34-1.25"/><path class="cls-1" d="M2,19.84a.85.85,0,0,0-1-.54.83.83,0,1,0,.51,1.57.85.85,0,0,0,.51-1"/><path class="cls-1" d="M1.46,17a.76.76,0,0,0-.71-.71A.7.7,0,0,0,0,17a.71.71,0,0,0,.77.71A.77.77,0,0,0,1.46,17"/><path class="cls-1" d="M1.93,14.28a.64.64,0,0,0-.26-.81.61.61,0,0,0-.86.27.6.6,0,0,0,.32.84.65.65,0,0,0,.8-.3"/><path class="cls-1" d="M9.39,15.38c-.06-.14-.39-.24-.87-.34a6.87,6.87,0,0,0-1.8-.16A2.74,2.74,0,0,0,5,15.45a1.23,1.23,0,0,0-.41,1.34,1.33,1.33,0,0,0,1.18.84,2.93,2.93,0,0,0,1.75-.52A10.25,10.25,0,0,0,8.93,16c.33-.31.53-.51.46-.65"/><path class="cls-1" d="M9.25,13.65c0-.18-.17-.45-.51-.76A5.36,5.36,0,0,0,7.34,12a2.82,2.82,0,0,0-1.61-.26,1,1,0,0,0-.9.77,1.17,1.17,0,0,0,.51,1.13,2.94,2.94,0,0,0,1.59.51,6,6,0,0,0,1.61-.1c.41-.09.68-.21.71-.4"/><path class="cls-1" d="M10.09,11.6c.23-.37-.24-1.28-1.1-2a2.88,2.88,0,0,0-1.31-.69.89.89,0,0,0-.95.3,1,1,0,0,0,.08,1,2.86,2.86,0,0,0,1.11,1,4.25,4.25,0,0,0,1.38.52c.38.06.68,0,.79-.17"/><path class="cls-1" d="M11.67,9.65c.13-.12.12-.39,0-.75a4.85,4.85,0,0,0-.5-1.25,2.22,2.22,0,0,0-1-1,.87.87,0,0,0-.95,0c-.48.43-.19,1.36.55,2.08s1.55,1.05,1.81.82"/><path class="cls-1" d="M13.37,8.78c.32,0,.67-.78.7-1.7s-.36-1.66-.92-1.61a.82.82,0,0,0-.64.58,2.22,2.22,0,0,0,0,1.21,3.83,3.83,0,0,0,.42,1.1c.15.28.3.44.47.42"/><path class="cls-1" d="M15.93,8.82c.3.06.75-.48,1-1.23s.11-1.49-.34-1.6-.91.5-1,1.29.05,1.47.35,1.54"/><path class="cls-1" d="M18.1,9.67c.09.08.26.06.48,0a2.67,2.67,0,0,0,.78-.45,1.58,1.58,0,0,0,.53-.72.58.58,0,0,0-.1-.63.59.59,0,0,0-.63-.06,1.72,1.72,0,0,0-.68.6,2.71,2.71,0,0,0-.4.8c-.07.24-.06.4,0,.49"/><path class="cls-1" d="M57,8.44a3.17,3.17,0,0,1-1,2.67,5,5,0,0,1-2.28,1.25,7.07,7.07,0,0,1-3,.06,21.93,21.93,0,0,1-5.43-2c-.72-.35-1.33-.62-1.75-.79a2.41,2.41,0,0,0-.69-.23,3.48,3.48,0,0,0,.6.4l1.62,1c.67.43,1.46.94,2.36,1.43a13.85,13.85,0,0,0,3,1.29,8.27,8.27,0,0,0,3.54.25,6.36,6.36,0,0,0,3.11-1.38,5.36,5.36,0,0,0,1-1.16,6.21,6.21,0,0,0,.35-.62,5.65,5.65,0,0,0,.22-.61,4.52,4.52,0,0,0,.18-1.71,4.45,4.45,0,0,0-.22-1,4,4,0,0,0-.53-1,3.39,3.39,0,0,0-.84-.85,3.15,3.15,0,0,0-.5-.3,3.93,3.93,0,0,0-.54-.2,2.25,2.25,0,0,0-1.79.24c-.39.28-.45.59-.35.67s.33,0,.62,0a2.08,2.08,0,0,1,1,.34l.25.19a2.83,2.83,0,0,1,.24.25,2.43,2.43,0,0,1,.37.57A3.57,3.57,0,0,1,57,8.44"/><path class="cls-1" d="M70.41,17.56a4.35,4.35,0,0,0,.8-.37,5.22,5.22,0,0,0,1.05-.8,5,5,0,0,0,1.51-3.32,6.2,6.2,0,0,0-1.38-4.16,7.12,7.12,0,0,0-3.94-2.34,8.4,8.4,0,0,0-2.22-.21,10.52,10.52,0,0,0-2.08.31,13.48,13.48,0,0,0-3.32,1.4,23.46,23.46,0,0,0-2.06,1.37,5.45,5.45,0,0,0-.72.59,5.54,5.54,0,0,0,.83-.43c.51-.28,1.25-.7,2.17-1.12a13.14,13.14,0,0,1,3.26-1.05,8.31,8.31,0,0,1,3.86.21,5.85,5.85,0,0,1,3.09,2.14,4.67,4.67,0,0,1,.83,3.14,3.74,3.74,0,0,1-.41,1.26A3.57,3.57,0,0,1,71,15a4.55,4.55,0,0,1-.7.49,4.69,4.69,0,0,1-.5.21,2.78,2.78,0,0,1-.78.17l-.21,0h-.21a2,2,0,0,1-.42-.06,3,3,0,0,1-.82-.36,3.76,3.76,0,0,1-.71-.6,3.55,3.55,0,0,1-.75-1.37c-.12-.41-.15-.71-.29-.74s-.14,0-.23.16a1.44,1.44,0,0,0-.23.59,3.23,3.23,0,0,0,.36,2.11,3.93,3.93,0,0,0,.84,1.1,3.95,3.95,0,0,0,4.08.82"/><path class="cls-1" d="M49.69,8.22a3.39,3.39,0,0,1-.21.39,2.32,2.32,0,0,1-.53.6,2.87,2.87,0,0,1-1,.52,4.23,4.23,0,0,1-1.31.2,7.62,7.62,0,0,1-2.53-.52A6,6,0,0,0,43,9a3.88,3.88,0,0,0,1,.8A7.3,7.3,0,0,0,46.54,11a5.44,5.44,0,0,0,1.71.1,4.28,4.28,0,0,0,1.61-.5,3.77,3.77,0,0,0,1.57-1.56A2.58,2.58,0,0,0,51.69,8a2.94,2.94,0,0,0,0-.59,2.11,2.11,0,0,0-.19-.55,1.34,1.34,0,0,0-.67-.68c-.25-.09-.42,0-.49.08a.93.93,0,0,0-.07.42,3.4,3.4,0,0,1-.1.5,4.37,4.37,0,0,1-.19.54c-.08.17-.17.33-.24.48"/><path class="cls-1" d="M42.67,13.53c.1-.2.25-.5.42-.9a9.79,9.79,0,0,0,.5-1.55,6.38,6.38,0,0,0,.07-2.2,7.86,7.86,0,0,0-.29-1.21,7.41,7.41,0,0,0-.54-1.19,7.68,7.68,0,0,0-1.78-2.15,8.79,8.79,0,0,0-2.54-1.47,12.09,12.09,0,0,0-5.9-.63,11.54,11.54,0,0,0-5.28,2.08A9.86,9.86,0,0,0,24.25,8a9.36,9.36,0,0,0-.65,1.79,8.06,8.06,0,0,0-.23,1.43,5.76,5.76,0,0,0,0,.92,1.64,1.64,0,0,0,0,.32s0-.45.16-1.22a8.41,8.41,0,0,1,.34-1.36,9.87,9.87,0,0,1,.75-1.66A9.36,9.36,0,0,1,27.77,5a10.6,10.6,0,0,1,5-1.62A10.86,10.86,0,0,1,38,4.17,7.57,7.57,0,0,1,40,5.51a5.89,5.89,0,0,1,1.32,1.76,5.14,5.14,0,0,1,.37.93,6.16,6.16,0,0,1,.17.9,4.58,4.58,0,0,1-.11,1.56,11.63,11.63,0,0,1-.83,2,11.82,11.82,0,0,0-1.13,3,4.91,4.91,0,0,0,0,1.91,3.69,3.69,0,0,0,.82,1.71,2.66,2.66,0,0,0,.71.58,2.46,2.46,0,0,0,.77.3,2.32,2.32,0,0,0,1.33-.08,1.51,1.51,0,0,0,.72-.5c.12-.16.13-.29.08-.33s-.42.11-1,.1a2.25,2.25,0,0,1-.41-.06,3,3,0,0,1-.44-.16,1.8,1.8,0,0,1-.4-.28,1.61,1.61,0,0,1-.32-.4,2.57,2.57,0,0,1-.33-1.13,3.8,3.8,0,0,1,.15-1.28,16.15,16.15,0,0,1,1.12-2.56"/><path class="cls-1" d="M38.31,12.67a3,3,0,0,0,1.39.17,4,4,0,0,0,2-.84,3.46,3.46,0,0,0,.73-.81,2.68,2.68,0,0,0,.37-.85,1.87,1.87,0,0,0,0-.64.53.53,0,0,0-.06-.23,3.31,3.31,0,0,1-.2.8,2.48,2.48,0,0,1-.46.68,3.1,3.1,0,0,1-.74.59,3.4,3.4,0,0,1-1.75.46,2.52,2.52,0,0,1-1-.22,5,5,0,0,1-.86-.44c-.28-.16-.49-.36-.61-.31s-.12.4.1.77a2.15,2.15,0,0,0,1,.87"/><path class="cls-1" d="M36,15.44a4.2,4.2,0,0,0,1.61,0,4.59,4.59,0,0,0,1.22-.37A5.65,5.65,0,0,0,40,14.4a7.13,7.13,0,0,0,1.55-1.77A6.38,6.38,0,0,0,41.9,12a.68.68,0,0,0,.1-.26s-.25.32-.65.77a7.33,7.33,0,0,1-1.69,1.45,4.89,4.89,0,0,1-1.09.51,4.25,4.25,0,0,1-1,.19,4.39,4.39,0,0,1-1.3-.14,7.39,7.39,0,0,1-1.17-.36c-.37-.16-.67-.34-.78-.25s0,.45.38.8a2.76,2.76,0,0,0,1.35.75"/><path class="cls-1" d="M31.78,18.44a2.68,2.68,0,0,1,.52-.4,4.74,4.74,0,0,1,1.21-.5c.51-.15,1.15-.26,1.85-.39a9.34,9.34,0,0,0,2.19-.64,8.72,8.72,0,0,0,1.85-1.17A9.81,9.81,0,0,0,40.69,14a3.88,3.88,0,0,0,.89-1.49s-.44.53-1.22,1.17a8.86,8.86,0,0,1-3.2,1.75,34.48,34.48,0,0,1-4,.42,6,6,0,0,0-1.72.49,4.11,4.11,0,0,0-1,.63,2.84,2.84,0,0,0-.48.54,3.38,3.38,0,0,0-.36.74,2.9,2.9,0,0,0,0,1.57,1.81,1.81,0,0,0,.67,1c.26.17.47.17.56.07s.07-.28.06-.49a2.73,2.73,0,0,1,.07-.73,2.29,2.29,0,0,1,.33-.75,1.73,1.73,0,0,1,.23-.29,3.13,3.13,0,0,1,.26-.25"/><path class="cls-1" d="M36.12,19.34a9.55,9.55,0,0,0,1.39-1,12,12,0,0,0,1.93-2,11.65,11.65,0,0,0,1.36-2.19c.15-.31.26-.58.33-.76a1,1,0,0,0,.09-.3s-.24.38-.62.94A13.54,13.54,0,0,1,39,16a12.92,12.92,0,0,1-2,1.69,14.41,14.41,0,0,1-1.35.79l-1.29.74c-.41.24-.74.44-.71.58s.44.15,1,.06a5.3,5.3,0,0,0,1.51-.53"/><path class="cls-1" d="M37.18,21.46a1.43,1.43,0,0,0,.42,0,1.59,1.59,0,0,0,.62-.18,1.84,1.84,0,0,0,.57-.47,3.2,3.2,0,0,0,.38-.63,4.17,4.17,0,0,0,.36-1.17,1.09,1.09,0,0,0,0-.54,4.79,4.79,0,0,0-.2.48,4.76,4.76,0,0,1-.62,1,1.63,1.63,0,0,1-.8.61.68.68,0,0,1-.43,0,1,1,0,0,1-.33-.12.86.86,0,0,1-.18-.14.52.52,0,0,0-.18-.12.21.21,0,0,0-.2.11.6.6,0,0,0-.07.42.89.89,0,0,0,.23.48.94.94,0,0,0,.45.3"/><path class="cls-1" d="M36,7.39a3.18,3.18,0,0,0-1.26-.56,3.73,3.73,0,0,0-2.22.2,3.84,3.84,0,0,0-1.13.71,5,5,0,0,0-.84,1,4.88,4.88,0,0,0-.74,2.6,4,4,0,0,0,.81,2.45,3.8,3.8,0,0,0,1.73,1.24,3.11,3.11,0,0,0,1.44.15l.22-.05a.5.5,0,0,0,.16-.05c.09,0,.13,0,.13-.06s0,0-.14,0h-.38a3.13,3.13,0,0,1-1.25-.39,3.11,3.11,0,0,1-1.62-3.2,3.78,3.78,0,0,1,.8-1.85A3.68,3.68,0,0,1,32.35,9,2.32,2.32,0,0,1,33,8.61a2.16,2.16,0,0,1,1.2,0,1.8,1.8,0,0,1,.55.29,1.7,1.7,0,0,1,.24.22,1,1,0,0,1,.29.89,1.15,1.15,0,0,1-.38.56c-.16.14-.33.21-.37.34s.1.33.47.4a1.55,1.55,0,0,0,1.37-.47A2.19,2.19,0,0,0,37,9a2.61,2.61,0,0,0-1-1.58"/><path class="cls-1" d="M51.24,16.42l-.82-.33a12.59,12.59,0,0,1-1.36-.65c-.94-.51-1.76-1.18-1.83-1.12a5.29,5.29,0,0,0,1.11,2,9.92,9.92,0,0,0,1.17,1.23,5.59,5.59,0,0,0,.82.62,1.68,1.68,0,0,0,1,.16.84.84,0,0,0,.74-.44,1,1,0,0,0-.2-.82,2.09,2.09,0,0,0-.62-.61"/><path class="cls-1" d="M49.62,19.89c-.16-.24-1-1.19-1.79-2.13A14.27,14.27,0,0,0,46.23,16a8.86,8.86,0,0,0,.64,2.36A18.42,18.42,0,0,0,48,21c.32.49,1.25,1.06,1.68.75s.24-1.34-.06-1.81"/><path class="cls-1" d="M45.76,21a6,6,0,0,0,.21-1A8.88,8.88,0,0,0,46,18.09a5.53,5.53,0,0,0-.36-1.65c-.16-.41-.34-.65-.38-.63s0,.29-.07.71A7.9,7.9,0,0,1,44.94,18a19,19,0,0,1-1,2.3c-.17.49-.13,1.51.37,1.71s1.25-.5,1.45-1.05"/><path class="cls-1" d="M46.2,13a14.73,14.73,0,0,0-1.38-1.89A6,6,0,0,0,43.4,9.68a9.35,9.35,0,0,0,.44,1.92c.26,1,.5,2,.59,2.17.18.41.88,1,1.37.76s.6-1.11.4-1.55"/><path class="cls-1" d="M63.81,3.36a3.37,3.37,0,0,0-1.1.45A5.74,5.74,0,0,0,61.3,5a10.33,10.33,0,0,0-.93,1.33,1.87,1.87,0,0,0-.3.66s.28-.11.64-.34A15,15,0,0,1,62,5.88a4.81,4.81,0,0,1,1.36-.51,6.91,6.91,0,0,1,.78-.11A2.24,2.24,0,0,0,64.83,5a1.21,1.21,0,0,0,.58-.58c.08-.25-.09-.56-.44-.78a1.7,1.7,0,0,0-1.16-.23"/><path class="cls-1" d="M61.21.83a23.75,23.75,0,0,0-.84,4.28A21.18,21.18,0,0,0,63,1.6c.2-.44.12-1.35-.37-1.56S61.41.4,61.21.83"/><path class="cls-1" d="M57.34,3.29c.13.19.88.91,1.44,1.7a8.76,8.76,0,0,1,.68,1.15c.17.33.25.56.31.56s.12-.25.14-.65a5.73,5.73,0,0,0-.11-1.48,9,9,0,0,0-.86-2.38c-.29-.43-1.14-.83-1.57-.51s-.28,1.23,0,1.61"/><path class="cls-1" d="M61.33,12.46a.8.8,0,0,1-1.14.17c-.44-.26-.68-.66-.54-.94s.64-.39,1.11-.19.74.61.57,1"/><path class="cls-1" d="M60.3,14a.6.6,0,0,1-.54.15.94.94,0,0,1-.52-.36,1.31,1.31,0,0,1-.25-.56.42.42,0,0,1,.07-.39.92.92,0,0,1,1,.13.81.81,0,0,1,.38.49.57.57,0,0,1-.13.54"/><path class="cls-1" d="M58.81,15.1c-.29.16-.67,0-.86-.43s-.14-.78.09-.91.6.05.84.4.22.79-.07.94"/><path class="cls-1" d="M57.2,15.77c-.28.09-.59-.16-.68-.53s0-.72.24-.79a.44.44,0,0,1,.37.1.93.93,0,0,1,.3.41c.15.36,0,.73-.23.81"/><path class="cls-1" d="M55.49,16.09c-.26,0-.48-.25-.49-.59s.15-.62.36-.64.43.23.48.57-.1.64-.35.66"/><path class="cls-1" d="M53.75,16c-.23,0-.35-.32-.28-.61s.26-.49.44-.46.31.29.28.58S54,16,53.75,16"/><path class="cls-1" d="M52.1,15.43a.39.39,0,0,1-.08-.56c.12-.23.34-.35.48-.28a.44.44,0,0,1,.09.54c-.09.24-.32.39-.49.3"/><path class="cls-1" d="M43.7,7a.89.89,0,0,1,.06-.64,1,1,0,0,1,.49-.5.84.84,0,0,1,.71,0,1,1,0,0,1,.31.23.91.91,0,0,1,.2.36,1.17,1.17,0,0,1,0,.41.92.92,0,0,1-.13.36.82.82,0,0,1-.59.39,1.07,1.07,0,0,1-.69-.13A.86.86,0,0,1,43.7,7"/><path class="cls-1" d="M42.77,5.16A.89.89,0,0,1,42.93,4a.79.79,0,0,1,.62-.19.84.84,0,0,1,.59.35.9.9,0,0,1,.16.68.79.79,0,0,1-.39.52.9.9,0,0,1-.63.11.78.78,0,0,1-.51-.31"/><path class="cls-1" d="M41.32,3.63a.8.8,0,0,1-.11-1.07.77.77,0,1,1,1.17,1,.79.79,0,0,1-1.06.08"/><path class="cls-1" d="M39.53,2.4a.71.71,0,0,1-.27-.93.69.69,0,1,1,1.2.67.72.72,0,0,1-.93.26"/><path class="cls-1" d="M37.54,1.5a.64.64,0,0,1-.4-.76.6.6,0,0,1,.78-.42.6.6,0,0,1,.38.79.63.63,0,0,1-.76.39"/><path class="cls-1" d="M35.44,1.08a.55.55,0,0,1-.52-.52A.53.53,0,1,1,36,.57a.54.54,0,0,1-.54.51"/><path class="cls-1" d="M33.41,1.44a.47.47,0,0,1-.6-.2A.44.44,0,0,1,33,.61a.45.45,0,0,1,.63.23.5.5,0,0,1-.22.6"/><path class="cls-1" d="M34.22,7c-.1-.05-.17-.29-.25-.64A5.84,5.84,0,0,1,33.85,5a2.09,2.09,0,0,1,.43-1.26.91.91,0,0,1,1-.31,1,1,0,0,1,.63.88,2.14,2.14,0,0,1-.39,1.3,8.12,8.12,0,0,1-.8,1c-.23.25-.38.39-.49.34"/><path class="cls-1" d="M32.94,6.88c-.14,0-.34-.13-.56-.38a3.89,3.89,0,0,1-.67-1,2.13,2.13,0,0,1-.19-1.2.79.79,0,0,1,.57-.67.86.86,0,0,1,.84.38,2.23,2.23,0,0,1,.38,1.18,4,4,0,0,1-.08,1.2c-.06.31-.15.51-.29.53"/><path class="cls-1" d="M31.42,7.5c-.28.17-1-.17-1.52-.82a2.29,2.29,0,0,1-.51-1A.67.67,0,0,1,29.62,5a.75.75,0,0,1,.77.06,2.31,2.31,0,0,1,.77.83,3.23,3.23,0,0,1,.38,1c.05.29,0,.51-.12.59"/><path class="cls-1" d="M30,8.67c-.1.1-.29.1-.56,0a3.58,3.58,0,0,1-.93-.38,1.65,1.65,0,0,1-.71-.7.66.66,0,0,1,0-.71c.32-.36,1-.14,1.55.41s.78,1.15.61,1.34"/><path class="cls-1" d="M29.32,9.94c0,.24-.58.5-1.26.52s-1.24-.26-1.2-.68a.62.62,0,0,1,.43-.48,1.69,1.69,0,0,1,.9,0,2.76,2.76,0,0,1,.82.31c.2.11.32.23.31.35"/><path class="cls-1" d="M29.35,11.84c0,.23-.36.56-.92.76s-1.11.08-1.18-.25.37-.68,1-.77,1.09,0,1.14.26"/><path class="cls-1" d="M30,13.46c.06.06,0,.19,0,.36a2.24,2.24,0,0,1-.34.57,1.2,1.2,0,0,1-.53.4.39.39,0,0,1-.51-.55,1.2,1.2,0,0,1,.44-.5,2.35,2.35,0,0,1,.59-.3c.18,0,.31,0,.37,0"/></g></g></svg>