<svg xmlns="http://www.w3.org/2000/svg" viewBox="0 0 507.33 663.87"><defs><style>.cls-1,.cls-2,.cls-3{fill:#fff;}.cls-2{font-size:72px;}.cls-2,.cls-3{font-family:Candara, Candara;}.cls-3{font-size:48px;}.cls-4{letter-spacing:0.01em;}</style></defs><title>Asset 1</title><g id="Layer_2" data-name="Layer 2"><g id="Layer_1-2" data-name="Layer 1"><path class="cls-1" d="M253.41,0c98.19,3.75,174.71,45.35,223.7,131.54,51.2,90.09,35.92,205.45-35.06,281-39.39,41.89-87.36,68.4-144.06,78.06C163.43,513.5,45.35,431.3,11.93,319.8c-28.81-96.11-5-180.5,66.64-250.4C120,29,170.72,6.89,228.46,1.38,236.74.59,245.09.45,253.41,0Zm9.87,484.21c51.33-.21,109.47-21,158.32-66.1C503.08,343,521.66,222.47,463.21,128.57,409.59,42.43,329.59,4.3,228.67,12.09,172,16.46,122.83,39.76,82.6,79.79,21.47,140.62-2,214.28,16.69,298.66,40.33,405.38,138.31,482.38,263.28,484.21Z"/><path d="M263.28,484.21c-125-1.83-222.95-78.83-246.59-185.55C-2,214.28,21.47,140.62,82.6,79.79c40.23-40,89.42-63.33,146.07-67.7C329.59,4.3,409.59,42.43,463.21,128.57c58.45,93.9,39.87,214.39-41.61,289.54C372.75,463.16,314.61,484,263.28,484.21ZM252.47,119c-4.31,34.31-25.58,54.78-45.06,64.65a200.69,200.69,0,0,1-19.27,8.19c-7.27,2.77-11.13,7.93-11,15.55.37,18.64-.33,37.44,1.94,55.87,4,32.15,19.73,57.59,48.54,73.85,17.11,9.66,34.4,9.3,51.28-.55,27-15.74,42.52-39.72,46.6-70.2,2.43-18.22,1.74-36.87,2.23-55.33.33-12.33-2.39-16-14.26-20.15-18.14-6.4-33.75-16.33-45.47-31.94A79,79,0,0,1,252.47,119ZM213.79,338.17c0,8.79-.13,16.93,0,25.07.19,9-2.52,16.68-9.67,22.5-3.1,2.51-6.19,5-8.78,7.15,9.76,22.25,36,53.58,58.09,70a20.3,20.3,0,0,0,1.95-1.32c18.67-15.77,35.54-33.27,48.25-54.23,9.68-16,9.53-10.62-3-23.11-4.72-4.72-7.84-9.87-8.05-16.56-.25-8.15-.35-16.3-.55-24.45-.05-1.7-.26-3.39-.41-5.39C256.89,356.79,252.8,356.81,213.79,338.17ZM237.49,84a58.69,58.69,0,0,0-6.63-4.8c-10.34-5.57-21.47-6-32.57-3.59-29.31,6.3-46.86,25.53-55.19,53.27-3.75,12.5-4.64,25.83-7.41,38.66-2.05,9.53-4,19.32-7.89,28.16-4.52,10.27-15.08,11.48-22.86,3.43a77.31,77.31,0,0,1-10.32-14C87.37,173,83.44,160,83.77,145.71c.21-8.88-1.85-17.3-9.73-23-6.22-4.46-14.79-3.88-18.52,1.13,14.7.64,20.4,6.38,21.14,21.29,0,.66,0,1.33.07,2,.53,21.61,9.08,40.07,22.89,56.16C110.48,216,124.77,215,133.4,200.69c3.95-6.55,6.35-14.26,8.32-21.74,4.59-17.38,8.54-34.94,18.16-50.49s22.28-26.68,40.91-28.89c8-1,16.27-.22,24.41,0,5.7.17,11.38.78,17.07,1.2.08-.44.15-.88.23-1.32a43.64,43.64,0,0,0-20.75-6.91c-7.43-.5-15.11-.92-22.35.4a66.62,66.62,0,0,0-21.35,7.69c-6.32,3.7-11.91,9.11-16.8,14.66-4.73,5.39-8.17,11.92-13,19.17,4.89-16.55,11.91-30.11,24.8-39.83C192.52,80,214.53,80.61,237.49,84Zm213.09,39.89.51-1.56c-3.34-.87-6.66-2.42-10-2.48-8.49-.15-15.88,6.37-18,15.89-1.05,4.66-1.15,9.56-1.39,14.36-1,19.33-8.6,35.84-21.86,49.57-7.24,7.49-16.36,6.18-21.86-2.68a39.44,39.44,0,0,1-5.07-12.89c-2.66-13.38-4.72-26.88-7-40.32-3.91-22.57-12.76-42.39-31.81-56.36-15.63-11.46-33-15.47-52-11.19C275.3,77.72,270.67,81,268.57,85c18.85-3.58,37.42-4.6,55.25,4.15,18.47,9.07,27.61,25,32.66,44.06-8.92-16.73-20.42-31-38.89-37.48-18.28-6.42-36.38-5.29-53.74,3.9a12.1,12.1,0,0,0,5.15.66c8.31-.44,16.62-1,24.94-1.36,22.44-.87,38.95,9.29,50.87,27.74,8.8,13.63,13.49,28.82,17.09,44.49A210.76,210.76,0,0,0,369,195.05a31.71,31.71,0,0,0,6.37,10c8.15,9.1,19.61,9.66,28.08.83,15.79-16.45,24.68-36.11,25.43-59.14C429.37,130.59,435.05,124.62,450.58,123.87ZM393.41,386.19c-1.28-8.58-6.1-13.44-12.26-17-4.3-2.46-9.09-4.07-13.63-6.12-20.7-9.35-31.7-29.86-27.83-51.16,1.69-9.27,2.7-18.66,4-28,1.73-12.2,7.78-21.27,19.65-25.4,12.08-4.2,23.74-4.82,33.68,5.63a50.13,50.13,0,0,0,11.1,8.36,17.52,17.52,0,0,0,18.37-.7c-11.9-.86-19.6-7.91-27.54-14.94a31.29,31.29,0,0,0-12.63-6.6c-25.58-6.44-49.27,12.35-49.52,38.62a70.42,70.42,0,0,1-2.11,18.17C327.19,334,340.89,361.2,367,371a154.75,154.75,0,0,1,18.34,8.76C388.07,381.23,390.25,383.63,393.41,386.19ZM113,383.81c8-4,16.09-9,24.8-12.21,22.84-8.47,37.26-28.2,34.92-52.32-1.28-13.26-2.94-26.65-5.24-39.76-4.68-26.63-40-40.08-59.95-23.31-8.3,7-15.79,14.75-28.57,15.91,5.59,3.1,10.36,3.95,14.64,1.93,5-2.36,9.47-5.91,14.11-9,4-2.66,7.47-6.48,11.8-8,18.88-6.5,39.59,6.16,42.33,25.82,1.47,10.47.66,21.27,4.87,31.32a7.76,7.76,0,0,1,.23,2.48c1.28,21.06-10.75,39.62-30.43,47.54a87.38,87.38,0,0,0-15.87,8.14A17.12,17.12,0,0,0,113,383.81ZM248.48,66.63c-5.94-9.81-12.69-18.15-23.29-22.21-10.77-4.13-21-3.19-30.37,3.95a16.22,16.22,0,0,0,4.72-.06c21.79-2.65,35,4.27,44.42,24.06,3.46,7.27,5.81,15.07,8.85,23.13.69-2,1.22-3.92,1.93-5.71,2.64-6.63,4.94-13.44,8.09-19.82,7.64-15.45,20.26-22.86,37.58-22,3.64.18,7.28.52,11.88.86-7.72-5.88-15.49-7.71-23.88-6.62-15.55,2-24.56,12.69-32.32,25.12,1-7.65,1.89-15.15,6.65-21.48,5.11-6.77,12.49-8.34,20.47-8.68-6.74-2.83-14-4.16-19.67.09-5.05,3.81-8.24,10.09-11.86,14.76-6.5-16-14.85-20.59-29.56-15.49C241.93,41.92,248.55,49.3,248.48,66.63ZM121.21,355.86l1.23,1.05c13.18-2.17,27.32-16.82,28.2-31.3.64-10.65-.58-21.51-2-32.15-.54-4.16-3.25-8.41-6-11.84-7.4-9.38-21.65-12-30.48-5.3-5.66,4.28-9.73,10.69-17.37,12.2-.7.14-1.33,1-1.84,1.63-1.85,2.32-2,4.4.6,6l9.78-7c-.52,3.41-.77,5.2-1.08,7-2,11.5,3.25,19.59,14.53,22.32,6.9,1.66,15.16-2.46,17.75-8.86s-.62-15-6.9-18.54a9.6,9.6,0,0,0-13.08,3.35c-2.81,4.38-2.06,10.49,1.69,13.71,3.27,2.81,8.36,1.83,12.36-2.44,1-1.11,2-2.34,3.23-3.88.46,7.37-2.72,11.83-9,13.49-6.16,1.61-14-2.26-16.6-8.19-3.24-7.35.61-21.84,7.3-26.25a18.42,18.42,0,0,1,7.81-2.89c12.52-1.41,22.32,7.62,22.55,20.23.09,5.46.69,10.92.84,16.38a42.28,42.28,0,0,1-.48,8.93c-1.88,10.16-7.81,17.77-15.54,24.3C125.94,350.14,123.7,353.15,121.21,355.86Zm262.88,1,1-1.11c-2.55-2.7-4.88-5.67-7.7-8.06-8.71-7.38-15.4-16.11-15.9-27.79A139.85,139.85,0,0,1,363,292.66c1.22-7.86,6.94-12.79,14.76-14.54s15.72.95,18.88,7.77a44.18,44.18,0,0,1,3.89,17.18c.15,7.14-7.37,12.92-14.74,12.75-7.13-.17-11.4-4.8-11.67-12.55,2.27,1.73,4.38,4.08,7,5.1a10.23,10.23,0,0,0,7.45-.08c4.27-2.18,5.48-9,3-13.32a9.87,9.87,0,0,0-12.94-4.2,14.65,14.65,0,0,0-8.38,12.75,13.33,13.33,0,0,0,7.43,13.16,17.78,17.78,0,0,0,26.08-15c.11-3.44-.41-6.9-.73-11.67l9.74,7.07c.46-1.07,1.15-1.93,1.14-2.78-.06-5.13-4.08-6.57-7.92-7.62a11.07,11.07,0,0,1-6.93-4.86c-3.58-5.27-8.68-8.58-15.43-8.85-15.71-.62-27.58,11.34-27.43,27.65,0,3.31-.5,6.62-.53,9.93,0,5.93-.76,12,.35,17.77C358.74,342.28,371.64,354.91,384.09,356.89ZM217.2,439c-3.31-4.3-5.92-7.18-11.62-7-10.35.23-20.26.58-27.86,9.95a93.54,93.54,0,0,1-3.08-16.39c-.87-9.68-5.09-17.18-13.71-21.79-6.72-3.58-15.09-2.72-19.48,2.12a8.75,8.75,0,0,1-7.18,3.27,10.26,10.26,0,0,0-10.2,9.14c-.52,5.1,3,10.63,8.1,11.72,4.58,1,9.14,1.29,13.58,3.47,1.85.9,6.52-1,8-3s1.1-6,.4-8.77c-.31-1.21-3.43-2-5.39-2.35-.82-.14-1.94,1.43-2.92,2.23,1,1.16,2.13,2.27,3.08,3.5.52.68,1.25,1.65,1.09,2.29s-1.3,1.91-1.88,1.84a9.09,9.09,0,0,1-4.49-1.52c-3.35-2.67-4.75-9-3.26-13.34a12.43,12.43,0,0,1,10.77-8.39c9.35-.58,18.39,8,17.71,18.14-.64,9.66,3.21,17.51,7.64,25.35.72,1.28,2.59,1.91,4.3,3.1,3.35-10.48,10.6-13.61,20-13.49C206,439.09,211.26,439,217.2,439Zm143.71-16.31.24-1.83c-2.17-.54-4.76-2.07-6.38-1.37a8.14,8.14,0,0,0-4,5.55c-.89,6.23,5.45,10.39,11.36,8.07a40.08,40.08,0,0,1,8.77-2.25c5-.73,8.87-2.77,10.59-7.81,1.35-3.95,1.21-8.22-2.34-10.42s-9-2.21-12.36-4.76c-3.77-2.84-6.85-6.25-12-6.21-.67,0-1.33,0-2,.06-11.34.76-20.49,10.86-21.11,22.77-.29,5.76-1.36,11.47-2.08,17.2l-1.62.12c-4.75-6.41-11.15-9.7-18.91-9.58-6.95.11-15.16-2.77-19.08,6.65,13.2,1.73,29.54-5.54,36.68,14,1.83-2,3.18-3,3.9-4.29,4.05-7.5,7.33-15,6.58-24.11-.8-9.74,7.94-18.63,16.95-18.56,5.36,0,10.28,3.9,12.12,9.52,1.39,4.24-.13,10.2-3.92,12.47-1.46.88-4,0-6.05-.13.86-1.27,1.64-2.61,2.61-3.8A7.79,7.79,0,0,1,360.91,422.72ZM111.75,420.3c-.34-9.63,4.06-14.95,10.83-19a163.6,163.6,0,0,0,16.56-11c8.3-6.45,17.12-7.67,26.75-3.94,11.45,4.44,17.8,13.5,21.91,24.53,2.69,7.21,2.67,7.22,11.46,5.94-6.5-11-10.76-23.11-21.06-31.3-12.61-10-29.13-11.13-40.6-1.72a125.67,125.67,0,0,1-19.92,13.89C109.11,402.36,107,410.73,111.75,420.3Zm194.5-3.39c10,1.08,9.93,1,12.92-6.64a68.58,68.58,0,0,1,4.52-9.43c8.52-14.73,29.58-24.22,46.5-7.8a31.46,31.46,0,0,0,9,6.19c8.54,3.76,15.58,8.5,15.55,20.1,3.75-7.52,3-14.21-3.14-19.05-8.91-7-18.55-13.15-27.89-19.64a6.7,6.7,0,0,0-1.37-.6A33.32,33.32,0,0,0,323.89,390C317.32,398,312.43,407.32,306.25,416.91Zm84-96.07c8,5.46,14.58,4.22,20-4.57,5.83-9.54,13.63-16.53,22.86-22.54,13.45-8.75,14.59-20,3.39-31.53a77.55,77.55,0,0,0-12.08-9.6c-4.54-3.08-9.44-5.62-14.18-8.39-7.55-4.42-15-8.88-15.82-19.32a16.71,16.71,0,0,0-.8,8c1.15,6.22,5.6,10.12,10.62,13.26,5.92,3.69,12.49,6.47,18,10.64a83,83,0,0,1,15.28,14.68c3.8,4.82,3,9.52-1.34,14a72.85,72.85,0,0,1-11.56,9.42,48.32,48.32,0,0,0-15.12,15.65C405.28,317.7,400.76,324.67,390.21,320.84ZM115,321.25c-10.45,2.49-14.65-4.38-19.31-11.5-3.12-4.76-7.47-8.82-11.75-12.66-3.81-3.43-8.49-5.89-12.41-9.21-6.38-5.42-7.32-11.87-2.24-18.48a56.89,56.89,0,0,1,11.42-11c4.52-3.33,10-5.31,14.59-8.58a88.86,88.86,0,0,0,14.55-12.51,10.08,10.08,0,0,0,.91-12.4c-.56,10-7.72,14.66-15,19.15-4.67,2.87-9.8,5.13-14.11,8.46-5.73,4.43-11.64,9-16.09,14.65-6.55,8.27-5,16.3,3,23.32a29,29,0,0,0,4.32,3.38c9.69,5.65,17.58,12.95,23.11,22.9,1.49,2.67,4.62,4.81,7.46,6.26C107.26,325,111.3,324.4,115,321.25ZM344.76,83.3c-14.22-19-32.71-28.16-56.69-24.26A27.77,27.77,0,0,0,268.18,72C290.94,60.46,321.16,65.14,344.76,83.3ZM261.21,467.89c21,.23,37.59-10.83,56.35-14.86-2.29-2.16-4.65-4.25-7.07-4.33C291.92,448.05,275.62,453.69,261.21,467.89ZM236.79,70.71c-14-19.41-57.93-17.5-76.16,13.06C184.17,65.64,209,60.71,236.79,70.71ZM246.2,467.8c-2.78-2.31-4.46-3.77-6.21-5.16-12.3-9.72-26.19-14.72-42-14-3.58.16-6.92.7-8.28,5.61C208.74,456.49,225.19,468.28,246.2,467.8ZM421.25,326.24c1.76-8.16,2.72-8.8,10.82-9.3,1.5-.09,4.25-1.77,4.17-2.46-.79-6.75,3-9.08,8.71-10.25,3.27-.66,5.65-2.69,5.75-6.31-2.84,1.34-5.25,3.24-7.87,3.58-6.82.9-10.77,3.93-10,11.14C420.74,314.25,417.54,317.88,421.25,326.24ZM54.91,297.45c.17,4.82,3.82,6.58,7.8,7.32,4.87.9,7.49,2.89,7,8.29-.1,1.21,1.91,3.73,2.93,3.72,6.34-.07,11.74.74,12.07,10.49,3.12-9.53,1.34-11.45-11.57-14.89.92-7.15-3.19-9.89-9.7-11C60.54,300.84,57.89,298.86,54.91,297.45ZM190,312.84l-4.16-6.71-8.47,11.11,1.18,1.22Zm137.34,5.41,1-1.19c-3-3.57-6-7.13-9.08-10.86-1.35,2.23-2.52,4.17-3.9,6.47Z"/><path class="cls-1" d="M252.47,119A79,79,0,0,0,268,158.89c11.72,15.61,27.33,25.54,45.47,31.94,11.87,4.19,14.59,7.82,14.26,20.15-.49,18.46.2,37.11-2.23,55.33-4.08,30.48-19.64,54.46-46.6,70.2-16.88,9.85-34.17,10.21-51.28.55-28.81-16.26-44.57-41.7-48.54-73.85-2.27-18.43-1.57-37.23-1.94-55.87-.15-7.62,3.71-12.78,11-15.55a200.69,200.69,0,0,0,19.27-8.19C226.89,173.73,248.16,153.26,252.47,119Zm22,181.79c-6.93-2.79-11.49-14.39-21.3-6.2-10.72-7.4-15,4-21.7,6.33,2.13,3,4.25,5.69,6.07,8.57,8.24,13,22.89,12.88,30.72-.26C270,306.27,272.25,303.69,274.44,300.74Zm-92.05-78.06-.66,1.5c6.37,10,14.45,17.89,27.11,19.07,9.39.88,17-2.66,22.54-11-12.24,6.05-22.62,1-33.21-4.45C193.31,225.33,187.67,224.35,182.39,222.68Zm90.63,9.7c6.18,7.29,13.19,11.61,22.3,11.06,13.19-.8,21.59-8.93,29-20.05-8.17.44-14.58,3.14-21.06,6.19-5,2.36-10.48,4.43-15.92,5.07C283,235.16,278.34,233.32,273,232.38ZM317.16,203c-14-5.82-27.72-6.7-41.43-.06-2.8,1.36-5,3.74-3.78,7.23,1.32,3.67,4.68,3.51,7.6,2.77C291.89,209.76,304.17,206.41,317.16,203Zm-129.15.9c3.79.63,7.2.93,10.46,1.79,9.27,2.45,18.43,5.39,27.77,7.51,2.16.5,4.88-1.48,7.34-2.31-1.1-2.36-1.58-5.51-3.41-7C221.16,196.76,198.31,196.77,188,203.85Zm79.85,75.46c-2.89-.68-5.11-2-6.65-1.41-3.26,1.21-6.17,3.39-9.28,5.2-4-6.33-9.38-7.57-12.64-2.29C245.93,286.81,260.38,286.67,267.86,279.31Z"/><path class="cls-1" d="M213.79,338.17c39,18.64,43.1,18.62,77.87-.3.15,2,.36,3.69.41,5.39.2,8.15.3,16.3.55,24.45.21,6.69,3.33,11.84,8.05,16.56,12.52,12.49,12.67,7.15,3,23.11-12.71,21-29.58,38.46-48.25,54.23a20.3,20.3,0,0,1-1.95,1.32c-22.09-16.46-48.33-47.79-58.09-70,2.59-2.11,5.68-4.64,8.78-7.15,7.15-5.82,9.86-13.48,9.67-22.5C213.66,355.1,213.79,347,213.79,338.17Z"/><path class="cls-1" d="M237.49,84c-23-3.37-45-4-64.43,10.67-12.89,9.72-19.91,23.28-24.8,39.83,4.82-7.25,8.26-13.78,13-19.17,4.89-5.55,10.48-11,16.8-14.66A66.62,66.62,0,0,1,199.4,93c7.24-1.32,14.92-.9,22.35-.4a43.64,43.64,0,0,1,20.75,6.91c-.08.44-.15.88-.23,1.32-5.69-.42-11.37-1-17.07-1.2-8.14-.24-16.38-1-24.41,0-18.63,2.21-31.36,13.47-40.91,28.89S146.31,161.57,141.72,179c-2,7.48-4.37,15.19-8.32,21.74C124.77,215,110.48,216,99.62,203.34c-13.81-16.09-22.36-34.55-22.89-56.16,0-.67,0-1.34-.07-2-.74-14.91-6.44-20.65-21.14-21.29,3.73-5,12.3-5.59,18.52-1.13,7.88,5.65,9.94,14.07,9.73,23C83.44,160,87.37,173,94.62,185.1a77.31,77.31,0,0,0,10.32,14c7.78,8,18.34,6.84,22.86-3.43,3.88-8.84,5.84-18.63,7.89-28.16,2.77-12.83,3.66-26.16,7.41-38.66,8.33-27.74,25.88-47,55.19-53.27,11.1-2.39,22.23-2,32.57,3.59A58.69,58.69,0,0,1,237.49,84Z"/><path class="cls-1" d="M450.58,123.87c-15.53.75-21.21,6.72-21.74,22.9-.75,23-9.64,42.69-25.43,59.14-8.47,8.83-19.93,8.27-28.08-.83a31.71,31.71,0,0,1-6.37-10,210.76,210.76,0,0,1-7.06-23.87c-3.6-15.67-8.29-30.86-17.09-44.49C332.89,108.24,316.38,98.08,293.94,99c-8.32.32-16.63.92-24.94,1.36a12.1,12.1,0,0,1-5.15-.66c17.36-9.19,35.46-10.32,53.74-3.9,18.47,6.49,30,20.75,38.89,37.48-5.05-19-14.19-35-32.66-44.06C306,80.42,287.42,81.44,268.57,85c2.1-4.06,6.73-7.3,13.48-8.81,19-4.28,36.36-.27,52,11.19,19,14,27.9,33.79,31.81,56.36,2.33,13.44,4.39,26.94,7,40.32A39.44,39.44,0,0,0,378,197c5.5,8.86,14.62,10.17,21.86,2.68,13.26-13.73,20.89-30.24,21.86-49.57.24-4.8.34-9.7,1.39-14.36,2.12-9.52,9.51-16,18-15.89,3.35.06,6.67,1.61,10,2.48Z"/><path class="cls-1" d="M393.41,386.19c-3.16-2.56-5.34-5-8-6.4A154.75,154.75,0,0,0,367,371c-26.14-9.83-39.84-37.06-32.32-63.94a70.42,70.42,0,0,0,2.11-18.17c.25-26.27,23.94-45.06,49.52-38.62A31.29,31.29,0,0,1,399,256.9c7.94,7,15.64,14.08,27.54,14.94a17.52,17.52,0,0,1-18.37.7,50.13,50.13,0,0,1-11.1-8.36c-9.94-10.45-21.6-9.83-33.68-5.63-11.87,4.13-17.92,13.2-19.65,25.4-1.32,9.33-2.33,18.72-4,28-3.87,21.3,7.13,41.81,27.83,51.16,4.54,2,9.33,3.66,13.63,6.12C387.31,372.75,392.13,377.61,393.41,386.19Z"/><path class="cls-1" d="M113,383.81a17.12,17.12,0,0,1,7.64-11.47,87.38,87.38,0,0,1,15.87-8.14c19.68-7.92,31.71-26.48,30.43-47.54a7.76,7.76,0,0,0-.23-2.48c-4.21-10.05-3.4-20.85-4.87-31.32-2.74-19.66-23.45-32.32-42.33-25.82-4.33,1.5-7.85,5.32-11.8,8-4.64,3.12-9.1,6.67-14.11,9-4.28,2-9,1.17-14.64-1.93,12.78-1.16,20.27-8.93,28.57-15.91,19.95-16.77,55.27-3.32,60,23.31,2.3,13.11,4,26.5,5.24,39.76,2.34,24.12-12.08,43.85-34.92,52.32C129.1,374.83,121,379.8,113,383.81Z"/><path class="cls-1" d="M248.48,66.63c.07-17.33-6.55-24.71-26.36-30.06,14.71-5.1,23.06-.46,29.56,15.49,3.62-4.67,6.81-11,11.86-14.76,5.62-4.25,12.93-2.92,19.67-.09-8,.34-15.36,1.91-20.47,8.68-4.76,6.33-5.66,13.83-6.65,21.48,7.76-12.43,16.77-23.09,32.32-25.12,8.39-1.09,16.16.74,23.88,6.62-4.6-.34-8.24-.68-11.88-.86-17.32-.9-29.94,6.51-37.58,22-3.15,6.38-5.45,13.19-8.09,19.82-.71,1.79-1.24,3.66-1.93,5.71-3-8.06-5.39-15.86-8.85-23.13-9.44-19.79-22.63-26.71-44.42-24.06a16.22,16.22,0,0,1-4.72.06c9.37-7.14,19.6-8.08,30.37-3.95C235.79,48.48,242.54,56.82,248.48,66.63Z"/><path class="cls-1" d="M121.21,355.86c2.49-2.71,4.73-5.72,7.52-8.07,7.73-6.53,13.66-14.14,15.54-24.3a42.28,42.28,0,0,0,.48-8.93c-.15-5.46-.75-10.92-.84-16.38-.23-12.61-10-21.64-22.55-20.23a18.42,18.42,0,0,0-7.81,2.89c-6.69,4.41-10.54,18.9-7.3,26.25,2.61,5.93,10.44,9.8,16.6,8.19,6.32-1.66,9.5-6.12,9-13.49-1.27,1.54-2.19,2.77-3.23,3.88-4,4.27-9.09,5.25-12.36,2.44-3.75-3.22-4.5-9.33-1.69-13.71a9.6,9.6,0,0,1,13.08-3.35c6.28,3.51,9.49,12.14,6.9,18.54s-10.85,10.52-17.75,8.86c-11.28-2.73-16.55-10.82-14.53-22.32.31-1.78.56-3.57,1.08-7l-9.78,7c-2.58-1.57-2.45-3.65-.6-6,.51-.64,1.14-1.49,1.84-1.63,7.64-1.51,11.71-7.92,17.37-12.2,8.83-6.69,23.08-4.08,30.48,5.3,2.71,3.43,5.42,7.68,6,11.84,1.4,10.64,2.62,21.5,2,32.15-.88,14.48-15,29.13-28.2,31.3Zm-5.34-55.73c.33,3,.71,6.41,5.09,6.85,3.56.35,7.63-3.89,7.93-8.14.28-3.91-2.34-5.24-5.56-5.5A7,7,0,0,0,115.87,300.13Z"/><path class="cls-1" d="M384.09,356.89c-12.45-2-25.35-14.61-28-28.6-1.11-5.74-.39-11.84-.35-17.77,0-3.31.56-6.62.53-9.93-.15-16.31,11.72-28.27,27.43-27.65,6.75.27,11.85,3.58,15.43,8.85a11.07,11.07,0,0,0,6.93,4.86c3.84,1.05,7.86,2.49,7.92,7.62,0,.85-.68,1.71-1.14,2.78L403.06,290c.32,4.77.84,8.23.73,11.67a17.78,17.78,0,0,1-26.08,15,13.33,13.33,0,0,1-7.43-13.16,14.65,14.65,0,0,1,8.38-12.75A9.87,9.87,0,0,1,391.6,295c2.45,4.3,1.24,11.14-3,13.32a10.23,10.23,0,0,1-7.45.08c-2.63-1-4.74-3.37-7-5.1.27,7.75,4.54,12.38,11.67,12.55,7.37.17,14.89-5.61,14.74-12.75a44.18,44.18,0,0,0-3.89-17.18c-3.16-6.82-10.93-9.55-18.88-7.77S364.21,284.8,363,292.66a139.85,139.85,0,0,0-1.51,27.27c.5,11.68,7.19,20.41,15.9,27.79,2.82,2.39,5.15,5.36,7.7,8.06Zm-3.46-63.6c-.85,1.18-3.22,3.14-3.68,5.48-.68,3.46,5.06,8.72,8.4,8.18,4-.65,4.39-4.05,4.39-7.24C389.73,295.79,386.54,293.08,380.63,293.29Z"/><path class="cls-1" d="M217.2,439c-5.94,0-11.2.06-16.47,0-9.36-.12-16.61,3-20,13.49-1.71-1.19-3.58-1.82-4.3-3.1-4.43-7.84-8.28-15.69-7.64-25.35.68-10.13-8.36-18.72-17.71-18.14a12.43,12.43,0,0,0-10.77,8.39c-1.49,4.29-.09,10.67,3.26,13.34a9.09,9.09,0,0,0,4.49,1.52c.58.07,1.7-1.08,1.88-1.84s-.57-1.61-1.09-2.29c-.95-1.23-2-2.34-3.08-3.5,1-.8,2.1-2.37,2.92-2.23,2,.33,5.08,1.14,5.39,2.35.7,2.81,1.07,6.72-.4,8.77s-6.12,3.94-8,3c-4.44-2.18-9-2.5-13.58-3.47-5.13-1.09-8.62-6.62-8.1-11.72a10.26,10.26,0,0,1,10.2-9.14,8.75,8.75,0,0,0,7.18-3.27c4.39-4.84,12.76-5.7,19.48-2.12,8.62,4.61,12.84,12.11,13.71,21.79a93.54,93.54,0,0,0,3.08,16.39c7.6-9.37,17.51-9.72,27.86-9.95C211.28,431.85,213.89,434.73,217.2,439Zm-81-26.52c-7.09.65-9.44,2.92-8.64,8.14.83,5.43,4.87,7.94,10.32,6.78C137.32,422.51,136.77,417.64,136.2,412.51Z"/><path class="cls-1" d="M360.91,422.72a7.79,7.79,0,0,0-2,1.28c-1,1.19-1.75,2.53-2.61,3.8,2.05.1,4.59,1,6.05.13,3.79-2.27,5.31-8.23,3.92-12.47-1.84-5.62-6.76-9.48-12.12-9.52-9-.07-17.75,8.82-16.95,18.56.75,9.08-2.53,16.61-6.58,24.11-.72,1.33-2.07,2.31-3.9,4.29-7.14-19.53-23.48-12.26-36.68-14,3.92-9.42,12.13-6.54,19.08-6.65,7.76-.12,14.16,3.17,18.91,9.58l1.62-.12c.72-5.73,1.79-11.44,2.08-17.2.62-11.91,9.77-22,21.11-22.77.67,0,1.33-.05,2-.06,5.13,0,8.21,3.37,12,6.21,3.39,2.55,8.66,2.48,12.36,4.76s3.69,6.47,2.34,10.42c-1.72,5-5.58,7.08-10.59,7.81a40.08,40.08,0,0,0-8.77,2.25c-5.91,2.32-12.25-1.84-11.36-8.07a8.14,8.14,0,0,1,4-5.55c1.62-.7,4.21.83,6.38,1.37Zm7.52,5.28c4.11.42,7.9-.61,9.54-4.54.93-2.26,1.09-6-.22-7.72-1.53-2-5-2.49-7.41-3.52C369.62,418.18,369.05,422.86,368.43,428Z"/><path class="cls-1" d="M111.75,420.3c-4.75-9.57-2.64-17.94,5.93-22.57a125.67,125.67,0,0,0,19.92-13.89c11.47-9.41,28-8.32,40.6,1.72,10.3,8.19,14.56,20.28,21.06,31.3-8.79,1.28-8.77,1.27-11.46-5.94-4.11-11-10.46-20.09-21.91-24.53-9.63-3.73-18.45-2.51-26.75,3.94a163.6,163.6,0,0,1-16.56,11C115.81,405.35,111.41,410.67,111.75,420.3Z"/><path class="cls-1" d="M306.25,416.91c6.18-9.59,11.07-19,17.64-26.94A33.32,33.32,0,0,1,362.32,380a6.7,6.7,0,0,1,1.37.6c9.34,6.49,19,12.6,27.89,19.64,6.12,4.84,6.89,11.53,3.14,19.05,0-11.6-7-16.34-15.55-20.1a31.46,31.46,0,0,1-9-6.19c-16.92-16.42-38-6.93-46.5,7.8a68.58,68.58,0,0,0-4.52,9.43C316.18,418,316.27,418,306.25,416.91Z"/><path class="cls-1" d="M390.21,320.84c10.55,3.83,15.07-3.14,19.23-10.25a48.32,48.32,0,0,1,15.12-15.65,72.85,72.85,0,0,0,11.56-9.42c4.35-4.5,5.14-9.2,1.34-14a83,83,0,0,0-15.28-14.68c-5.54-4.17-12.11-6.95-18-10.64-5-3.14-9.47-7-10.62-13.26a16.71,16.71,0,0,1,.8-8c.78,10.44,8.27,14.9,15.82,19.32,4.74,2.77,9.64,5.31,14.18,8.39a77.55,77.55,0,0,1,12.08,9.6c11.2,11.49,10.06,22.78-3.39,31.53-9.23,6-17,13-22.86,22.54C404.79,325.06,398.22,326.3,390.21,320.84Z"/><path class="cls-1" d="M115,321.25c-3.7,3.15-7.74,3.77-11.59,1.8-2.84-1.45-6-3.59-7.46-6.26-5.53-10-13.42-17.25-23.11-22.9a29,29,0,0,1-4.32-3.38c-8-7-9.52-15.05-3-23.32C70,261.56,75.91,257,81.64,252.54c4.31-3.33,9.44-5.59,14.11-8.46,7.29-4.49,14.45-9.15,15-19.15a10.08,10.08,0,0,1-.91,12.4A88.86,88.86,0,0,1,95.3,249.84c-4.57,3.27-10.07,5.25-14.59,8.58a56.89,56.89,0,0,0-11.42,11c-5.08,6.61-4.14,13.06,2.24,18.48,3.92,3.32,8.6,5.78,12.41,9.21,4.28,3.84,8.63,7.9,11.75,12.66C100.35,316.87,104.55,323.74,115,321.25Z"/><path class="cls-1" d="M344.76,83.3C321.16,65.14,290.94,60.46,268.18,72A27.77,27.77,0,0,1,288.07,59C312.05,55.14,330.54,64.29,344.76,83.3Z"/><path class="cls-1" d="M261.21,467.89c14.41-14.2,30.71-19.84,49.28-19.19,2.42.08,4.78,2.17,7.07,4.33C298.8,457.06,282.25,468.12,261.21,467.89Z"/><path class="cls-1" d="M236.79,70.71c-27.8-10-52.62-5.07-76.16,13.06C178.86,53.21,222.83,51.3,236.79,70.71Z"/><path class="cls-1" d="M246.2,467.8c-21,.48-37.46-11.31-56.47-13.56,1.36-4.91,4.7-5.45,8.28-5.61,15.79-.71,29.68,4.29,42,14C241.74,464,243.42,465.49,246.2,467.8Z"/><path class="cls-1" d="M421.25,326.24c-3.71-8.36-.51-12,11.61-13.6-.8-7.21,3.15-10.24,10-11.14,2.62-.34,5-2.24,7.87-3.58-.1,3.62-2.48,5.65-5.75,6.31-5.75,1.17-9.5,3.5-8.71,10.25.08.69-2.67,2.37-4.17,2.46C424,317.44,423,318.08,421.25,326.24Z"/><path class="cls-1" d="M54.91,297.45c3,1.41,5.63,3.39,8.54,3.9,6.51,1.14,10.62,3.88,9.7,11,12.91,3.44,14.69,5.36,11.57,14.89-.33-9.75-5.73-10.56-12.07-10.49-1,0-3-2.51-2.93-3.72.48-5.4-2.14-7.39-7-8.29C58.73,304,55.08,302.27,54.91,297.45Z"/><path class="cls-1" d="M190,312.84l-11.45,5.62-1.18-1.22,8.47-11.11Z"/><path class="cls-1" d="M327.36,318.25l-11.95-5.58c1.38-2.3,2.55-4.24,3.9-6.47,3.11,3.73,6.1,7.29,9.08,10.86Z"/><path d="M274.44,300.74c-2.19,2.95-4.47,5.53-6.21,8.44-7.83,13.14-22.48,13.29-30.72.26-1.82-2.88-3.94-5.58-6.07-8.57,6.71-2.36,11-13.73,21.7-6.33C263,286.35,267.51,298,274.44,300.74Z"/><path d="M182.39,222.68c5.28,1.67,10.92,2.65,15.78,5.15,10.59,5.46,21,10.5,33.21,4.45-5.49,8.31-13.15,11.85-22.54,11-12.66-1.18-20.74-9.05-27.11-19.07Z"/><path d="M273,232.38c5.32.94,10,2.78,14.32,2.27,5.44-.64,10.9-2.71,15.92-5.07,6.48-3.05,12.89-5.75,21.06-6.19-7.41,11.12-15.81,19.25-29,20.05C286.21,244,279.2,239.67,273,232.38Z"/><path d="M317.16,203c-13,3.46-25.27,6.81-37.61,9.94-2.92.74-6.28.9-7.6-2.77-1.24-3.49,1-5.87,3.78-7.23C289.44,196.25,303.14,197.13,317.16,203Z"/><path d="M188,203.85c10.3-7.08,33.15-7.09,42.16,0,1.83,1.44,2.31,4.59,3.41,7-2.46.83-5.18,2.81-7.34,2.31-9.34-2.12-18.5-5.06-27.77-7.51C195.21,204.78,191.8,204.48,188,203.85Z"/><path d="M267.86,279.31c-7.48,7.36-21.93,7.5-28.57,1.5,3.26-5.28,8.66-4,12.64,2.29,3.11-1.81,6-4,9.28-5.2C262.75,277.33,265,278.63,267.86,279.31Z"/><path d="M115.87,300.13a7,7,0,0,1,7.46-6.79c3.22.26,5.84,1.59,5.56,5.5-.3,4.25-4.37,8.49-7.93,8.14C116.58,306.54,116.2,303.12,115.87,300.13Z"/><path d="M380.63,293.29c5.91-.21,9.1,2.5,9.11,6.42,0,3.19-.34,6.59-4.39,7.24-3.34.54-9.08-4.72-8.4-8.18C377.41,296.43,379.78,294.47,380.63,293.29Z"/><path d="M136.2,412.51c.57,5.13,1.12,10,1.68,14.92-5.45,1.16-9.49-1.35-10.32-6.78C126.76,415.43,129.11,413.16,136.2,412.51Z"/><path d="M368.43,428c.62-5.14,1.19-9.82,1.91-15.78,2.39,1,5.88,1.52,7.41,3.52,1.31,1.7,1.15,5.46.22,7.72C376.33,427.39,372.54,428.42,368.43,428Z"/><text class="cls-2" transform="translate(9.79 592.25)">- SPICE ISLAND -</text><text class="cls-3" transform="translate(136.2 650.25)">IN<tspan class="cls-4" x="45.61" y="0">D</tspan><tspan x="76.92" y="0">ONESIA</tspan></text></g></g></svg>