<?xml version="1.0" encoding="UTF-8"?>
<svg id="Layer_2" data-name="Layer 2" xmlns="http://www.w3.org/2000/svg" viewBox="0 0 58.42 57.02">
  <defs>
    <style>
      .cls-1 {
        fill: #c42127;
      }

      .cls-1, .cls-2, .cls-3, .cls-4, .cls-5, .cls-6, .cls-7, .cls-8, .cls-9, .cls-10, .cls-11, .cls-12, .cls-13, .cls-14, .cls-15, .cls-16, .cls-17, .cls-18, .cls-19, .cls-20, .cls-21, .cls-22, .cls-23 {
        stroke-width: 0px;
      }

      .cls-2 {
        fill: #233230;
      }

      .cls-3 {
        fill: #293832;
      }

      .cls-4 {
        fill: #f5dbaa;
      }

      .cls-5 {
        fill: #ea3432;
      }

      .cls-6 {
        fill: #eacf9d;
      }

      .cls-7 {
        fill: #e9d0a0;
      }

      .cls-8 {
        fill: #fcdeae;
      }

      .cls-9 {
        fill: #e1d1a6;
      }

      .cls-10 {
        fill: #fcddae;
      }

      .cls-11 {
        fill: #eb2f2e;
      }

      .cls-12 {
        fill: #1c3436;
      }

      .cls-13 {
        fill: #33443c;
      }

      .cls-14 {
        fill: #edd3a2;
      }

      .cls-15 {
        fill: #ecd09e;
      }

      .cls-16 {
        fill: #e3cd9f;
      }

      .cls-17 {
        fill: #143033;
      }

      .cls-18 {
        fill: #f2d6a6;
      }

      .cls-19 {
        fill: #223837;
      }

      .cls-20 {
        fill: #f0daaa;
      }

      .cls-21 {
        fill: #efd29f;
      }

      .cls-22 {
        fill: #1a3331;
      }

      .cls-23 {
        fill: #e3cb9b;
      }
    </style>
  </defs>
  <g id="Layer_1-2" data-name="Layer 1">
    <g>
      <path class="cls-4" d="m29.18,57.02c-12.65-.06-24.13-8.26-27.82-20.24C-1.42,27.78.08,19.33,5.67,11.76,10.17,5.66,16.25,1.86,23.73.5c13.96-2.53,26.8,4.78,32.18,16.41,4.69,10.15,2.71,22.39-4.95,30.56-4.56,4.86-10.12,7.89-16.69,9.02-1.67.29-3.39.36-5.08.53Zm-.51-1.29c5.77.08,11.33-1.44,16.02-4.57,7.66-5.12,12.04-12.25,12.5-21.52.39-7.86-2.39-14.62-7.93-20.15C42.94,3.2,35.22.56,26.36,1.36c-6.73.61-12.54,3.36-17.23,8.21C2.25,16.69-.27,25.21,2.06,34.86c2.92,12.08,14.11,20.7,26.61,20.87Z"/>
      <path class="cls-17" d="m28.67,55.73c-12.5-.17-23.7-8.79-26.61-20.87-2.33-9.65.19-18.17,7.08-25.29C13.83,4.72,19.64,1.97,26.36,1.36c8.85-.8,16.57,1.84,22.89,8.13,5.54,5.53,8.33,12.29,7.93,20.15-.46,9.27-4.84,16.4-12.5,21.52-4.69,3.13-10.25,4.64-16.02,4.57Zm2.43-49.97h0s-.09.07-.13.12h0l-.12.12-.12.12-.12.12h0l-.12.12h0l-.12.13s-.02.07-.05.09c-.56-.12-.19-.57-.32-.84,0-.03,0-.06.03-.07l.09-.13h0s.36-.45.36-.45h0l.12-.12h0c.65.12,1.14-.22,1.61-.58h.35s.12,0,.12,0c-.88-.78-2.61-.36-3.19.78-.16.32-.28.67-.44,1.06-.07-.18-.12-.28-.14-.39-.48-1.77-1.8-2.02-3.29-1.66-.04,0-.05.14-.07.22l1,.08.15.03.27.1s.06,0,.08.03l.15.07h0c-.16.46-.45.54-.9.36-.32-.12-.69-.13-1.04-.19l-.02.02-.03-.03c-.63-.18-1.25-.3-1.84.12l-1.02.55.04.09h.66l1.82.13,1.24.28-.81.8-.22-.05-.3-.08h-1.89s-.03,0-.03,0l-.42.08-.16.03-.64.21c-1.23.55-2.3,1.29-3.06,2.46,1.32-.84,2.67-1.62,4.26-1.8l.64.12-.58.85c-3.68.88-5.75,3.34-6.63,6.89-.3,1.22-.38,2.5-.65,3.74-.24,1.12-.47,2.26-.92,3.3-.51,1.15-1.71,1.29-2.6.38-.46-.49-.86-1.03-1.19-1.61-.87-1.39-1.31-3.01-1.27-4.65.02-1.01-.25-1.95-1.15-2.57-.71-.5-1.71-.41-2.18.19,1.61-.05,2.35.61,2.49,2.24.02.29,0,.58.04.86.2,2.41,1.26,4.67,2.97,6.38.9.92,2.23.91,3.05-.07.53-.62.91-1.41,1.2-2.19.33-.87.47-1.81.71-2.72.51-1.9,1.19-3.73,2.52-5.23.85-.97,1.86-1.71,3.16-1.96l.53-.12.02-.02.03.02c.92.04,1.83.08,2.75.13.63.03,1.26.09,1.89.11.19,0,.5.03.25-.33l-.2-.13-.35-1.49s0-.07,0-.1l1.19-.14h0c.03.09.06.17.09.25.03.03.04.07.03.1-.24.29-.08.46.19.59.06.18.12.35.22.61.1-.31.17-.54.26-.77.29-.73.52-1.48.88-2.17,1.1-2.12,2.7-2.91,5.06-2.58.24.02.48.02.72,0l-.23-.14h0s-.23-.12-.23-.12h0l-.18-.1s-.04,0-.05-.01c0,0,0,0,0-.01l-.48-.22h.01l-.37-.1h.01c-.6-.02-1.21-.1-1.8-.04-.33.03-.63.3-.95.47h0l-.23.14h.01s-.14.09-.14.09l-.19.14-.14.12Zm17.28,28.55h0l-.12.09h-.02s-.19.17-.19.17h0c-.51-.05-.57.3-.59.68h0l-.9.58c.02-.12.02-.25.02-.37-.02-.08-.05-.16-.09-.24.02-.07.03-.14.05-.21.05-.23.18-.47.14-.68-.05-.32.03-.47.34-.51l-.03.03.03-.02.35.37s.06,0,.07.03l.2-.05-.02.02.02-.67h0s-.1-.12-.1-.12l-.12-.12-.14-.1c-.6-.17-1.14-.37-1.52-.96-.32-.51-.89-.76-1.53-.79-1.84-.12-3.26,1.32-3.23,3.23.01.38-.01.76-.08,1.14-.38,1.92.49,3.87,2.16,4.88.35.21.76.35,1.14.51.04-.07.09-.13.13-.2-.29-.31-.56-.66-.88-.93-1.04-.87-1.81-1.91-1.86-3.3-.02-.99.04-1.98.16-2.96.09-.85.91-1.62,1.76-1.76.99-.17,1.7.16,2.18.99.07.17.15.34.22.51.02,0,.03.03.02.05,0,0,0,0,0,0,.05.17.09.35.14.52l-.02.03c-.08.5-.15.99-.23,1.49h0s-.12.13-.12.13h0s-.12.12-.12.12h0s-.27-.05-.27-.05h0l-.14-1.71h0c-.04-.06-.09-.14-.13-.22h.01s-.11-.13-.11-.13h0s-.12-.12-.12-.12h.01s-.15-.1-.15-.1c-.03,0-.06,0-.07-.03l-.14-.08h.01c-.3-.25-.6-.36-.9,0-.64.42-1.08.98-.99,1.79.08.73.53,1.2,1.23,1.42.11.03.22.07.32.1l.7.35h0l.24.12c1.12.25,1.58.13,2.14-.81.65-1.09,1.53-1.9,2.6-2.55.26-.17.49-.36.7-.59.65-.69.79-1.4.29-2.2-.35-.57-.8-1.07-1.32-1.48-.82-.62-1.75-1.1-2.63-1.65-.78-.48-1.47-1.04-1.47-2.11-.12.35-.19.7-.13,1.03.13.71.65,1.16,1.23,1.52.68.43,1.43.75,2.07,1.22.63.45,1.2.98,1.69,1.58.5.63.43,1.2-.15,1.75-.51.48-1.12.86-1.68,1.28l-.13.1Zm-33.84,2.24l.25-.12h0c.63-.3.9-.84.85-1.5-.04-.65-.43-1.23-1.03-1.5-.52-.25-1.14-.02-1.43.5s-.17,1.23.27,1.57c.38.28.94.16,1.38-.3.12-.13.23-.27.35-.41l.09.04c-.08.31-.15.61-.23.92h0s-.29.29-.29.29c-1.06.5-2.09.21-2.48-.7-.36-.82.06-2.46.81-2.98.28-.19.61-.31.94-.36,1.02-.15,1.75.35,2.31,1.16.4,1.33.39,2.71.28,4.07-.1,1.2-.9,2.07-1.8,2.83-.32.27-.56.62-.84.93l.12.13c.11,0,.21-.03.31-.06,1.2-.46,2.12-1.24,2.63-2.42.82-1.89.35-3.77-.15-5.64,0-.03-.05-.06-.07-.09-.81-1.46-2.56-2.04-3.81-1.17-.69.49-1.2,1.25-2.09,1.46-.06.02-.12.09-.17.15-.25.28-.24.53.06.73l1.06-.78c-.1,2.34.13,2.87,1.38,3.26l.23.04h.03s.61-.01.61-.01l.04.02.39-.11h0ZM31.11,8.18c3.07-1.3,5.84-.49,8.47,1.26-1.22-1.8-3.29-2.85-5.47-2.76-1.23.05-2.35.35-3.1,1.44l-.03.14.13-.07Zm11.14,40.37c-.18.26-.32.58-.56.76-.12.1-.42-.04-.64-.07.08-.14.17-.28.27-.4.09-.08.19-.15.3-.2v-.2c-.25-.06-.57-.22-.77-.14s-.41.41-.44.65c-.09.71.63,1.19,1.31.93.34-.13.7-.22,1.06-.27.78-.12,1.33-.71,1.28-1.42-.05-.65-.65-1.11-1.44-1.1-.12,0-.23-.01-.34-.02-.37-.66-.95-.91-1.69-.83-1.29.14-2.3,1.29-2.37,2.63-.03.67-.15,1.33-.23,1.99h-.17c-.56-.74-1.31-1.09-2.23-1.12-1.58-.05-1.66-.03-2.19.81,1.55.17,3.43-.65,4.25,1.57.19-.16.32-.23.38-.33.45-.86.98-1.7.83-2.75-.03-.27,0-.54.07-.8.23-.89,1.24-1.61,2.07-1.49.75.11,1.28.86,1.24,1.8ZM31.42,9.71l.15,1.15-1.27.56c.22.1.46.14.7.12.94-.05,1.88-.12,2.81-.16,2.63-.11,4.55,1.07,5.94,3.25,1.09,1.71,1.63,3.62,2.04,5.58.24,1.13.52,2.25,1.25,3.18,1.01,1.3,2.41,1.38,3.55.21,1.32-1.35,2.14-2.99,2.57-4.81.22-.91.2-1.86.35-2.79.17-1.09.95-1.72,2.03-1.73h.49c-.04-.06-.09-.11-.14-.16-1.09-.76-2.56-.23-3.04,1.16-.21.6-.24,1.27-.27,1.92-.1,2.25-.98,4.16-2.51,5.77-.84.89-1.9.72-2.56-.32-.21-.32-.36-.68-.45-1.05-.22-.97-.42-1.95-.58-2.93-.31-1.95-.56-3.91-1.49-5.7-1.56-2.99-4.66-4.72-7.84-4.34-.88.11-1.69.39-2.36,1.19l.62-.1Zm-2.35,4.04c-.49,2.59-1.21,4.06-2.68,5.56-1.28,1.31-2.85,2.11-4.55,2.71-1.01.36-1.43.87-1.42,1.85.04,2.15-.04,4.31.22,6.44.46,3.7,2.28,6.63,5.6,8.5,1.95,1.1,3.92,1.06,5.86-.04,2.92-1.67,4.77-4.22,5.28-7.5.39-2.5.3-5.08.37-7.63.02-.67-.38-1.19-1.04-1.45-.37-.15-.75-.28-1.13-.43-3.62-1.46-5.89-4.03-6.51-8.01h0Zm.16,39.58c2.45-2.06,4.59-4.35,6.19-7.11.46-.79.43-.79-.21-1.47-.44-.47-.98-.92-1.23-1.48s-.25-1.27-.29-1.91c-.04-.81-.01-1.62-.01-2.57-1.45,1.04-2.87,1.71-4.52,1.73s-3.09-.69-4.51-1.65c0,1.1,0,2.08,0,3.06,0,.95-.28,1.77-1.03,2.4-.38.32-.76.65-1.09.93,1.16,2.58,3.94,5.9,6.71,8.06Zm19.93-21.94c-.55-.19-1.09-.3-1.55-.55-.49-.26-.93-.6-1.3-1.02-1.86-2.16-6.7-1.17-7.33,2.27-.28,1.51-.46,3.06-.6,4.59-.25,2.84,1.35,5.1,4.03,6.07.97.35,1.88.76,2.62,1.5.09.07.19.14.29.19-.13-.86-.55-1.46-1.41-1.94-.5-.28-1.05-.46-1.57-.7-2.36-1.07-3.7-3.44-3.16-5.83.25-1.11.32-2.23.45-3.34.17-1.38.91-2.4,2.26-2.86,1.37-.46,2.7-.55,3.83.63.38.38.8.71,1.27.97.7.4,1.42.34,2.18.02h0Zm-40-.08c.09.1.11.13.14.15.07.04.14.07.21.09,1.25.37,2.17-.22,2.95-1.08,1.1-1.2,2.4-1.19,3.8-.77,1.4.42,2.17,1.42,2.38,2.82.18,1.22.07,2.49.58,3.66.02.08.03.15.02.23.17,2.46-1.22,4.61-3.51,5.52-.67.27-1.3.61-1.9,1.02-.48.32-.76.86-.76,1.44.9-.92,2.05-1.32,3.2-1.76,2.33-.89,3.89-3.21,3.69-5.68-.13-1.61-.36-3.23-.64-4.81-.63-3.59-5.28-4.25-6.93-2.64-.91.88-1.83,1.71-3.22,1.81h0Zm11.46,19.55l-.2.02c-.1-.63-.22-1.26-.28-1.89-.12-1.14-.61-2.01-1.64-2.53-.78-.4-1.73-.27-2.23.31-.18.24-.47.37-.77.35-.6,0-1.11.44-1.2,1.04-.08.6.35,1.27.95,1.39.53.1,1.05.15,1.56.4.21.1.75-.12.92-.35s.13-.69.06-1.01c-.03-.14-.39-.25-.61-.29-.11-.02-.25.18-.38.28.12.13.26.25.37.39.06.08.14.19.12.27s-.18.22-.22.2c-.22-.08-.48-.16-.62-.32-.42-.48-.42-1.27-.05-1.76.38-.54,1.08-.74,1.7-.5.86.31,1.47,1.1,1.38,2.04-.1,1.12.4,2.01.89,2.91.08.14.31.2.5.31.35-1.15,1.14-1.53,2.17-1.53h1.99c-.35-.56-.7-.84-1.36-.82-1.16.02-2.28.05-3.05,1.11Zm2.39-2.79c-.71-1.23-1.18-2.5-2.18-3.43-1.28-1.19-2.97-1.57-4.34-.81-1.17.65-2.27,1.47-3.33,2.3-.73.57-.78,1.51-.25,2.23-.08-1.03.44-1.65,1.24-2.13.66-.38,1.29-.8,1.9-1.26.95-.75,1.97-.88,3.08-.45,1.3.5,2.02,1.52,2.5,2.76.32.83.32.83,1.38.8Zm22.47.25c.55-1.05.15-2.07-.89-2.64-.55-.3-1.11-.61-1.56-1.04-1.36-1.31-3.12-1.53-4.74-.56-1.53.92-2.1,2.5-2.9,3.98,1.07.06,1.06.05,1.41-.84.15-.37.32-.74.53-1.08,1.04-1.73,3.46-2.7,5.32-.87.31.31.68.56,1.08.74,1,.42,1.76,1.01,1.75,2.31ZM12.75,25.82c0,.86-.45,1.43-1.11,1.86s-1.38.76-2,1.24c-.75.58-1.53,1.17-2.12,1.89-.72.89-.53,1.82.34,2.59.32.28.66.52,1.02.75.79.5,1.46,1.18,1.96,1.98.27.41.62.76,1.03,1.04.46.31,1.05.17,1.49-.29-1.19.38-1.7-.3-2.24-1.11-.41-.62-1-1.14-1.54-1.67-.3-.29-.69-.48-1.03-.74-1.11-.84-1.21-1.65-.28-2.71.32-.36.68-.67,1.08-.93.52-.35,1.12-.59,1.63-.95.59-.41,1.18-.85,1.65-1.38.38-.42.5-1.01.12-1.57Zm23.84,26.46c.01-.08.03-.15.05-.23-.32-.14-.64-.35-.98-.4-.39-.06-.81,0-1.2.06-1.66.21-3.09.89-4.36,2.16,2.4.08,4.32-1.26,6.49-1.58h0Zm-8.33,1.47c-.3-.23-.59-.48-.89-.71-1.36-.98-2.88-1.48-4.57-1.4-.41.02-.79.1-.95.66,2.21.25,4.11,1.62,6.41,1.45h0ZM6.35,34.22l-.12.07c.23.24.43.64.69.68.85.15,1.24.56,1.15,1.42,0,.02.04.05.05.06.4.05.83,0,1.13.17.28.16.42.56.6.82.37-.82.09-1.14-1.36-1.46-.14-1.02-.15-1.01-1.14-1.29-.36-.1-.67-.31-1.01-.48Zm42.21,3.32c.18-.92.29-1.02,1.24-1.03.3,0,.55-.02.5-.42-.08-.62.2-.9.81-1.01.43-.08.85-.28.82-.81-.3.15-.59.35-.91.43-1.05.29-1.05.28-1.19,1.29-1.36.15-1.82.71-1.27,1.54Zm-10.8-.88l.12-.14-1.07-1.28-.46.76,1.41.65Zm-16.33-1.44l-.99,1.34.15.13,1.32-.67-.48-.79Z"/>
      <path class="cls-10" d="m29.07,13.75c.62,3.98,2.89,6.54,6.51,8.01.37.15.75.28,1.13.43.66.26,1.06.78,1.04,1.45-.07,2.55.02,5.13-.37,7.63-.51,3.28-2.36,5.83-5.28,7.5-1.93,1.1-3.9,1.14-5.86.04-3.32-1.87-5.14-4.8-5.6-8.5-.26-2.12-.19-4.29-.22-6.44-.02-.98.4-1.5,1.42-1.85,1.7-.6,3.27-1.4,4.55-2.71,1.47-1.5,2.19-2.97,2.68-5.56Zm1.12,18.88l.36-.15c.35-.18.22-.41-.04-.45-.29-.05-.61.06-.91.1l-.12.11h0l-.37.48c-.51-.86-1.15-1.01-1.58-.36.6.45,1.27.54,1.99.44h.03s.03,0,.03,0l.63-.17h-.02Zm1.15,1.91l-.13-.13c-.82-.92-1.13-1-2.09-.54-.48-.43-.97-.35-1.45.01-.29.22-.56.46-.84.69l-.29.09.52.47c.4.75.79,1.5,1.79,1.6,1.15.11,1.7-.28,2.33-1.61l.59-.49-.4-.12-.02.03Zm5.94-8.75l-.06-.2c-.76.29-1.55.5-2.26.87-1.06.56-2.1.78-3.23.29-.07-.01-.14-.01-.21,0,1.43,2.05,4.35,1.54,5.77-.97h0Zm-16.27-.19c.62,1.51,2.06,2.46,3.36,2.43,1-.02,1.95-.56,2.3-1.36-1.3.68-2.43.28-3.58-.32-.65-.34-1.38-.51-2.07-.75h0Zm.62-2.13c.46.07.84.1,1.21.2,1.05.28,2.1.59,3.14.88.38.11.82.12.91-.31.05-.24-.2-.65-.43-.82-1.1-.79-3.61-.76-4.84.05h0Zm14.91.01c-1.55-.78-3.09-.87-4.63-.21-.38.16-.75.43-.58.92.19.51.65.38,1.04.28.83-.22,1.65-.5,2.48-.71.56-.14,1.13-.2,1.69-.29h0Z"/>
      <path class="cls-8" d="m29.23,53.33c-2.76-2.17-5.54-5.48-6.7-8.07.33-.28.71-.61,1.09-.93.75-.63,1.04-1.45,1.03-2.4,0-.98,0-1.96,0-3.06,1.42.96,2.84,1.66,4.51,1.65s3.07-.68,4.52-1.73c0,.94-.03,1.76.01,2.57.03.64.03,1.34.29,1.91s.79,1.01,1.23,1.48c.64.68.67.68.21,1.47-1.59,2.77-3.74,5.05-6.19,7.11Z"/>
      <path class="cls-18" d="m27.4,9.66s.01.07,0,.1c-1.05-.1-2.09-.3-3.14-.28-2.37.02-4.35.91-5.74,2.91l-.1.15s-.03.02-.03.04c0,0,0,0,0,0-.04.06-.07.12-.12.17h0s-.09.13-.09.13c-.02,0-.04.03-.03.06l-.1.17h0l-1.04,2.24.15.07,1.04-1.79.02-.02.1-.14h0s.11-.13.11-.13c.16-.17.31-.33.47-.5,1.07-1.13,2.34-1.91,3.89-2.17,1.67-.3,3.39-.1,4.95.57l.21.14c-.1.06-.2.18-.3.18-.59-.03-1.17-.12-1.76-.12-.94-.01-1.88.03-2.82.04l-.03-.02-.02.02-.53.12c-1.31.24-2.31.98-3.16,1.96-1.33,1.51-2.01,3.33-2.52,5.23-.24.91-.39,1.84-.71,2.72-.29.77-.68,1.56-1.2,2.19-.83.98-2.15.99-3.05.07-1.72-1.71-2.78-3.98-2.98-6.4-.03-.29-.01-.58-.04-.86-.14-1.63-.88-2.29-2.5-2.24.46-.59,1.46-.69,2.18-.18.9.62,1.17,1.57,1.15,2.57-.04,1.64.4,3.26,1.27,4.65.34.58.74,1.12,1.19,1.61.88.91,2.08.78,2.6-.38.46-1.04.69-2.18.92-3.3.26-1.23.35-2.51.65-3.74.88-3.55,2.94-6.01,6.63-6.89.23-.02.46-.04.69-.06,1.39-.09,2.71.09,3.79,1.09Z"/>
      <path class="cls-18" d="m31.43,9.71l-.63.1c.68-.8,1.49-1.08,2.36-1.19,3.18-.38,6.29,1.36,7.84,4.34.93,1.79,1.17,3.75,1.49,5.7.16.98.36,1.96.58,2.93.09.37.24.73.45,1.05.66,1.04,1.71,1.21,2.56.32,1.53-1.6,2.41-3.52,2.51-5.77.03-.65.06-1.32.27-1.92.48-1.4,1.96-1.92,3.04-1.16.05.05.1.1.14.16h-.49c-1.09.01-1.86.64-2.03,1.73-.15.92-.13,1.88-.35,2.79-.43,1.81-1.25,3.46-2.57,4.81-1.14,1.17-2.54,1.09-3.55-.21-.72-.93-1.01-2.05-1.25-3.18-.41-1.96-.95-3.87-2.04-5.58-1.38-2.17-3.31-3.36-5.94-3.25-.94.04-1.88.12-2.81.16-.24.02-.48-.02-.7-.12l1.27-.56.47-.13h0l.67-.12.33-.03c.23,0,.46,0,.69,0,1.91-.09,3.6.47,5.06,1.74.09.07.17.14.25.21h0s.17.18.17.18l.02-.02-.02.02.12.12.02-.03-.02.02.12.12.02-.03-.02.03.17.18h0s.1.13.1.13h0l.12.14h-.01s.11.13.11.13h-.01s.16.19.16.19h0l.1.16c.04.06.08.13.13.19l.74,1.32.13-.06-.59-1.45c-.14-.28-.27-.57-.41-.85-.03-.04-.06-.09-.09-.13h0s-.12-.16-.12-.16c0-.02,0-.05-.03-.06,0,0,0,0,0,0l-.09-.13h0s-.12-.16-.12-.16c0-.02,0-.05-.03-.05,0,0,0,0,0,0l-.1-.13h0s-.12-.14-.12-.14c-1.02-1.34-2.39-2.1-4.03-2.38h-.23l-1.15-.15-2.1.1-.22.04h-.12s-.24.06-.24.06Z"/>
      <path class="cls-21" d="m49.16,31.39c-.76.32-1.49.38-2.17-.03-.46-.27-.89-.59-1.27-.97-1.13-1.18-2.46-1.09-3.83-.63-1.35.46-2.09,1.48-2.26,2.86-.14,1.12-.2,2.23-.45,3.34-.54,2.39.81,4.76,3.16,5.83.52.24,1.07.42,1.57.7.86.48,1.28,1.08,1.41,1.94-.1-.06-.2-.12-.29-.19-.74-.73-1.65-1.15-2.62-1.5-2.68-.97-4.28-3.23-4.03-6.07.13-1.53.32-3.08.6-4.59.63-3.44,5.47-4.43,7.33-2.27.37.41.81.76,1.31,1.02.46.26,1,.37,1.55.55Z"/>
      <path class="cls-21" d="m9.16,31.3c1.38-.1,2.3-.93,3.21-1.81,1.65-1.61,6.3-.95,6.93,2.64.28,1.58.5,3.2.64,4.81.21,2.47-1.35,4.79-3.69,5.68-1.15.44-2.3.84-3.2,1.76,0-.58.29-1.12.77-1.44.6-.41,1.24-.75,1.91-1.02,2.29-.92,3.68-3.06,3.51-5.52,0-.08,0-.16-.02-.23-.5-1.18-.39-2.44-.58-3.66-.21-1.39-.97-2.39-2.38-2.82s-2.71-.44-3.8.77c-.78.86-1.7,1.45-2.95,1.08-.07-.02-.14-.05-.21-.09-.04-.01-.06-.05-.15-.15Z"/>
      <path class="cls-14" d="m31.24,5.64l.19-.14.14-.1h-.01s.23-.12.23-.12h0c.86-.41,1.81-.55,2.75-.42h-.01s.37.09.37.09h-.01l.48.21s.02.03.04.03c0,0,0,0,.01,0l.18.1h0l.23.13h0s.23.14.23.14c-.24.02-.48.02-.72,0-2.36-.33-3.96.46-5.06,2.58-.36.69-.59,1.44-.88,2.17-.09.23-.16.46-.26.77-.09-.26-.15-.44-.22-.61l-.19-.59s0-.08-.03-.1l-.09-.25h0c-.44-1.43-1.08-2.72-2.45-3.51l-1.24-.28c-.58-.42-1.2-.22-1.82-.13h-.66l-.04-.09,1.01-.55,1.84-.13.02.02.02-.02c1.54.42,2.6,1.44,3.4,2.79-.03-.37-.09-.73-.18-1.08-.2-.77-.49-1.49-1.28-1.87h0l-.14-.07s-.05-.04-.07-.03l-.27-.1-.15-.03-1-.08c.02-.08.03-.21.07-.22,1.49-.36,2.82-.12,3.29,1.65.03.12.08.21.14.39.16-.39.27-.73.44-1.06.58-1.14,2.32-1.56,3.19-.78-.04-.02-.08-.02-.12,0h-.35c-.62-.03-1.17.13-1.61.58h0l-.12.12h0l-.36.46h0s-.09.13-.09.13c-.03.01-.04.05-.03.07l-.65,2,.16.05.81-1.22s.05-.05.05-.09l.12-.13h0l.12-.12h0l.12-.12.12-.12.12-.12h0s.08-.07.13-.12v.02s.13-.12.13-.12Z"/>
      <path class="cls-7" d="m20.62,50.85c.77-1.07,1.88-1.09,3.05-1.12.66-.01,1.01.27,1.36.82h-1.99c-1.04,0-1.82.38-2.18,1.54-.19-.12-.42-.17-.5-.31-.5-.91-.99-1.79-.89-2.91.08-.94-.52-1.73-1.38-2.04-.61-.24-1.31-.04-1.69.49-.37.5-.37,1.28.05,1.76.15.17.4.25.62.32.05.02.2-.12.22-.2s-.06-.19-.12-.27c-.12-.14-.25-.26-.37-.39.13-.1.27-.3.38-.28.22.03.58.14.61.29.08.32.12.77-.06,1.01s-.7.46-.92.35c-.51-.25-1.03-.3-1.56-.4-.61-.12-1.03-.79-.95-1.39.08-.6.59-1.04,1.2-1.04.3.02.59-.11.77-.35.5-.58,1.45-.71,2.23-.31,1.02.52,1.53,1.39,1.64,2.53.06.63.19,1.26.28,1.89h.2Zm-4.91-3.36c-.77.05-1.06.3-1.01.86.05.65.5.96,1.21.88-.07-.56-.13-1.13-.2-1.74Z"/>
      <path class="cls-6" d="m45.74,33c-.48-.83-1.19-1.15-2.18-.99-.84.14-1.66.91-1.76,1.76-.12.99-.18,1.98-.16,2.97.05,1.39.82,2.43,1.86,3.3.32.27.59.62.88.93-.04.07-.09.13-.13.2-.38-.17-.78-.3-1.14-.51-1.67-1.01-2.53-2.96-2.16-4.88.07-.38.09-.76.08-1.14-.04-1.92,1.38-3.34,3.23-3.23.63.04,1.2.29,1.53.79.38.59.92.79,1.52.96l.14.1.12.12.1.13h0s-.02.65-.02.65l.02-.02-.2.06s-.04-.03-.07-.03l-.35-.37-.03.02.03-.03-.62-.3-.32.23-.12-.18s0-.04,0-.05c0,0,0,0,0,0-.08-.17-.16-.34-.23-.51Z"/>
      <path class="cls-15" d="m23,48.06c-1.07.03-1.06.03-1.38-.8-.48-1.24-1.2-2.27-2.5-2.76-1.11-.43-2.12-.29-3.08.45-.61.46-1.24.88-1.9,1.26-.8.48-1.32,1.1-1.24,2.13-.53-.71-.48-1.66.25-2.23,1.06-.83,2.16-1.64,3.33-2.3,1.37-.76,3.06-.38,4.34.81,1,.94,1.47,2.21,2.18,3.43Z"/>
      <path class="cls-21" d="m45.48,48.31c.01-1.3-.75-1.89-1.75-2.32-.4-.18-.77-.43-1.08-.74-1.87-1.83-4.29-.86-5.32.87-.2.35-.38.71-.53,1.08-.35.9-.35.9-1.41.84.81-1.48,1.38-3.06,2.9-3.98,1.62-.97,3.37-.75,4.74.56.44.43,1.01.74,1.56,1.04,1.05.57,1.45,1.59.9,2.64Z"/>
      <path class="cls-12" d="m18.17,12.94s0-.05.03-.06l.09-.14h0s.07-.1.12-.16c0-.02,0-.04.02-.05,0,0,0,0,0,0l.1-.15c1.39-2.01,3.37-2.89,5.74-2.91,1.04-.01,2.09.18,3.14.28l.35,1.49c-1.56-.67-3.28-.87-4.95-.57-1.56.26-2.82,1.04-3.89,2.17-.16.17-.31.33-.47.5l-.11.14h0s-.1.13-.1.13l-.02.02c-.05-.18-.1-.35-.16-.53h0l.1-.17Z"/>
      <path class="cls-6" d="m42.25,48.55c.03-.94-.49-1.69-1.25-1.8-.83-.12-1.84.6-2.07,1.49-.07.26-.1.53-.07.8.14,1.05-.38,1.89-.83,2.75-.06.11-.19.17-.38.33-.82-2.22-2.7-1.4-4.25-1.57.53-.84.61-.86,2.19-.81.92.03,1.67.38,2.23,1.13h.17c.08-.67.2-1.33.23-2,.07-1.34,1.08-2.49,2.37-2.63.73-.08,1.31.17,1.69.83l.23.5-.05,1.37-.2-.39Z"/>
      <path class="cls-16" d="m12.75,25.82c.38.56.26,1.14-.12,1.57-.47.53-1.07.97-1.65,1.38-.51.36-1.11.6-1.63.95-.4.26-.76.58-1.08.93-.93,1.06-.83,1.87.28,2.71.34.25.73.45,1.03.74.55.52,1.13,1.04,1.54,1.67.54.81,1.05,1.49,2.24,1.11-.44.46-1.02.6-1.49.29-.41-.27-.76-.63-1.03-1.04-.49-.8-1.16-1.48-1.96-1.98-.36-.22-.7-.47-1.02-.75-.87-.77-1.06-1.7-.34-2.59.59-.73,1.36-1.32,2.12-1.89.62-.47,1.34-.81,2-1.24s1.11-1,1.11-1.86Z"/>
      <path class="cls-23" d="m48.51,34.2c.57-.42,1.18-.8,1.68-1.28.58-.55.65-1.12.15-1.75-.49-.61-1.06-1.14-1.69-1.6-.64-.47-1.39-.8-2.07-1.22-.58-.36-1.1-.81-1.23-1.52-.06-.32.02-.67.13-1.03,0,1.08.68,1.63,1.47,2.11.88.54,1.8,1.03,2.63,1.65.53.41.97.91,1.32,1.48.5.8.36,1.51-.29,2.2-.21.23-.44.43-.7.59-1.07.65-1.95,1.45-2.6,2.55-.56.94-1.03,1.06-2.14.81l-.24-.12h0c.09-.04.19-.12.26-.1.75.21,1.26-.1,1.65-.71.21-.34.42-.68.63-1.02h0l.59-.68h0l.19-.15h.02s.12-.11.12-.11h0l.13-.1Z"/>
      <path class="cls-12" d="m26.14,6.01c1.36.79,2,2.08,2.45,3.51l-1.19.14c-1.08-1-2.4-1.18-3.79-1.09-.23.01-.46.04-.69.06l.58-.85-.64-.12c1.51-.28,3.08-.1,4.49.51-.53-.77-1.27-1.07-2.01-1.36l.81-.79Z"/>
      <path class="cls-19" d="m38.79,12.32c-1.45-1.27-3.14-1.83-5.06-1.75-.23.01-.46,0-.69,0l-.33.03-.67.12-.13-.19-.07.06.19.13-.47.13-.15-1.15.25-.03h.12s.22-.05.22-.05c.13.16.23.39.39.47.3.15.62.25.95.32.17.03.34.04.51.03.1-.37.17-.65.24-.92l1.14.15h.23c1.65.28,3.02,1.04,4.05,2.38l.12.14h0s.1.12.1.12c.02,0,.04.03.03.05,0,0,0,0,0,0l.12.17h0s.09.12.09.12c.02,0,.04.03.03.06,0,0,0,0,0,0l.12.16h0s.06.08.09.12c.14.28.27.57.41.85l-.28.19c-.04-.06-.08-.13-.13-.19l-.1-.16h0l-.16-.2h.01s-.11-.13-.11-.13h.01s-.12-.12-.12-.12h0l-.1-.12h0s-.17-.18-.17-.18l.02-.03-.02.03-.12-.12.02-.02-.02.03-.12-.12.02-.02-.02.02-.17-.17h0c-.1-.09-.18-.16-.27-.22Z"/>
      <path class="cls-14" d="m16.8,32.93s.06.05.07.09c.5,1.87.97,3.75.15,5.64-.51,1.18-1.44,1.96-2.63,2.42-.1.03-.21.05-.31.06l-.12-.13c.28-.31.52-.66.84-.93.9-.76,1.7-1.63,1.8-2.83.11-1.35.12-2.73-.28-4.07l.48-.24Z"/>
      <path class="cls-14" d="m31.01,8.1c.75-1.08,1.88-1.38,3.1-1.44,2.18-.08,4.24.96,5.47,2.76-2.64-1.75-5.4-2.56-8.47-1.26l-.1-.07Z"/>
      <path class="cls-18" d="m36.6,52.28c-2.17.32-4.09,1.66-6.49,1.58,1.27-1.27,2.7-1.95,4.36-2.16.4-.05.81-.12,1.2-.06.34.05.65.26.98.4-.01.08-.03.16-.05.23Z"/>
      <path class="cls-14" d="m25.33,6.81c.75.29,1.49.59,2.01,1.36-1.41-.61-2.98-.78-4.49-.51-1.59.18-2.94.96-4.26,1.8.77-1.17,1.84-1.91,3.07-2.46l.64-.21.16-.03.42-.08h.03s1.86,0,1.86,0h.03l.3.08.23.05Z"/>
      <path class="cls-20" d="m28.27,53.75c-2.3.17-4.21-1.19-6.41-1.45.15-.55.53-.64.95-.66,1.69-.08,3.21.42,4.57,1.4.31.22.6.47.89.71Z"/>
      <path class="cls-23" d="m16.8,32.93l-.48.24c-.56-.81-1.29-1.31-2.31-1.16-.34.05-.66.17-.94.36-.74.51-1.16,2.15-.81,2.98.39.91,1.42,1.2,2.48.7.01.13.03.26.04.39h0l-.25.12h.01s-.39.1-.39.1l-.04-.02h-.64s-.23-.03-.23-.03c-1.25-.4-1.49-.92-1.38-3.26l-1.06.78c-.3-.2-.31-.45-.06-.73.05-.06.11-.13.17-.15.89-.22,1.4-.98,2.09-1.46,1.24-.87,3.01-.29,3.8,1.17Z"/>
      <path class="cls-9" d="m46.09,33.73l.32-.23c.04.5.09,1,.13,1.5-.02.07-.04.14-.05.21-.42,1.01-1.16,1.53-2.26,1.51-.11-.03-.22-.07-.32-.1-.7-.22-1.15-.69-1.23-1.42-.09-.81.35-1.36.99-1.79h.9-.01s.14.07.14.07c.01.02.04.04.07.03l.15.12h-.01s.12.11.12.11h0s.11.13.11.13h-.01c.04.06.09.14.13.22h0c.01.12.07.27.03.38-.16.37-.28.89-.57,1.03s-.77-.1-1.14-.23c-.18-.06-.3-.27-.49-.45.06.63.23,1.16.85,1.4.65.25,1.23.12,1.74-.37h0s.12-.14.12-.14h0s.12-.13.12-.13h0c.37-.44.4-.95.23-1.48l.02-.03-.04-.34Zm-2.19.02c-.11.13-.39.35-.46.61-.1.38.54,1.01.94.98.46-.03.51-.4.54-.75.03-.49-.31-.83-1.02-.84h0Z"/>
      <path class="cls-9" d="m42.25,48.55l.21.39-.07.32c.73.03,1.13-.21,1.27-.73s-.1-.83-.58-1l-.24-.35-.11.08.22.25-.44.05-.23-.5c.12,0,.23.02.34.02.79-.01,1.38.44,1.44,1.1.06.71-.5,1.31-1.28,1.42-.36.05-.72.14-1.06.27-.67.26-1.4-.22-1.31-.93.03-.24.23-.56.44-.65s.51.08.78.14v.2c-.12.05-.22.12-.31.2-.1.13-.19.26-.27.4.22.03.52.16.64.07.23-.19.37-.5.56-.76Z"/>
      <path class="cls-9" d="m14.78,36.43l-.04-.39.29-.28.06.05-.05-.05c.08-.31.15-.61.23-.92l-.09-.04c-.12.14-.22.28-.35.41-.44.46-1.01.59-1.38.3-.44-.34-.57-1.05-.27-1.57s.91-.75,1.43-.5c.59.27.99.85,1.03,1.5.05.66-.22,1.19-.85,1.49Zm-.36-2.66c-.66-.02-1.04.31-1.05.75-.02.47.23.82.61.82.41,0,.94-.53.87-.98-.04-.25-.32-.46-.42-.59Z"/>
      <path class="cls-16" d="m6.35,34.22c.33.16.65.38,1,.48,1,.28,1,.26,1.14,1.29,1.45.32,1.73.64,1.36,1.46-.18-.26-.32-.66-.6-.82-.31-.17-.74-.12-1.13-.17,0,0-.05-.04-.05-.06.1-.86-.3-1.27-1.15-1.42-.26-.04-.46-.44-.69-.68l.13-.07Z"/>
      <path class="cls-9" d="m48.56,37.54c-.55-.83-.08-1.39,1.27-1.54.14-1.01.14-.99,1.19-1.29.32-.09.61-.28.91-.43.02.53-.4.73-.82.81-.61.11-.89.39-.81,1.01.05.4-.2.41-.5.42-.95,0-1.06.11-1.24,1.03Z"/>
      <path class="cls-19" d="m27.21,4.67c.78.38,1.07,1.1,1.28,1.87.09.36.15.72.18,1.08-.81-1.35-1.86-2.36-3.4-2.79.35.06.72.07,1.04.19.45.17.74.1.9-.36Z"/>
      <path class="cls-3" d="m44.23,36.73c1.1.02,1.84-.51,2.26-1.51.04.08.07.16.09.24,0,.12,0,.25-.02.37l.9-.58c-.21.34-.41.68-.63,1.02-.39.61-.9.91-1.65.71-.07-.02-.17.06-.26.1l-.7-.35Z"/>
      <path class="cls-3" d="m45.65,35.86c-.5.49-1.09.62-1.74.37-.62-.24-.79-.77-.85-1.4.19.18.31.39.49.45.37.13.86.36,1.14.23s.41-.66.57-1.03c.05-.11-.01-.26-.03-.4l.15,1.72h-1.31c0,.08.01.15.02.23.47.23.89.1,1.3-.23l.26.06Z"/>
      <path class="cls-16" d="m37.75,36.65l-1.42-.65.46-.76,1.07,1.28-.11.14Z"/>
      <path class="cls-9" d="m21.42,35.21l.48.79-1.32.67-.15-.13.99-1.34Z"/>
      <path class="cls-12" d="m23.08,11.49c.94-.02,1.88-.05,2.82-.04.59,0,1.17.09,1.76.12.1,0,.2-.12.3-.18.24.36-.07.34-.25.33-.63-.02-1.26-.08-1.89-.11-.91-.04-1.83-.08-2.75-.12Z"/>
      <path class="cls-3" d="m30.36,6.55l-.81,1.22-.16-.05.65-2.02c.13.28-.24.73.32.85Z"/>
      <path class="cls-3" d="m30.63,4.94c.45-.45,1-.61,1.61-.58-.48.36-.96.71-1.61.58Z"/>
      <path class="cls-3" d="m34.53,4.86c-.94-.13-1.89.01-2.74.42.32-.16.62-.43.95-.47.59-.06,1.19.02,1.79.05Z"/>
      <path class="cls-3" d="m46.54,35c-.04-.5-.09-1-.13-1.5l.62.3c-.31.04-.39.19-.34.51.04.21-.09.45-.14.68Z"/>
      <path class="cls-19" d="m25.22,4.84l-1.84.13c.59-.43,1.21-.31,1.84-.13Z"/>
      <path class="cls-12" d="m23.07,5.61c.62-.09,1.24-.3,1.82.13l-1.82-.13Z"/>
      <path class="cls-3" d="m46.09,34.11c.17.53.14,1.04-.23,1.49.08-.5.15-.99.23-1.49Z"/>
      <path class="cls-22" d="m24.76,6.69h-1.86s1.86,0,1.86,0Z"/>
      <path class="cls-3" d="m48.05,34.56l-.59.68c.02-.38.08-.73.59-.68Z"/>
      <path class="cls-3" d="m44.56,33.41h-.91c.31-.37.61-.25.91,0Z"/>
      <path class="cls-12" d="m28.7,9.88l.19.59c-.27-.13-.43-.29-.19-.59Z"/>
      <path class="cls-19" d="m25.57,4.36l1,.08-1-.08Z"/>
      <path class="cls-3" d="m30.16,5.5l.36-.46-.36.46Z"/>
      <path class="cls-3" d="m47.03,33.81l.35.37-.35-.37Z"/>
      <path class="cls-12" d="m22.3,6.79l-.64.21.64-.21Z"/>
      <path class="cls-3" d="m35.36,5.17l-.48-.22.48.22Z"/>
      <path class="cls-3" d="m47.64,34.17l.02-.67-.02.67Z"/>
      <path class="cls-3" d="m45.74,33c.07.17.15.34.22.51-.07-.17-.15-.33-.22-.51Z"/>
      <path class="cls-12" d="m22.5,11.6l.53-.12-.53.12Z"/>
      <path class="cls-3" d="m46.09,33.73l.02.35c-.05-.18-.09-.35-.14-.52l.12.18Z"/>
      <path class="cls-12" d="m22.88,6.69l-.42.08.42-.08Z"/>
      <path class="cls-9" d="m14.15,36.64l.39-.11-.39.11Z"/>
      <path class="cls-3" d="m34.89,4.95l-.37-.1.37.1Z"/>
      <path class="cls-3" d="m48.24,34.42l-.19.15.19-.15Z"/>
      <path class="cls-3" d="m44.92,37.07l.24.12-.24-.12Z"/>
      <path class="cls-19" d="m26.72,4.48l.27.1-.27-.1Z"/>
      <path class="cls-9" d="m13.25,36.59l.23.04-.23-.04Z"/>
      <path class="cls-12" d="m28.58,9.52c.03.09.06.17.09.25-.03-.08-.06-.17-.09-.25Z"/>
      <path class="cls-3" d="m31.79,5.28l-.23.13.23-.13Z"/>
      <path class="cls-3" d="m35.81,5.41l-.23-.13.23.13Z"/>
      <path class="cls-12" d="m25.1,6.76l-.3-.08.3.08Z"/>
      <path class="cls-3" d="m36.03,5.55l-.23-.14.23.14Z"/>
      <path class="cls-9" d="m14.53,36.54l.25-.12-.25.12Z"/>
      <path class="cls-3" d="m45.24,34.1c-.04-.08-.09-.16-.13-.23.04.07.09.15.13.23Z"/>
      <path class="cls-3" d="m47.45,34.21l.2-.05-.2.05Z"/>
      <path class="cls-3" d="m32.6,4.36s.08-.02.12,0h-.12Z"/>
      <path class="cls-3" d="m30.51,5.05l.12-.12-.12.12Z"/>
      <path class="cls-3" d="m35.58,5.29l-.18-.1.18.1Z"/>
      <path class="cls-3" d="m45.02,33.75l-.12-.12.12.12Z"/>
      <path class="cls-3" d="m44.91,33.64l-.15-.12.15.12Z"/>
      <path class="cls-3" d="m45.76,35.72l-.12.13.12-.13Z"/>
      <path class="cls-3" d="m45.87,35.6l-.12.13.12-.13Z"/>
      <path class="cls-3" d="m47.45,33.27l-.14-.1.14.1Z"/>
      <path class="cls-3" d="m48.37,34.31l-.12.09.12-.09Z"/>
      <path class="cls-3" d="m44.69,33.49l-.14-.08.14.08Z"/>
      <path class="cls-3" d="m48.51,34.2l-.13.1.13-.1Z"/>
      <path class="cls-14" d="m31.11,8.18l-.13.06.03-.14.1.07Z"/>
      <path class="cls-3" d="m47.67,33.52l-.1-.13.1.13Z"/>
      <path class="cls-19" d="m27.07,4.61l.15.07-.15-.07Z"/>
      <path class="cls-3" d="m45.12,33.88l-.11-.14.11.14Z"/>
      <path class="cls-3" d="m30.52,6.32l-.12.13.12-.13Z"/>
      <path class="cls-3" d="m30.64,6.2l-.12.12.12-.12Z"/>
      <path class="cls-3" d="m30.74,6.09l-.12.12.12-.12Z"/>
      <path class="cls-3" d="m30.98,5.86l-.12.12.12-.12Z"/>
      <path class="cls-3" d="m31.11,5.75s-.09.07-.13.12c.04-.04.08-.08.13-.12Z"/>
      <path class="cls-3" d="m31.24,5.64l-.14.12.14-.12Z"/>
      <path class="cls-3" d="m30.07,5.63l.09-.13-.09.13Z"/>
      <path class="cls-3" d="m31.57,5.41l-.14.1.14-.1Z"/>
      <path class="cls-22" d="m37.29,25.78c-1.42,2.51-4.33,3.02-5.77.97.07-.01.14-.01.21,0,1.13.49,2.17.27,3.23-.29.71-.38,1.51-.59,2.26-.87l.06.2Z"/>
      <path class="cls-12" d="m21.02,25.59c.69.25,1.43.42,2.07.75,1.15.6,2.28,1,3.58.32-.35.8-1.29,1.34-2.3,1.36-1.29.03-2.73-.92-3.36-2.43Z"/>
      <path class="cls-12" d="m21.63,23.47c1.22-.81,3.73-.84,4.84-.05.23.17.48.58.43.82-.09.42-.53.41-.91.31-1.05-.29-2.09-.6-3.14-.88-.37-.1-.75-.12-1.21-.2Z"/>
      <path class="cls-22" d="m36.55,23.48c-.56.09-1.13.15-1.68.28-.83.21-1.65.48-2.48.71-.39.1-.85.23-1.04-.28-.18-.48.19-.76.58-.92,1.54-.66,3.08-.57,4.62.21Z"/>
      <path class="cls-5" d="m31.18,35.11c-.63,1.33-1.18,1.72-2.33,1.61-.99-.09-1.38-.85-1.79-1.6.12-.05.25-.09.37-.1,1.24.02,2.49.06,3.74.09Z"/>
      <path class="cls-11" d="m26.84,34.56c.28-.23.55-.47.84-.69.47-.36.96-.44,1.45-.01.96-.45,1.27-.37,2.09.54l.13.13.02-.03c-.24.12-.47.35-.71.36-.89.04-1.8.05-2.69,0-.38-.02-.75-.19-1.12-.3Z"/>
      <path class="cls-1" d="m26.84,34.56c.37.11.74.28,1.12.3.89.04,1.8.04,2.69,0,.24-.01.48-.23.71-.36l.4.12-.59.49c-1.25-.03-2.49-.07-3.74-.09-.13.02-.25.05-.37.1l-.51-.47.28-.1Z"/>
      <path class="cls-3" d="m29.52,32.79c-.72.1-1.39,0-1.99-.44.43-.65,1.07-.49,1.58.36l.37-.48c.01.19.03.37.04.56Z"/>
      <path class="cls-19" d="m29.52,32.79c-.01-.19-.03-.37-.04-.56h0l.12-.11c.31-.04.62-.15.91-.1.26.04.39.27.04.45l-.36.15h.01s-.63.16-.63.16l-.03.02h-.03Z"/>
      <path class="cls-3" d="m29.58,32.79l.63-.17-.63.17Z"/>
      <path class="cls-3" d="m30.19,32.63l.36-.15-.36.15Z"/>
      <path class="cls-3" d="m29.6,32.13l-.12.11.12-.11Z"/>
      <path class="cls-1" d="m31.35,34.54l-.13-.13.13.13Z"/>
      <path class="cls-13" d="m18.07,13.11c.05.18.1.35.16.53l-1.04,1.79-.15-.07,1.04-2.25Z"/>
      <path class="cls-13" d="m18.4,12.59c-.04.06-.07.12-.12.17.04-.06.08-.11.12-.17Z"/>
      <path class="cls-13" d="m18.17,12.94l-.1.17.1-.17Z"/>
      <path class="cls-13" d="m18.29,12.75l-.09.14.09-.14Z"/>
      <path class="cls-13" d="m18.25,13.62l.1-.14-.1.14Z"/>
      <path class="cls-13" d="m18.53,12.39l-.1.15.1-.15Z"/>
      <path class="cls-13" d="m18.34,13.5l.11-.14-.11.14Z"/>
      <path class="cls-17" d="m34.09,9.52c-.07.28-.14.55-.24.92-.17,0-.34,0-.51-.03-.33-.07-.65-.18-.95-.32-.17-.09-.26-.31-.39-.47l2.1-.09Z"/>
      <path class="cls-13" d="m40.3,14.04l.28-.19.59,1.45-.13.06-.74-1.32Z"/>
      <path class="cls-17" d="m32.72,10.61l.33-.03-.33.03Z"/>
      <path class="cls-13" d="m38.79,12.32c.09.07.17.14.25.21-.08-.08-.17-.15-.25-.21Z"/>
      <path class="cls-13" d="m39.92,13.49l.16.2-.16-.2Z"/>
      <path class="cls-13" d="m39.06,12.53l.17.17-.17-.17Z"/>
      <path class="cls-13" d="m39.45,12.93l.17.18-.17-.18Z"/>
      <path class="cls-13" d="m39.72,12.31l-.1-.13.1.13Z"/>
      <path class="cls-13" d="m39.63,12.19l-.12-.14.12.14Z"/>
      <path class="cls-13" d="m40.17,13s-.06-.09-.09-.13c.03.04.06.09.09.13Z"/>
      <path class="cls-13" d="m40.09,12.88l-.12-.16.12.16Z"/>
      <path class="cls-13" d="m39.34,12.81l.12.12-.12-.12Z"/>
      <path class="cls-13" d="m40.07,13.69l.1.16-.1-.16Z"/>
      <path class="cls-13" d="m39.22,12.7l.12.12-.12-.12Z"/>
      <path class="cls-13" d="m39.95,12.65l-.09-.13.09.13Z"/>
      <path class="cls-13" d="m39.87,12.53l-.12-.17.12.17Z"/>
      <path class="cls-17" d="m31.79,9.66h-.12s.12,0,.12,0Z"/>
      <path class="cls-13" d="m39.82,13.36l.11.14-.11-.14Z"/>
      <path class="cls-13" d="m39.72,13.24l.12.14-.12-.14Z"/>
      <path class="cls-13" d="m39.62,13.12l.1.12-.1-.12Z"/>
      <path class="cls-3" d="m15.7,47.5c.07.61.13,1.17.2,1.74-.7.08-1.15-.23-1.21-.88-.05-.56.24-.8,1.01-.86Z"/>
      <path class="cls-3" d="m42.51,47.57l.44-.05h.12c.48.18.72.49.58,1.01s-.53.76-1.27.73l.07-.32c.02-.45.04-.91.05-1.37Z"/>
      <path class="cls-17" d="m32.04,10.73l-.19-.13.07-.06.13.19h0Z"/>
      <path class="cls-3" d="m43.89,33.75c.71,0,1.05.35,1.01.84-.02.35-.08.71-.54.75-.4.03-1.04-.6-.94-.98.07-.27.35-.48.46-.61Z"/>
      <path class="cls-6" d="m43.08,47.53h-.12s-.22-.26-.22-.26l.11-.08.24.34Z"/>
      <path class="cls-2" d="m14.42,33.77c.1.13.38.35.42.59.07.46-.46.98-.87.98-.38,0-.63-.35-.61-.82.02-.44.4-.77,1.05-.75Z"/>
      <path class="cls-23" d="m15.03,35.76l.05.05-.06-.05h0Z"/>
      <path class="cls-17" d="m45.38,35.81c-.4.33-.83.46-1.3.23,0-.08-.01-.15-.02-.23h1.31Z"/>
    </g>
  </g>
</svg>