<?xml version="1.0" encoding="UTF-8"?>
<svg id="Layer_2" data-name="Layer 2" xmlns="http://www.w3.org/2000/svg" viewBox="0 0 171.79 153.13">
  <defs>
    <style>
      .cls-1 {
        fill: #fcddae;
      }
    </style>
  </defs>
  <g id="Layer_2-2" data-name="Layer 2">
    <g>
      <path class="cls-1" d="m157.51,69.27c-5.29,0-47.53,5.56-47.53,6.88s42.24,6.88,47.53,6.88,14.28-3.08,14.28-6.88-8.99-6.88-14.28-6.88Z"/>
      <g>
        <path class="cls-1" d="m108.08,46.09c.21.89.31,2.31.22,4.04-.1,1.72-.49,3.72-1.19,5.75-.71,2.03-1.76,4.11-3.09,6.04-1.32,1.9-2.89,3.63-4.59,5.1-3.38,2.97-7.2,4.8-10.09,5.61-2.89.85-4.82.81-4.89.57-.1-.29,1.54-1.23,3.62-3.01,2.1-1.74,4.58-4.39,6.33-7.48.89-1.53,1.61-3.16,2.09-4.74.47-1.54.73-3.06.81-4.39.16-2.7-.41-4.46-.56-5.2-.17-.77-.37-2.38-1.56-3.95-.6-.8-1.48-1.62-2.56-2.22-1.08-.61-2.3-.99-3.68-1.05-2.75-.17-5.73,1.13-7.19,2.56-.78.73-1.25,1.43-1.56,2.12-.3.67-.46,1.18-.85,1.29-.36.11-.99-.2-1.47-1.15-.49-.91-.67-2.61-.1-4.37,1.09-3.6,4.83-7.26,9.99-8.56,2.55-.66,5.48-.63,8.09.11,2.62.71,4.98,2.05,6.84,3.69,1.87,1.64,3.21,3.58,4.02,5.25.8,1.68,1.22,3.1,1.38,3.99Z"/>
        <path class="cls-1" d="m126.84,42.04c-.3.96-1.25,2.94-2.75,5.09-1.48,2.16-3.5,4.45-5.58,6.39-4.17,3.89-8.48,6.49-8.89,6.15-.45-.36,1.71-4.96,3.38-9.82.83-2.43,1.52-4.91,1.93-6.93.43-2.02.62-3.58.84-4.27.19-.68.78-2.07,1.31-3.91.56-1.83,1.02-4.09,1.22-6.35.2-2.26.1-4.49-.02-6.29-.12-1.79-.21-3.17.45-3.64.62-.46,2.02.09,3.59,1.64,1.55,1.54,3.13,4.13,4.08,7.09.97,2.96,1.35,6.23,1.26,8.95-.06,2.73-.53,4.91-.81,5.89Z"/>
        <path class="cls-1" d="m145.62,46.23c-.61.34-1.71,1.04-3.03,2.14-1.3,1.07-2.76,2.48-4.24,4.07-3.01,3.18-5.99,6.96-9.77,9.52-3.77,2.68-8.2,4.3-11.62,5.04-3.43.75-5.83.78-5.85,1.03-.03.19,2.27.96,6.03,1.14,3.73.18,8.94-.43,13.94-2.6,2.5-1.04,4.95-2.51,7.03-4.01,2.1-1.49,3.96-2.98,5.58-4.19,1.62-1.22,3.01-2.18,4.11-2.85,1.07-.65,1.88-1.05,2.29-1.28,1.67-.96,3.74-2.3,5.65-3.24,1.05-.51,1.99-.96,2.68-1.3.78-.41,1.42-.83,1.62-1.44.19-.59-.12-1.35-.95-2.07-.82-.74-2.19-1.36-3.81-1.66-1.62-.31-3.47-.26-5.18.08-1.71.33-3.28.94-4.49,1.63Z"/>
        <path class="cls-1" d="m21.11,45.48c-.41-1.78-1.09-5.37-.02-10.14,1.05-4.7,4.04-10.54,10.11-14.06,3-1.77,6.66-2.96,10.57-3.27,3.91-.28,8.03.36,11.79,2.14,7.59,3.5,13.69,11.56,14.71,20.38.55,4.41-.05,8.98-1.59,13.12-1.53,4.15-3.97,7.87-6.98,10.79-3.03,2.94-6.59,5.14-10.18,6.74-3.6,1.61-7.22,2.65-10.6,3.35-6.8,1.38-12.64,1.59-16.69,1.82-2.03.1-3.62.18-4.7.24-1.08.07-1.66.13-1.66.18,0,.06.57.13,1.66.21,1.08.08,2.67.18,4.71.27,4.06.14,9.94.37,17.05-.58,3.55-.49,7.4-1.32,11.34-2.8,3.93-1.47,7.96-3.62,11.55-6.72,7.21-6.18,12.07-16.39,11.32-27.13-.72-10.76-7.42-20.89-16.91-25.91-4.75-2.54-10.1-3.65-15.17-3.52-5.08.15-9.94,1.47-14.11,3.68-2.08,1.12-3.98,2.45-5.68,3.92-1.69,1.5-3.11,3.14-4.34,4.81-2.39,3.39-3.95,6.9-4.79,10.15-1.74,6.54-.95,11.8-.32,14.43.35,1.34.73,2.7,1.33,4.1.6,1.4,1.37,2.86,2.44,4.27,1.07,1.43,2.43,2.68,3.8,3.66,1.4,1,2.79,1.75,4.3,2.44,3,1.34,6.29,2.12,9.64,2.12,3.33.02,6.78-.87,9.46-2.72,1.38-.93,2.59-2.15,3.42-3.4.83-1.27,1.4-2.58,1.76-3.86.67-2.57.55-4.99-.11-6.85-.66-1.86-1.72-3.1-2.62-3.66-.89-.57-1.5-.63-1.68-.39-.45.53.86,2.09.79,4.74,0,1.3-.4,2.87-1.19,4.36-.42.74-.94,1.44-1.55,2.06-.64.61-1.3,1.04-2.1,1.4-3.34,1.57-8.17.82-12.11-1.39-.96-.54-1.96-1.19-2.72-1.83-.79-.65-1.37-1.29-1.84-1.99-.97-1.39-1.66-3.38-2.1-5.18Z"/>
        <path class="cls-1" d="m65.22,57.11c2.15-2.82,2.52-6.59,2.4-10.13-.13-3.85-.79-7.78-2.71-11.12-.98-1.7-2.27-3.22-3.79-4.46-2.2-1.79-5.09-3-7.85-2.37-2.27.52-4.16,2.27-5.08,4.41-.92,2.14-.93,4.61-.27,6.84-3.42-2.05-5.04-6.57-3.96-10.4s4.65-6.77,8.6-7.36c-4.17-1.13-8.84-2.17-12.64-.11-1.4.76-2.56,1.9-3.52,3.16-1.79,2.35-2.93,5.22-3.04,8.17-.1,2.95.89,5.96,2.88,8.14-5.99-.08-11.51-5.09-12.17-11.04-1.42,1.45-1.68,3.66-1.71,5.69-.04,2.78.22,5.66,1.52,8.11,1.31,2.46,3.85,4.41,6.63,4.32-1.33,2.69-5.04,3.6-7.8,2.44-2.77-1.16-4.61-3.92-5.43-6.81-1.81-6.33.64-13.15,4.22-18.67,1.09-1.68,2.3-3.3,3.78-4.64,4.38-3.97,10.61-5.11,16.51-5.44,2.25-.13,4.51-.16,6.75.12,9.99,1.23,18.77,9.25,20.92,19.07.55,2.51.7,5.09.81,7.66.15,3.53.22,7.12-.67,10.53-.08.3-.18.62-.43.79s-.69.09-.74-.21"/>
        <path class="cls-1" d="m52.34,13.49c-1.01-1.23-2.44-2.03-3.91-2.63-3.24-1.31-6.79-1.76-9.99-3.16s-6.2-4.2-6.26-7.7c-1.88,1.61-3,4.08-2.97,6.55.03,2.48,1.22,4.91,3.14,6.47-2.73-.61-5.64-.94-8.29-.03-5.46,1.87-8.62,8.5-14.34,9.32-1.89.27-3.81-.17-5.67-.6,1.96,3.58,5.8,6.07,9.87,6.4.01,2.44-.22,4.92-1.1,7.19-.88,2.27-2.47,4.34-4.66,5.42C5.68,41.94,2.74,41.77,0,41.35c1.42,2.29,3.79,3.98,6.42,4.57s5.49.08,7.76-1.39c1.91-5.56,3.91-11.13,5.89-16.67.46-1.29.93-2.58,1.57-3.78,1.08-2.01,2.67-3.75,4.57-5.01,2.06-1.36,4.45-2.16,6.83-2.79,3.77-1.01,7.69-1.68,11.57-1.25s7.73,2.07,10.25,5.05"/>
        <path class="cls-1" d="m60.59,64.38c2.43-2.85,3.31-6.96,2.25-10.55-1.06-3.6-4.01-6.58-7.6-7.67,1.46,3.37,2.16,7.13,1.58,10.76s-2.49,7.1-5.5,9.21c1.36-3.39-.5-7.71-3.89-9.07,1,4.3-1.39,8.83-4.87,11.54-3.48,2.71-7.86,3.95-12.15,4.96-4.89,1.15-9.84,2.08-14.82,2.79,8.23,1.34,16.62-.17,24.82-1.67,3.17-.58,6.37-1.17,9.36-2.39,3.44-1.4,6.5-3.59,9.48-5.82"/>
        <path class="cls-1" d="m82.91,74.36c3.39-1.07,4.98-1.27,7.97-3.19,2.99-1.92,4.38-5.41,5.37-8.82,1.04-3.6.14-7.7-2.31-10.53-1.9-2.19-4.99-3.63-7.74-2.7-2.97,1-4.52,4.34-4.84,7.45,1.34-1.08,3.47-.78,4.71.41,1.24,1.19,1.66,3.06,1.42,4.77s-1.07,3.27-2.03,4.7c-2.91,4.36-7.29,7.88-12.39,9.09"/>
        <g>
          <circle class="cls-1" cx="160.15" cy="54.97" r="4.03"/>
          <circle class="cls-1" cx="151.62" cy="59.04" r="3.55"/>
          <circle class="cls-1" cx="144.37" cy="63.36" r="3.04"/>
          <circle class="cls-1" cx="137.41" cy="68.12" r="2.67"/>
          <circle class="cls-1" cx="128.85" cy="69.95" r="2.16"/>
          <circle class="cls-1" cx="122.48" cy="71.34" r="1.94"/>
          <circle class="cls-1" cx="115.74" cy="72.51" r="1.94"/>
          <circle class="cls-1" cx="108.75" cy="73.72" r="1.94"/>
        </g>
        <g>
          <circle class="cls-1" cx="136.72" cy="28.13" r="4.03"/>
          <circle class="cls-1" cx="137.93" cy="38.94" r="3.55"/>
          <circle class="cls-1" cx="134.26" cy="46.99" r="3.04"/>
          <circle class="cls-1" cx="128.81" cy="53.07" r="2.82"/>
          <circle class="cls-1" cx="122.66" cy="57.43" r="2.53"/>
          <circle class="cls-1" cx="116.6" cy="60.96" r="1.94"/>
          <circle class="cls-1" cx="110.63" cy="64.29" r="1.94"/>
          <circle class="cls-1" cx="104.43" cy="67.74" r="1.94"/>
        </g>
      </g>
      <g>
        <path class="cls-1" d="m108.08,107.03c.21-.89.31-2.31.22-4.04-.1-1.72-.49-3.72-1.19-5.75-.71-2.03-1.76-4.11-3.09-6.04-1.32-1.9-2.89-3.63-4.59-5.1-3.38-2.97-7.2-4.8-10.09-5.61-2.89-.85-4.82-.81-4.89-.57-.1.29,1.54,1.23,3.62,3.01,2.1,1.74,4.58,4.39,6.33,7.48.89,1.53,1.61,3.16,2.09,4.74.47,1.54.73,3.06.81,4.39.16,2.7-.41,4.46-.56,5.2-.17.77-.37,2.38-1.56,3.95-.6.8-1.48,1.62-2.56,2.22-1.08.61-2.3.99-3.68,1.05-2.75.17-5.73-1.13-7.19-2.56-.78-.73-1.25-1.43-1.56-2.12-.3-.67-.46-1.18-.85-1.29-.36-.11-.99.2-1.47,1.15-.49.91-.67,2.61-.1,4.37,1.09,3.6,4.83,7.26,9.99,8.56,2.55.66,5.48.63,8.09-.11,2.62-.71,4.98-2.05,6.84-3.69,1.87-1.64,3.21-3.58,4.02-5.25.8-1.68,1.22-3.1,1.38-3.99Z"/>
        <path class="cls-1" d="m126.84,111.08c-.3-.96-1.25-2.94-2.75-5.09-1.48-2.16-3.5-4.45-5.58-6.39-4.17-3.89-8.48-6.49-8.89-6.15-.45.36,1.71,4.96,3.38,9.82.83,2.43,1.52,4.91,1.93,6.93.43,2.02.62,3.58.84,4.27.19.68.78,2.07,1.31,3.91.56,1.83,1.02,4.09,1.22,6.35.2,2.26.1,4.49-.02,6.29-.12,1.79-.21,3.17.45,3.64.62.46,2.02-.09,3.59-1.64,1.55-1.54,3.13-4.13,4.08-7.09.97-2.96,1.35-6.23,1.26-8.95-.06-2.73-.53-4.91-.81-5.89Z"/>
        <path class="cls-1" d="m145.62,106.9c-.61-.34-1.71-1.04-3.03-2.14-1.3-1.07-2.76-2.48-4.24-4.07-3.01-3.18-5.99-6.96-9.77-9.52-3.77-2.68-8.2-4.3-11.62-5.04-3.43-.75-5.83-.78-5.85-1.03-.03-.19,2.27-.96,6.03-1.14,3.73-.18,8.94.43,13.94,2.6,2.5,1.04,4.95,2.51,7.03,4.01,2.1,1.49,3.96,2.98,5.58,4.19,1.62,1.22,3.01,2.18,4.11,2.85,1.07.65,1.88,1.05,2.29,1.28,1.67.96,3.74,2.3,5.65,3.24,1.05.51,1.99.96,2.68,1.3.78.41,1.42.83,1.62,1.44.19.59-.12,1.35-.95,2.07-.82.74-2.19,1.36-3.81,1.66-1.62.31-3.47.26-5.18-.08-1.71-.33-3.28-.94-4.49-1.63Z"/>
        <path class="cls-1" d="m21.11,107.65c-.41,1.78-1.09,5.37-.02,10.14,1.05,4.7,4.04,10.54,10.11,14.06,3,1.77,6.66,2.96,10.57,3.27,3.91.28,8.03-.36,11.79-2.14,7.59-3.5,13.69-11.56,14.71-20.38.55-4.41-.05-8.98-1.59-13.12-1.53-4.15-3.97-7.87-6.98-10.79-3.03-2.94-6.59-5.14-10.18-6.74-3.6-1.61-7.22-2.65-10.6-3.35-6.8-1.38-12.64-1.59-16.69-1.82-2.03-.1-3.62-.18-4.7-.24-1.08-.07-1.66-.13-1.66-.18,0-.06.57-.13,1.66-.21,1.08-.08,2.67-.18,4.71-.27,4.06-.14,9.94-.37,17.05.58,3.55.49,7.4,1.32,11.34,2.8,3.93,1.47,7.96,3.62,11.55,6.72,7.21,6.18,12.07,16.39,11.32,27.13-.72,10.76-7.42,20.89-16.91,25.91-4.75,2.54-10.1,3.65-15.17,3.52-5.08-.15-9.94-1.47-14.11-3.68-2.08-1.12-3.98-2.45-5.68-3.92-1.69-1.5-3.11-3.14-4.34-4.81-2.39-3.39-3.95-6.9-4.79-10.15-1.74-6.54-.95-11.8-.32-14.43.35-1.34.73-2.7,1.33-4.1.6-1.4,1.37-2.86,2.44-4.27,1.07-1.43,2.43-2.68,3.8-3.66,1.4-1,2.79-1.75,4.3-2.44,3-1.34,6.29-2.12,9.64-2.12,3.33-.02,6.78.87,9.46,2.72,1.38.93,2.59,2.15,3.42,3.4.83,1.27,1.4,2.58,1.76,3.86.67,2.57.55,4.99-.11,6.85-.66,1.86-1.72,3.1-2.62,3.66-.89.57-1.5.63-1.68.39-.45-.53.86-2.09.79-4.74,0-1.3-.4-2.87-1.19-4.36-.42-.74-.94-1.44-1.55-2.06-.64-.61-1.3-1.04-2.1-1.4-3.34-1.57-8.17-.82-12.11,1.39-.96.54-1.96,1.19-2.72,1.83-.79.65-1.37,1.29-1.84,1.99-.97,1.39-1.66,3.38-2.1,5.18Z"/>
        <path class="cls-1" d="m65.22,96.02c2.15,2.82,2.52,6.59,2.4,10.13-.13,3.85-.79,7.78-2.71,11.12-.98,1.7-2.27,3.22-3.79,4.46-2.2,1.79-5.09,3-7.85,2.37-2.27-.52-4.16-2.27-5.08-4.41-.92-2.14-.93-4.61-.27-6.84-3.42,2.05-5.04,6.57-3.96,10.4,1.09,3.84,4.65,6.77,8.6,7.36-4.17,1.13-8.84,2.17-12.64.11-1.4-.76-2.56-1.9-3.52-3.16-1.79-2.35-2.93-5.22-3.04-8.17s.89-5.96,2.88-8.14c-5.99.08-11.51,5.09-12.17,11.04-1.42-1.45-1.68-3.66-1.71-5.69-.04-2.78.22-5.66,1.52-8.11s3.85-4.41,6.63-4.32c-1.33-2.69-5.04-3.6-7.8-2.44-2.77,1.16-4.61,3.92-5.43,6.81-1.81,6.33.64,13.15,4.22,18.67,1.09,1.68,2.3,3.3,3.78,4.64,4.38,3.97,10.61,5.11,16.51,5.44,2.25.13,4.51.16,6.75-.12,9.99-1.23,18.77-9.25,20.92-19.07.55-2.51.7-5.09.81-7.66.15-3.53.22-7.12-.67-10.53-.08-.3-.18-.62-.43-.79s-.69-.09-.74.21"/>
        <path class="cls-1" d="m52.34,139.64c-1.01,1.23-2.44,2.03-3.91,2.63-3.24,1.31-6.79,1.76-9.99,3.16s-6.2,4.2-6.26,7.7c-1.88-1.61-3-4.08-2.97-6.55s1.22-4.91,3.14-6.47c-2.73.61-5.64.94-8.29.03-5.46-1.87-8.62-8.5-14.34-9.32-1.89-.27-3.81.17-5.67.6,1.96-3.58,5.8-6.07,9.87-6.4.01-2.44-.22-4.92-1.1-7.19s-2.47-4.34-4.66-5.42c-2.49-1.22-5.43-1.05-8.17-.63,1.42-2.29,3.79-3.98,6.42-4.57s5.49-.08,7.76,1.39c1.91,5.56,3.91,11.13,5.89,16.67.46,1.29.93,2.58,1.57,3.78,1.08,2.01,2.67,3.75,4.57,5.01,2.06,1.36,4.45,2.16,6.83,2.79,3.77,1.01,7.69,1.68,11.57,1.25s7.73-2.07,10.25-5.05"/>
        <path class="cls-1" d="m60.59,88.74c2.43,2.85,3.31,6.96,2.25,10.55-1.06,3.6-4.01,6.58-7.6,7.67,1.46-3.37,2.16-7.13,1.58-10.76-.57-3.63-2.49-7.1-5.5-9.21,1.36,3.39-.5,7.71-3.89,9.07,1-4.3-1.39-8.83-4.87-11.54-3.48-2.71-7.86-3.95-12.15-4.96-4.89-1.15-9.84-2.08-14.82-2.79,8.23-1.34,16.62.17,24.82,1.67,3.17.58,6.37,1.17,9.36,2.39,3.44,1.4,6.5,3.59,9.48,5.82"/>
        <path class="cls-1" d="m82.91,78.76c3.39,1.07,4.98,1.27,7.97,3.19,2.99,1.92,4.38,5.41,5.37,8.82,1.04,3.6.14,7.7-2.31,10.53-1.9,2.19-4.99,3.63-7.74,2.7-2.97-1-4.52-4.34-4.84-7.45,1.34,1.08,3.47.78,4.71-.41s1.66-3.06,1.42-4.77c-.24-1.7-1.07-3.27-2.03-4.7-2.91-4.36-7.29-7.88-12.39-9.09"/>
        <g>
          <circle class="cls-1" cx="160.15" cy="98.15" r="4.03"/>
          <circle class="cls-1" cx="151.62" cy="94.09" r="3.55"/>
          <circle class="cls-1" cx="144.37" cy="89.77" r="3.04"/>
          <circle class="cls-1" cx="137.41" cy="85.01" r="2.67"/>
          <circle class="cls-1" cx="128.85" cy="83.18" r="2.16"/>
          <circle class="cls-1" cx="122.48" cy="81.79" r="1.94"/>
          <circle class="cls-1" cx="115.74" cy="80.62" r="1.94"/>
          <circle class="cls-1" cx="108.75" cy="79.41" r="1.94"/>
        </g>
        <g>
          <circle class="cls-1" cx="136.72" cy="124.99" r="4.03"/>
          <circle class="cls-1" cx="137.93" cy="114.19" r="3.55"/>
          <circle class="cls-1" cx="134.26" cy="106.14" r="3.04"/>
          <circle class="cls-1" cx="128.81" cy="100.06" r="2.82"/>
          <circle class="cls-1" cx="122.66" cy="95.69" r="2.53"/>
          <circle class="cls-1" cx="116.6" cy="92.17" r="1.94"/>
          <circle class="cls-1" cx="110.63" cy="88.84" r="1.94"/>
          <circle class="cls-1" cx="104.43" cy="85.39" r="1.94"/>
        </g>
      </g>
    </g>
  </g>
</svg>