<svg xmlns="http://www.w3.org/2000/svg" viewBox="0 0 225.29 14.45"><defs><style>.cls-1{fill:#b1a688;}</style></defs><title>middle_decrotive</title><g id="Layer_2" data-name="Layer 2"><g id="Layer_1-2" data-name="Layer 1"><path class="cls-1" d="M184.4,10.63H142.23A1.35,1.35,0,0,0,141,9.87a1.32,1.32,0,0,0-1.2.76h-2.61a2.41,2.41,0,1,0,0,1.15h2.61a1.33,1.33,0,0,0,1.2.77,1.36,1.36,0,0,0,1.21-.77H184.4c.24,0,.43-.26.43-.57s-.19-.58-.43-.58"/><path class="cls-1" d="M120.53,5.4c-3.7,1.46-5.91,7.49-.82,8.89a4.25,4.25,0,0,0,5.22-2.78s-.25,0-.27.09c-1.11,3.35-4.88,2.82-6.06,0a4.5,4.5,0,0,1,2.78-6c2.78-.91,5.7.63,7.65,2.65.89.93,3.51,5.66.11,5.59-.25,0-.63.3-.79.29,2.79.14,4.41-2.48,3.06-5C129.26,5,124.56,3.8,120.53,5.4"/><path class="cls-1" d="M127.31,8.25a4.65,4.65,0,0,0-4.18-.91,6.29,6.29,0,0,0-3,1.44c-1.31,1.34-.7,3.19.63,4.24,0,0,.15-.06.16,0a3.23,3.23,0,0,1-.36-3.27,2.78,2.78,0,0,1,3.76-1.76,5,5,0,0,1,3.09,6.34s.22,0,.25-.08c1.18-1.71,1.32-4.5-.36-5.95"/><path class="cls-1" d="M113.94,4.22s-.32.06-.37.12c-1.44,1.89,0,3.51,1.07,5.06s.89,3.65-1,4.55l.13,0a4.85,4.85,0,0,0,3-4c.21-2.65-3.47-3.19-2.82-5.72"/><path class="cls-1" d="M113.16,9.09c-.73,0-1.13.75-1.13,2.21a4.33,4.33,0,0,0,1.13,2.64,4.33,4.33,0,0,0,1.13-2.64c0-1.46-.39-2.21-1.13-2.21"/><path class="cls-1" d="M41.88,10.63H84.05a1.35,1.35,0,0,1,1.21-.76,1.32,1.32,0,0,1,1.2.76h2.61a2.41,2.41,0,1,1,0,1.15H86.46a1.33,1.33,0,0,1-1.2.77,1.36,1.36,0,0,1-1.21-.77H41.88c-.24,0-.43-.26-.43-.57s.19-.58.43-.58"/><path class="cls-1" d="M105.76,5.4c3.69,1.46,5.9,7.49.81,8.89a4.25,4.25,0,0,1-5.22-2.78s.25,0,.27.09c1.11,3.35,4.88,2.82,6.07,0a4.52,4.52,0,0,0-2.78-6c-2.78-.91-5.71.63-7.66,2.65-.89.93-3.51,5.66-.11,5.59.25,0,.63.3.79.29-2.78.14-4.41-2.48-3.06-5C97,5,101.72,3.8,105.76,5.4"/><path class="cls-1" d="M99,8.25a4.65,4.65,0,0,1,4.18-.91,6.37,6.37,0,0,1,3,1.44c1.3,1.34.69,3.19-.64,4.24,0,0-.15-.06-.15,0a3.25,3.25,0,0,0,.35-3.27A2.77,2.77,0,0,0,102,7.94a5,5,0,0,0-3.09,6.34s-.22,0-.25-.08c-1.18-1.71-1.32-4.5.36-5.95"/><path class="cls-1" d="M112.34,4.22s.32.06.37.12c1.44,1.89,0,3.51-1.07,5.06s-.89,3.65,1,4.55l-.13,0a4.85,4.85,0,0,1-3-4c-.21-2.65,3.47-3.19,2.82-5.72"/><rect class="cls-1" width="225.29" height="0.79"/><rect class="cls-1" x="16.74" y="1.94" width="191.81" height="0.67"/></g></g></svg>