<svg xmlns="http://www.w3.org/2000/svg" viewBox="0 0 73.77 68.58"><defs><style>.cls-1{fill:#b1a688;}</style></defs><title>right_decrotive</title><g id="Layer_2" data-name="Layer 2"><g id="Layer_1-2" data-name="Layer 1"><path class="cls-1" d="M62.43,46a4.23,4.23,0,0,1-3.6-1.32,6.67,6.67,0,0,1-1.68-3.06,9.65,9.65,0,0,1-.08-4,29.38,29.38,0,0,1,2.75-7.31c.46-1,.83-1.78,1.06-2.36a3.62,3.62,0,0,0,.31-.92,4.4,4.4,0,0,0-.54.81c-.32.52-.79,1.27-1.37,2.17s-1.26,2-1.93,3.18a19.6,19.6,0,0,0-1.74,4.1A11.21,11.21,0,0,0,55.28,42a8.68,8.68,0,0,0,1.86,4.19,7.17,7.17,0,0,0,1.55,1.39,5.76,5.76,0,0,0,1.66.77,6.07,6.07,0,0,0,2.3.24A5.42,5.42,0,0,0,64,48.3a5.32,5.32,0,0,0,1.38-.71,4.71,4.71,0,0,0,1.14-1.13,5.15,5.15,0,0,0,.4-.67,3.6,3.6,0,0,0,.27-.73,3,3,0,0,0-.32-2.41c-.38-.53-.79-.6-.9-.47s0,.44,0,.83a2.79,2.79,0,0,1-.45,1.39,3,3,0,0,1-.26.34c-.12.1-.2.23-.33.32a3.64,3.64,0,0,1-.77.5,5,5,0,0,1-1.7.44"/><path class="cls-1" d="M50.15,64.06a6.84,6.84,0,0,0,1.58,2.48,6.74,6.74,0,0,0,1.86,1.34,6.94,6.94,0,0,0,2.61.68,8.22,8.22,0,0,0,5.58-1.85,9.48,9.48,0,0,0,3.16-5.29,11.3,11.3,0,0,0,.27-3,13.22,13.22,0,0,0-.41-2.8,18.13,18.13,0,0,0-1.88-4.46,28.4,28.4,0,0,0-1.85-2.77,5.67,5.67,0,0,0-.78-1,6.82,6.82,0,0,0,.57,1.11c.38.69.94,1.68,1.51,2.92a17.83,17.83,0,0,1,1.41,4.39A11.18,11.18,0,0,1,63.5,61a7.83,7.83,0,0,1-2.87,4.15,6.31,6.31,0,0,1-4.23,1.12,4.55,4.55,0,0,1-1.69-.56,4.45,4.45,0,0,1-1.16-.94,5,5,0,0,1-.65-.94,6.76,6.76,0,0,1-.29-.67,4.79,4.79,0,0,1-.23-1,2.83,2.83,0,0,0,0-.29,2.62,2.62,0,0,0,0-.28,3.63,3.63,0,0,1,.09-.56,3.74,3.74,0,0,1,.48-1.11,4.38,4.38,0,0,1,.81-1,4.79,4.79,0,0,1,1.84-1c.55-.16.95-.21,1-.39s-.05-.19-.22-.31a2,2,0,0,0-.79-.32,4.37,4.37,0,0,0-2.84.49,5.61,5.61,0,0,0-1.48,1.13,5.44,5.44,0,0,0-1.07,1.71,5.55,5.55,0,0,0,0,3.79"/><path class="cls-1" d="M62.72,36.18a5,5,0,0,1-.53-.28,3.34,3.34,0,0,1-.81-.71,3.94,3.94,0,0,1-.69-1.31,5.55,5.55,0,0,1-.27-1.76,10.47,10.47,0,0,1,.69-3.41,8.23,8.23,0,0,0,.54-1.55,4.86,4.86,0,0,0-1.08,1.27A9.87,9.87,0,0,0,58.94,32a7.05,7.05,0,0,0-.13,2.3,5.92,5.92,0,0,0,.66,2.16,5.16,5.16,0,0,0,2.11,2.11,3.53,3.53,0,0,0,1.41.35,4.27,4.27,0,0,0,.79-.06,3.09,3.09,0,0,0,.74-.26,1.82,1.82,0,0,0,.91-.91c.13-.32,0-.56-.1-.65a1.42,1.42,0,0,0-.57-.1,3.58,3.58,0,0,1-.67-.13,5.71,5.71,0,0,1-.72-.26c-.24-.1-.45-.22-.65-.32"/><path class="cls-1" d="M55.58,26.74c.27.14.67.33,1.21.56a11.73,11.73,0,0,0,2.09.67,8.43,8.43,0,0,0,2.95.1A9.32,9.32,0,0,0,65.06,27,10.23,10.23,0,0,0,68,24.56a12.33,12.33,0,0,0,2-3.41,16.26,16.26,0,0,0,.85-7.94A15.59,15.59,0,0,0,68,6.1,13.33,13.33,0,0,0,63,2a13.17,13.17,0,0,0-2.4-.88,11.65,11.65,0,0,0-1.92-.3,7.37,7.37,0,0,0-1.24,0,2.14,2.14,0,0,0-.43,0c0,.05.6,0,1.64.21a14,14,0,0,1,1.83.46,13.76,13.76,0,0,1,2.23,1,12.71,12.71,0,0,1,4.4,4.19,14.6,14.6,0,0,1,2.18,6.68,14.73,14.73,0,0,1-1.14,7,9.93,9.93,0,0,1-1.79,2.77,8.21,8.21,0,0,1-3.63,2.27,8,8,0,0,1-1.21.23,6.07,6.07,0,0,1-2.09-.15,16.1,16.1,0,0,1-2.72-1.12,15.94,15.94,0,0,0-4.07-1.52,6.73,6.73,0,0,0-2.57,0A5,5,0,0,0,47.78,24,3.81,3.81,0,0,0,47,25a3.43,3.43,0,0,0-.4,1,3.18,3.18,0,0,0,.1,1.79,2,2,0,0,0,.68,1c.22.16.39.18.44.12s-.15-.58-.12-1.28a2.76,2.76,0,0,1,.07-.55,3.57,3.57,0,0,1,.21-.6,2.51,2.51,0,0,1,.38-.54,2.44,2.44,0,0,1,.55-.43A3.43,3.43,0,0,1,50.41,25a5.13,5.13,0,0,1,1.72.2,22,22,0,0,1,3.45,1.51"/><path class="cls-1" d="M56.73,20.88a4,4,0,0,0-.23,1.86,5.24,5.24,0,0,0,1.14,2.73,4.6,4.6,0,0,0,1.09,1,3.67,3.67,0,0,0,1.14.49,2.37,2.37,0,0,0,.85.05.71.71,0,0,0,.31-.07A5,5,0,0,1,60,26.66,3.59,3.59,0,0,1,59,26a4.1,4.1,0,0,1-.79-1,4.5,4.5,0,0,1-.62-2.35,3.43,3.43,0,0,1,.31-1.33,6.6,6.6,0,0,1,.58-1.16c.22-.37.48-.65.41-.82s-.52-.16-1,.14a2.83,2.83,0,0,0-1.17,1.35"/><path class="cls-1" d="M53,17.76a5.87,5.87,0,0,0,0,2.18,6.29,6.29,0,0,0,.49,1.63,7.64,7.64,0,0,0,1,1.54,9.63,9.63,0,0,0,2.38,2.1c.35.22.65.38.87.49s.34.16.35.14-.43-.34-1-.88A10.11,10.11,0,0,1,55,22.68a6.9,6.9,0,0,1-.68-1.46,5.52,5.52,0,0,1-.07-3.16,8.55,8.55,0,0,1,.49-1.57c.21-.5.45-.9.33-1s-.6,0-1.08.5a3.86,3.86,0,0,0-1,1.81"/><path class="cls-1" d="M49,12.08a4.51,4.51,0,0,1,.54.71,6.9,6.9,0,0,1,.68,1.62c.2.69.34,1.55.52,2.49a12.24,12.24,0,0,0,.86,2.94,11.44,11.44,0,0,0,1.57,2.5,13,13,0,0,0,1.75,1.74,5.58,5.58,0,0,0,2,1.19c0-.06-.7-.59-1.57-1.63A12.19,12.19,0,0,1,53,19.33c-.49-1.68-.29-3.61-.56-5.38a8.61,8.61,0,0,0-.67-2.32,5.46,5.46,0,0,0-.84-1.29,3.89,3.89,0,0,0-.73-.64,3.84,3.84,0,0,0-1-.48,3.68,3.68,0,0,0-2.1-.06,2.37,2.37,0,0,0-1.38.9c-.23.35-.23.64-.1.75s.38.09.67.08a3.47,3.47,0,0,1,1,.1,3.09,3.09,0,0,1,1,.44,2.13,2.13,0,0,1,.39.31c.11.1.24.23.34.34"/><path class="cls-1" d="M47.76,17.93a12.54,12.54,0,0,0,1.3,1.87,17,17,0,0,0,5.64,4.43c.42.2.78.34,1,.44a1.85,1.85,0,0,0,.41.12s-.52-.32-1.27-.83a19.05,19.05,0,0,1-2.62-2.12A17,17,0,0,1,50,19.12a18.68,18.68,0,0,1-1.07-1.81c-.27-.5-.66-1.17-1-1.73s-.61-1-.79-1-.2.59-.08,1.27a6.94,6.94,0,0,0,.71,2"/><path class="cls-1" d="M44.91,19.36a1.76,1.76,0,0,0-.06.55,2.15,2.15,0,0,0,.24.84,2.49,2.49,0,0,0,.64.77,3.93,3.93,0,0,0,.84.51,5.8,5.8,0,0,0,1.58.48,1.35,1.35,0,0,0,.73,0s-.28-.09-.65-.27A6.24,6.24,0,0,1,47,21.39a2.13,2.13,0,0,1-.82-1.08.84.84,0,0,1,0-.58,1.43,1.43,0,0,1,.17-.45,1.37,1.37,0,0,1,.18-.24.6.6,0,0,0,.16-.24.26.26,0,0,0-.15-.27.8.8,0,0,0-.56-.09,1.35,1.35,0,0,0-1.05.92"/><path class="cls-1" d="M63.83,17.72A4.37,4.37,0,0,0,64.59,16a5.11,5.11,0,0,0-.27-3,4.91,4.91,0,0,0-1-1.51A6.19,6.19,0,0,0,62,10.38a6.71,6.71,0,0,0-3.49-1,5.35,5.35,0,0,0-3.29,1.09,5,5,0,0,0-1.67,2.33,4.14,4.14,0,0,0-.2,1.94c0,.11,0,.21,0,.3l.07.22c0,.11.07.17.09.17s0-.07,0-.19V15a2.33,2.33,0,0,0,0-.29,4.21,4.21,0,0,1,.52-1.68,4.45,4.45,0,0,1,1.68-1.72,4.18,4.18,0,0,1,2.62-.46A5.1,5.1,0,0,1,60.88,12a4.32,4.32,0,0,1,.86.91,2.74,2.74,0,0,1,.45.93,2.87,2.87,0,0,1,0,1.61,2.61,2.61,0,0,1-.4.74,3.11,3.11,0,0,1-.29.33,1.54,1.54,0,0,1-.35.24,1.39,1.39,0,0,1-.85.14,1.49,1.49,0,0,1-.75-.5c-.19-.22-.29-.45-.47-.5s-.43.13-.53.62a2.12,2.12,0,0,0,.64,1.85,2.9,2.9,0,0,0,2.55.72A3.21,3.21,0,0,0,63,18.53a3.79,3.79,0,0,0,.87-.81"/><path class="cls-1" d="M51.69,38.26c.07-.14.22-.56.44-1.1A18.49,18.49,0,0,1,53,35.34c.68-1.27,1.58-2.37,1.51-2.47a6.93,6.93,0,0,0-2.64,1.5,13.26,13.26,0,0,0-1.66,1.57,9,9,0,0,0-.84,1.1,2.41,2.41,0,0,0-.21,1.33,1.17,1.17,0,0,0,.59,1,1.3,1.3,0,0,0,1.1-.27,2.64,2.64,0,0,0,.83-.84"/><path class="cls-1" d="M47,36.08c.32-.21,1.6-1.35,2.86-2.4a19,19,0,0,0,2.44-2.15,12,12,0,0,0-3.17.86,24.88,24.88,0,0,0-3.55,1.52c-.67.43-1.43,1.67-1,2.26s1.8.32,2.43-.09"/><path class="cls-1" d="M45.59,30.89a8.27,8.27,0,0,0,1.41.29,11.31,11.31,0,0,0,2.44.09,7.55,7.55,0,0,0,2.22-.48c.56-.22.87-.46.86-.51s-.41-.05-1-.1a10,10,0,0,1-2-.39,25.08,25.08,0,0,1-3.1-1.35c-.65-.23-2-.16-2.3.5s.67,1.69,1.41,1.95"/><path class="cls-1" d="M56.31,31.48a17.53,17.53,0,0,0,2.55-1.85,8.21,8.21,0,0,0,1.89-1.91,12.31,12.31,0,0,0-2.58.59c-1.29.35-2.64.67-2.92.8-.55.24-1.28,1.17-1,1.84s1.49.8,2.08.53"/><path class="cls-1" d="M69.26,55.17a4.72,4.72,0,0,0-.62-1.48A7.4,7.4,0,0,0,67,51.8a11.87,11.87,0,0,0-1.79-1.25c-.5-.29-.84-.45-.88-.4s.15.37.45.85a18,18,0,0,1,1.06,1.74,7.19,7.19,0,0,1,.7,1.83c.11.53.11.91.14,1a2.82,2.82,0,0,0,.41.93c.21.32.44.68.78.79s.76-.13,1-.6a2.35,2.35,0,0,0,.32-1.56"/><path class="cls-1" d="M72.66,51.68c-.58-.25-5.65-1.35-5.76-1.13s4.13,3.26,4.72,3.52,1.82.17,2.1-.5-.49-1.63-1.06-1.89"/><path class="cls-1" d="M69.36,46.47c-.26.17-1.23,1.18-2.3,1.93a9.87,9.87,0,0,1-1.54.92c-.44.23-.76.34-.76.41s.34.17.87.2a7.7,7.7,0,0,0,2-.15,11.73,11.73,0,0,0,3.2-1.16c.57-.39,1.12-1.53.68-2.1s-1.65-.39-2.15-.05"/><path class="cls-1" d="M57,51.83a1.07,1.07,0,0,1-.23-1.53c.35-.59.88-.92,1.27-.73a1.2,1.2,0,0,1,.25,1.5c-.27.63-.83,1-1.29.76"/><path class="cls-1" d="M54.91,50.45a.77.77,0,0,1-.21-.72,1.26,1.26,0,0,1,.48-.7,1.81,1.81,0,0,1,.75-.35.62.62,0,0,1,.53.1c.21.21.17.81-.17,1.34a1.16,1.16,0,0,1-.66.51.74.74,0,0,1-.72-.18"/><path class="cls-1" d="M53.46,48.45c-.21-.39.07-.91.59-1.15s1.05-.19,1.21.11-.06.81-.54,1.14a.87.87,0,0,1-1.26-.1"/><path class="cls-1" d="M52.56,46.28c-.12-.38.22-.79.72-.91s1,0,1,.32a.52.52,0,0,1-.13.49,1.18,1.18,0,0,1-.55.41c-.48.2-1,.06-1.09-.31"/><path class="cls-1" d="M52.13,44c0-.35.33-.64.8-.65s.84.2.85.48-.3.57-.75.65-.87-.14-.9-.48"/><path class="cls-1" d="M52.26,41.64c0-.3.43-.47.81-.38s.66.35.63.59-.39.42-.79.39-.69-.3-.65-.6"/><path class="cls-1" d="M53,39.42a.53.53,0,0,1,.75-.11c.3.17.46.46.37.65a.59.59,0,0,1-.73.12c-.32-.12-.52-.43-.39-.66"/><path class="cls-1" d="M64.43,28.12a1.15,1.15,0,0,1,.85.09,1.38,1.38,0,0,1,.68.65,1.15,1.15,0,0,1,0,1,1.38,1.38,0,0,1-.32.41,1.13,1.13,0,0,1-.48.27,1.33,1.33,0,0,1-.55.06,1.5,1.5,0,0,1-.49-.17,1.14,1.14,0,0,1-.52-.8,1.52,1.52,0,0,1,.17-.93,1.23,1.23,0,0,1,.65-.54"/><path class="cls-1" d="M66.83,26.87a1.2,1.2,0,0,1,1.56.22,1.06,1.06,0,0,1,.27.83,1.18,1.18,0,0,1-.48.8,1.19,1.19,0,0,1-.91.21,1.1,1.1,0,0,1-.71-.52,1.24,1.24,0,0,1-.14-.85,1.07,1.07,0,0,1,.41-.69"/><path class="cls-1" d="M68.89,24.92a1.07,1.07,0,0,1,1.43-.15,1,1,0,0,1,.16,1.48,1,1,0,0,1-1.47.1,1.06,1.06,0,0,1-.12-1.43"/><path class="cls-1" d="M70.55,22.51a1,1,0,0,1,1.25-.36.92.92,0,1,1-.9,1.61,1,1,0,0,1-.35-1.25"/><path class="cls-1" d="M71.76,19.84a.86.86,0,0,1,1-.54.82.82,0,1,1-.5,1.57.85.85,0,0,1-.52-1"/><path class="cls-1" d="M72.32,17a.76.76,0,0,1,.7-.71.72.72,0,1,1,0,1.44.76.76,0,0,1-.68-.73"/><path class="cls-1" d="M71.84,14.28a.65.65,0,0,1,.26-.81.62.62,0,1,1,.54,1.11.65.65,0,0,1-.8-.3"/><path class="cls-1" d="M64.38,15.38c.07-.14.39-.24.87-.34a7,7,0,0,1,1.8-.16,2.77,2.77,0,0,1,1.7.57,1.24,1.24,0,0,1,.41,1.34,1.33,1.33,0,0,1-1.19.84,3,3,0,0,1-1.75-.52A10.94,10.94,0,0,1,64.84,16c-.33-.31-.53-.51-.46-.65"/><path class="cls-1" d="M64.53,13.65c0-.18.16-.45.5-.76a5.36,5.36,0,0,1,1.4-.89A2.84,2.84,0,0,1,68,11.74a1,1,0,0,1,.9.77,1.15,1.15,0,0,1-.51,1.13,2.94,2.94,0,0,1-1.59.51,6,6,0,0,1-1.61-.1c-.41-.09-.68-.21-.7-.4"/><path class="cls-1" d="M63.68,11.6c-.23-.37.24-1.28,1.1-2a3,3,0,0,1,1.32-.69.89.89,0,0,1,1,.3,1,1,0,0,1-.08,1,3,3,0,0,1-1.11,1,4.33,4.33,0,0,1-1.38.52c-.39.06-.68,0-.8-.17"/><path class="cls-1" d="M62.11,9.65c-.13-.12-.13-.39,0-.75a5.24,5.24,0,0,1,.5-1.25,2.22,2.22,0,0,1,.95-1,.87.87,0,0,1,.95,0c.49.43.19,1.36-.54,2.08s-1.56,1.05-1.81.82"/><path class="cls-1" d="M60.4,8.78c-.32,0-.66-.78-.69-1.7s.35-1.66.91-1.61a.8.8,0,0,1,.64.58,2.13,2.13,0,0,1,0,1.21,3.85,3.85,0,0,1-.41,1.1c-.16.28-.31.44-.48.42"/><path class="cls-1" d="M57.84,8.82c-.3.06-.74-.48-1-1.23s-.12-1.49.34-1.6.9.5,1,1.29,0,1.47-.35,1.54"/><path class="cls-1" d="M55.68,9.67c-.09.08-.27.06-.49,0a2.63,2.63,0,0,1-.77-.45,1.61,1.61,0,0,1-.54-.72A.56.56,0,0,1,54,7.84a.58.58,0,0,1,.63-.06,1.72,1.72,0,0,1,.68.6,2.66,2.66,0,0,1,.39.8c.07.24.07.4,0,.49"/><path class="cls-1" d="M16.79,8.44a3.11,3.11,0,0,0,1,2.67A4.94,4.94,0,0,0,20,12.36a7.07,7.07,0,0,0,3,.06,21.86,21.86,0,0,0,5.44-2c.72-.35,1.32-.62,1.75-.79a2.41,2.41,0,0,1,.69-.23,3.48,3.48,0,0,1-.6.4c-.4.24-.95.59-1.62,1s-1.46.94-2.36,1.43A14.27,14.27,0,0,1,23.3,13.5a8.27,8.27,0,0,1-3.54.25,6.4,6.4,0,0,1-3.12-1.38,5.3,5.3,0,0,1-1-1.16,3.79,3.79,0,0,1-.35-.62A4.1,4.1,0,0,1,15,10a4.52,4.52,0,0,1-.18-1.71,4.41,4.41,0,0,1,.21-1,4.31,4.31,0,0,1,.53-1,3.57,3.57,0,0,1,.84-.85,4.41,4.41,0,0,1,.5-.3,3.93,3.93,0,0,1,.54-.2,2.24,2.24,0,0,1,1.79.24c.4.28.45.59.36.67s-.33,0-.62,0a2.15,2.15,0,0,0-1,.34l-.25.19a1.79,1.79,0,0,0-.23.25,2.46,2.46,0,0,0-.38.57,3.35,3.35,0,0,0-.32,1.27"/><path class="cls-1" d="M3.36,17.56a4.68,4.68,0,0,1-.8-.37,5.85,5.85,0,0,1-1-.8A5.34,5.34,0,0,1,.51,15,5.1,5.1,0,0,1,0,13.07,6.15,6.15,0,0,1,1.39,8.91,7.06,7.06,0,0,1,5.32,6.57a8.44,8.44,0,0,1,2.22-.21,10.52,10.52,0,0,1,2.08.31,13.32,13.32,0,0,1,3.32,1.4A22,22,0,0,1,15,9.44a4.11,4.11,0,0,1,.72.59,5.24,5.24,0,0,1-.82-.43c-.52-.28-1.25-.7-2.17-1.12A13.22,13.22,0,0,0,9.46,7.43a8.27,8.27,0,0,0-3.85.21A5.81,5.81,0,0,0,2.52,9.78a4.56,4.56,0,0,0-.83,3.14A3.26,3.26,0,0,0,2.8,15a4.11,4.11,0,0,0,.7.49,4.69,4.69,0,0,0,.5.21,2.78,2.78,0,0,0,.77.17l.21,0h.21a2,2,0,0,0,.42-.06,3.17,3.17,0,0,0,.83-.36,3.69,3.69,0,0,0,.7-.6,3.72,3.72,0,0,0,.76-1.37c.11-.41.15-.71.28-.74s.14,0,.23.16a1.43,1.43,0,0,1,.24.59,3.24,3.24,0,0,1-.37,2.11,4.09,4.09,0,0,1-.83,1.1,4.15,4.15,0,0,1-1.27.8,4.14,4.14,0,0,1-2.82,0"/><path class="cls-1" d="M24.08,8.22a3.39,3.39,0,0,0,.21.39,2.78,2.78,0,0,0,.53.6,2.83,2.83,0,0,0,1,.52,4.17,4.17,0,0,0,1.3.2,7.68,7.68,0,0,0,2.54-.52A6.32,6.32,0,0,1,30.79,9a3.94,3.94,0,0,1-.94.8A7.27,7.27,0,0,1,27.23,11a5.42,5.42,0,0,1-1.71.1,4.33,4.33,0,0,1-1.61-.5,3.84,3.84,0,0,1-1.57-1.56A2.58,2.58,0,0,1,22.09,8a2.93,2.93,0,0,1,0-.59,2.55,2.55,0,0,1,.19-.55A1.39,1.39,0,0,1,23,6.2c.24-.09.42,0,.48.08a1.08,1.08,0,0,1,.08.42,2.4,2.4,0,0,0,.09.5,4.48,4.48,0,0,0,.2.54c.07.17.16.33.23.48"/><path class="cls-1" d="M31.1,13.53c-.1-.2-.24-.5-.41-.9a8.08,8.08,0,0,1-.5-1.55,6.14,6.14,0,0,1-.07-2.2,6.85,6.85,0,0,1,.29-1.21,8.33,8.33,0,0,1,.53-1.19,7.68,7.68,0,0,1,1.78-2.15,8.93,8.93,0,0,1,2.54-1.47,12.09,12.09,0,0,1,5.9-.63,11.62,11.62,0,0,1,5.29,2.08A10,10,0,0,1,49.53,8a10.09,10.09,0,0,1,.65,1.79,9.1,9.1,0,0,1,.23,1.43,6.91,6.91,0,0,1,0,.92,1,1,0,0,1,0,.32s0-.45-.15-1.22a9.78,9.78,0,0,0-.35-1.36,9.13,9.13,0,0,0-.75-1.66A9.42,9.42,0,0,0,46,5a10.68,10.68,0,0,0-5-1.62,10.82,10.82,0,0,0-5.23.84,7.48,7.48,0,0,0-2.06,1.34,6.07,6.07,0,0,0-1.32,1.76,5.93,5.93,0,0,0-.36.93,5.12,5.12,0,0,0-.18.9A4.33,4.33,0,0,0,32,10.66a10.88,10.88,0,0,0,.83,2,11.82,11.82,0,0,1,1.13,3,5.11,5.11,0,0,1,0,1.91,3.7,3.7,0,0,1-.83,1.71,2.78,2.78,0,0,1-.7.58,2.51,2.51,0,0,1-.78.3,2.32,2.32,0,0,1-1.33-.08,1.47,1.47,0,0,1-.71-.5c-.12-.16-.14-.29-.09-.33s.43.11.95.1a2,2,0,0,0,.41-.06,2.32,2.32,0,0,0,.44-.16,1.65,1.65,0,0,0,.41-.28,2.24,2.24,0,0,0,.32-.4,2.71,2.71,0,0,0,.32-1.13,3.56,3.56,0,0,0-.15-1.28,15.28,15.28,0,0,0-1.12-2.56"/><path class="cls-1" d="M35.46,12.67a2.93,2.93,0,0,1-1.39.17,3.89,3.89,0,0,1-2-.84,3.51,3.51,0,0,1-.74-.81,2.88,2.88,0,0,1-.36-.85,1.87,1.87,0,0,1,0-.64A.65.65,0,0,1,31,9.47a3.7,3.7,0,0,0,.21.8,2.43,2.43,0,0,0,.45.68,3.31,3.31,0,0,0,.74.59,3.42,3.42,0,0,0,1.75.46,2.59,2.59,0,0,0,1-.22,5,5,0,0,0,.86-.44c.27-.16.48-.36.61-.31s.12.4-.1.77a2.12,2.12,0,0,1-1,.87"/><path class="cls-1" d="M37.78,15.44a4.26,4.26,0,0,1-1.62,0,4.7,4.7,0,0,1-1.22-.37,5.87,5.87,0,0,1-1.14-.71,7.2,7.2,0,0,1-1.56-1.77c-.16-.26-.28-.49-.36-.65a.86.86,0,0,1-.11-.26s.25.32.66.77a7.33,7.33,0,0,0,1.69,1.45,4.89,4.89,0,0,0,1.09.51,4.1,4.1,0,0,0,1,.19,4.34,4.34,0,0,0,1.3-.14,7.19,7.19,0,0,0,1.18-.36c.37-.16.66-.34.77-.25s0,.45-.38.8a2.73,2.73,0,0,1-1.34.75"/><path class="cls-1" d="M42,18.44a2.86,2.86,0,0,0-.53-.4,4.81,4.81,0,0,0-1.2-.5c-.51-.15-1.15-.26-1.85-.39a9.2,9.2,0,0,1-2.19-.64,8.47,8.47,0,0,1-1.85-1.17,9.94,9.94,0,0,1-1.3-1.3,4.24,4.24,0,0,1-.89-1.49c.05,0,.44.53,1.22,1.17a9,9,0,0,0,3.2,1.75,34.43,34.43,0,0,0,4,.42,6.13,6.13,0,0,1,1.72.49,4.35,4.35,0,0,1,1,.63,3.2,3.2,0,0,1,.47.54,2.67,2.67,0,0,1,.36.74,2.81,2.81,0,0,1,0,1.57,1.81,1.81,0,0,1-.67,1c-.27.17-.48.17-.56.07s-.07-.28-.07-.49a2.37,2.37,0,0,0-.07-.73,2.5,2.5,0,0,0-.32-.75,2.45,2.45,0,0,0-.23-.29L42,18.44"/><path class="cls-1" d="M37.65,19.34a10.15,10.15,0,0,1-1.39-1A12.83,12.83,0,0,1,33,14.18c-.15-.31-.25-.58-.32-.76a1,1,0,0,1-.09-.3s.23.38.61.94a13.67,13.67,0,0,0,1.58,2,12.07,12.07,0,0,0,2,1.69,13.45,13.45,0,0,0,1.34.79l1.29.74c.41.24.75.44.71.58s-.43.15-.94.06a5.26,5.26,0,0,1-1.52-.53"/><path class="cls-1" d="M36.59,21.46a1.35,1.35,0,0,1-.41,0,1.55,1.55,0,0,1-.62-.18,1.88,1.88,0,0,1-.58-.47,2.73,2.73,0,0,1-.37-.63,3.86,3.86,0,0,1-.36-1.17,1.09,1.09,0,0,1,0-.54,4.79,4.79,0,0,1,.2.48,4.67,4.67,0,0,0,.61,1,1.65,1.65,0,0,0,.81.61.66.66,0,0,0,.42,0,.92.92,0,0,0,.34-.12l.18-.14a.59.59,0,0,1,.17-.12.22.22,0,0,1,.21.11.67.67,0,0,1,.07.42,1.07,1.07,0,0,1-.23.48,1,1,0,0,1-.46.3"/><path class="cls-1" d="M37.81,7.39a3.31,3.31,0,0,1,1.27-.56A3.74,3.74,0,0,1,41.3,7a3.67,3.67,0,0,1,1.12.71A5,5,0,0,1,44,11.38a4,4,0,0,1-.81,2.45,3.82,3.82,0,0,1-1.74,1.24,3.08,3.08,0,0,1-1.43.15l-.23-.05-.16-.05-.13-.06a.32.32,0,0,1,.15,0H40a3.09,3.09,0,0,0,1.25-.39,3.25,3.25,0,0,0,1.28-1.25,3.08,3.08,0,0,0,.34-2,3.78,3.78,0,0,0-.8-1.85A3.14,3.14,0,0,0,41.42,9a2.21,2.21,0,0,0-.69-.34,2.12,2.12,0,0,0-1.19,0,1.9,1.9,0,0,0-.56.29,2.5,2.5,0,0,0-.24.22,1,1,0,0,0-.18.26,1,1,0,0,0-.11.63,1.15,1.15,0,0,0,.38.56c.16.14.34.21.37.34s-.1.33-.46.4a1.57,1.57,0,0,1-1.38-.47A2.18,2.18,0,0,1,36.83,9,2.52,2.52,0,0,1,37.2,8a2.74,2.74,0,0,1,.61-.65"/><path class="cls-1" d="M22.54,16.42l.81-.33a12.59,12.59,0,0,0,1.36-.65c.94-.51,1.76-1.18,1.84-1.12a5.23,5.23,0,0,1-1.12,2,9.24,9.24,0,0,1-1.17,1.23,4.67,4.67,0,0,1-.82.62,1.68,1.68,0,0,1-1,.16.82.82,0,0,1-.73-.44,1,1,0,0,1,.19-.82,2,2,0,0,1,.63-.61"/><path class="cls-1" d="M24.16,19.89c.15-.24,1-1.19,1.78-2.13A15.2,15.2,0,0,1,27.54,16a9.07,9.07,0,0,1-.63,2.36A18.08,18.08,0,0,1,25.77,21c-.32.49-1.24,1.06-1.68.75s-.24-1.34.07-1.81"/><path class="cls-1" d="M28,21a6.8,6.8,0,0,1-.22-1,9.65,9.65,0,0,1-.07-1.82,5.86,5.86,0,0,1,.36-1.65c.17-.41.34-.65.38-.63s0,.29.08.71A6.54,6.54,0,0,0,28.84,18a17.45,17.45,0,0,0,1,2.3c.17.49.12,1.51-.37,1.71S28.21,21.5,28,21"/><path class="cls-1" d="M27.58,13A13.4,13.4,0,0,1,29,11.09a6.16,6.16,0,0,1,1.42-1.41,8.65,8.65,0,0,1-.44,1.92c-.26,1-.5,2-.59,2.17-.18.41-.87,1-1.37.76s-.59-1.11-.39-1.55"/><path class="cls-1" d="M10,3.36a3.48,3.48,0,0,1,1.11.45A5.52,5.52,0,0,1,12.47,5a8.65,8.65,0,0,1,.93,1.33,1.67,1.67,0,0,1,.3.66s-.28-.11-.63-.34-.82-.54-1.3-.79a4.81,4.81,0,0,0-1.36-.51,6.85,6.85,0,0,0-.77-.11A2.14,2.14,0,0,1,9,5c-.24-.15-.51-.32-.59-.58s.1-.56.45-.78A1.67,1.67,0,0,1,10,3.36"/><path class="cls-1" d="M12.56.83a22.13,22.13,0,0,1,.84,4.28A21.76,21.76,0,0,1,10.78,1.6c-.19-.44-.12-1.35.37-1.56s1.22.36,1.41.79"/><path class="cls-1" d="M16.43,3.29c-.12.19-.87.91-1.43,1.7a8.93,8.93,0,0,0-.69,1.15c-.16.33-.25.56-.3.56s-.12-.25-.15-.65A5.37,5.37,0,0,1,14,4.57a8.35,8.35,0,0,1,.86-2.38c.29-.43,1.14-.83,1.56-.51s.29,1.23,0,1.61"/><path class="cls-1" d="M12.45,12.46a.8.8,0,0,0,1.14.17c.44-.26.68-.66.54-.94A.89.89,0,0,0,13,11.5c-.46.2-.73.61-.56,1"/><path class="cls-1" d="M13.48,14a.58.58,0,0,0,.53.15.9.9,0,0,0,.52-.36,1.23,1.23,0,0,0,.26-.56.45.45,0,0,0-.07-.39.94.94,0,0,0-1,.13.9.9,0,0,0-.38.49.55.55,0,0,0,.14.54"/><path class="cls-1" d="M15,15.1c.28.16.67,0,.85-.43s.14-.78-.09-.91-.6.05-.84.4a.64.64,0,0,0,.08.94"/><path class="cls-1" d="M16.58,15.77c.28.09.58-.16.67-.53s0-.72-.24-.79a.43.43,0,0,0-.36.1,1,1,0,0,0-.31.41c-.14.36,0,.73.24.81"/><path class="cls-1" d="M18.29,16.09c.26,0,.47-.25.48-.59s-.15-.62-.36-.64-.42.23-.48.57.1.64.36.66"/><path class="cls-1" d="M20,16a.47.47,0,0,0,.28-.61c-.07-.29-.26-.49-.44-.46s-.31.29-.29.58.22.52.45.49"/><path class="cls-1" d="M21.67,15.43a.39.39,0,0,0,.09-.56c-.13-.23-.34-.35-.48-.28s-.19.3-.09.54.31.39.48.3"/><path class="cls-1" d="M30.07,7A.85.85,0,0,0,30,6.31a1,1,0,0,0-.48-.5.86.86,0,0,0-.72,0,.93.93,0,0,0-.3.23.91.91,0,0,0-.2.36,1.18,1.18,0,0,0,0,.41,1.11,1.11,0,0,0,.13.36.84.84,0,0,0,.59.39,1.07,1.07,0,0,0,.69-.13.86.86,0,0,0,.4-.48"/><path class="cls-1" d="M31,5.16A.9.9,0,0,0,30.85,4a.81.81,0,0,0-.63-.19.88.88,0,0,0-.59.35.85.85,0,0,0-.15.68.76.76,0,0,0,.39.52.89.89,0,0,0,.63.11.76.76,0,0,0,.5-.31"/><path class="cls-1" d="M32.46,3.63a.8.8,0,0,0,.1-1.07.74.74,0,0,0-1.09-.11.75.75,0,0,0-.07,1.1.79.79,0,0,0,1.06.08"/><path class="cls-1" d="M34.25,2.4a.71.71,0,0,0,.27-.93.69.69,0,0,0-1-.29.68.68,0,0,0-.25,1,.71.71,0,0,0,.93.26"/><path class="cls-1" d="M36.23,1.5a.64.64,0,0,0,.4-.76.6.6,0,0,0-.77-.42.6.6,0,0,0-.39.79.64.64,0,0,0,.76.39"/><path class="cls-1" d="M38.33,1.08a.56.56,0,0,0,.53-.52.54.54,0,1,0-1.07,0,.55.55,0,0,0,.54.51"/><path class="cls-1" d="M40.36,1.44a.49.49,0,0,0,.61-.2.44.44,0,0,0-.2-.63.44.44,0,0,0-.62.23.48.48,0,0,0,.21.6"/><path class="cls-1" d="M39.55,7c.11-.05.18-.29.26-.64A5.37,5.37,0,0,0,39.92,5a2,2,0,0,0-.43-1.26.91.91,0,0,0-1-.31,1,1,0,0,0-.63.88,2.15,2.15,0,0,0,.4,1.3,7.29,7.29,0,0,0,.8,1c.23.25.37.39.48.34"/><path class="cls-1" d="M40.83,6.88c.14,0,.34-.13.57-.38a4.15,4.15,0,0,0,.66-1,2.15,2.15,0,0,0,.2-1.2.8.8,0,0,0-.58-.67.87.87,0,0,0-.84.38,2.23,2.23,0,0,0-.38,1.18,4.78,4.78,0,0,0,.08,1.2c.07.31.15.51.29.53"/><path class="cls-1" d="M42.36,7.5c.27.17,1-.17,1.51-.82a2.08,2.08,0,0,0,.51-1A.67.67,0,0,0,44.16,5a.77.77,0,0,0-.78.06,2.21,2.21,0,0,0-.76.83,3.28,3.28,0,0,0-.39,1c0,.29,0,.51.13.59"/><path class="cls-1" d="M43.81,8.67c.09.1.29.1.55,0a3.49,3.49,0,0,0,.94-.38,1.62,1.62,0,0,0,.7-.7.63.63,0,0,0,0-.71c-.31-.36-1-.14-1.54.41s-.79,1.15-.61,1.34"/><path class="cls-1" d="M44.45,9.94c0,.24.58.5,1.27.52s1.23-.26,1.2-.68a.64.64,0,0,0-.43-.48,1.69,1.69,0,0,0-.9,0,2.83,2.83,0,0,0-.83.31c-.2.11-.32.23-.31.35"/><path class="cls-1" d="M44.43,11.84c0,.23.35.56.91.76s1.11.08,1.19-.25-.37-.68-1-.77-1.09,0-1.14.26"/><path class="cls-1" d="M43.79,13.46c-.06.06,0,.19,0,.36a2.57,2.57,0,0,0,.34.57,1.17,1.17,0,0,0,.54.4.41.41,0,0,0,.46-.08.43.43,0,0,0,.05-.47,1.31,1.31,0,0,0-.45-.5,2.19,2.19,0,0,0-.59-.3c-.18,0-.3,0-.37,0"/></g></g></svg>